<mxfile host="app.diagrams.net" modified="2021-02-18T08:46:10.031Z" agent="5.0 (Windows NT 10.0; Win64; x64) AppleWebKit/537.36 (KHTML, like Gecko) Chrome/88.0.4324.150 Safari/537.36 Edg/88.0.705.68" etag="VUeNQUrzO-ZAz7nistN7" version="14.3.2" type="github">
  <diagram id="5cm5zCvIMOmnribpouPZ" name="Page-1">
    <mxGraphModel dx="1022" dy="869" grid="0" gridSize="10" guides="1" tooltips="1" connect="1" arrows="1" fold="1" page="0" pageScale="1" pageWidth="850" pageHeight="1100" math="0" shadow="0">
      <root>
        <mxCell id="0" />
        <mxCell id="1" parent="0" />
        <mxCell id="gcra_a-b6aYlQ8D47dko-1" value="" style="verticalLabelPosition=bottom;html=1;verticalAlign=top;align=center;strokeColor=none;fillColor=#00BEF2;shape=mxgraph.azure.azure_subscription;" parent="1" vertex="1">
          <mxGeometry x="122.6" y="-23.08" width="40" height="30" as="geometry" />
        </mxCell>
        <mxCell id="gcra_a-b6aYlQ8D47dko-4" value="" style="aspect=fixed;html=1;points=[];align=center;image;fontSize=12;image=img/lib/azure2/general/Resource_Groups.svg;" parent="1" vertex="1">
          <mxGeometry x="183.48" y="35" width="20" height="18.81" as="geometry" />
        </mxCell>
        <mxCell id="gcra_a-b6aYlQ8D47dko-63" style="edgeStyle=orthogonalEdgeStyle;rounded=0;jumpStyle=none;orthogonalLoop=1;jettySize=auto;html=1;startArrow=none;startFill=0;endArrow=none;endFill=0;fillColor=#0050ef;strokeColor=#001DBC;" parent="1" source="gcra_a-b6aYlQ8D47dko-14" edge="1">
          <mxGeometry relative="1" as="geometry">
            <mxPoint x="480" y="310" as="targetPoint" />
            <Array as="points">
              <mxPoint x="346" y="70" />
              <mxPoint x="480" y="70" />
            </Array>
          </mxGeometry>
        </mxCell>
        <mxCell id="gcra_a-b6aYlQ8D47dko-13" value="" style="whiteSpace=wrap;html=1;dashed=1;strokeColor=#001DBC;fontColor=#ffffff;fillColor=none;" parent="1" vertex="1">
          <mxGeometry x="210" y="77.5" width="160" height="62.5" as="geometry" />
        </mxCell>
        <mxCell id="gcra_a-b6aYlQ8D47dko-14" value="" style="aspect=fixed;html=1;points=[];align=center;image;fontSize=12;image=img/lib/azure2/networking/Virtual_WANs.svg;dashed=1;fillColor=none;" parent="1" vertex="1">
          <mxGeometry x="325.74" y="82.5" width="40.63" height="40" as="geometry" />
        </mxCell>
        <mxCell id="gcra_a-b6aYlQ8D47dko-76" style="edgeStyle=orthogonalEdgeStyle;rounded=0;jumpStyle=none;orthogonalLoop=1;jettySize=auto;html=1;entryX=0.74;entryY=0.5;entryDx=0;entryDy=0;entryPerimeter=0;startArrow=classic;startFill=1;endArrow=classic;endFill=1;fillColor=#0050ef;strokeColor=#001DBC;" parent="1" source="gcra_a-b6aYlQ8D47dko-15" target="gcra_a-b6aYlQ8D47dko-17" edge="1">
          <mxGeometry relative="1" as="geometry" />
        </mxCell>
        <mxCell id="gcra_a-b6aYlQ8D47dko-84" style="edgeStyle=orthogonalEdgeStyle;rounded=0;jumpStyle=none;orthogonalLoop=1;jettySize=auto;html=1;startArrow=classic;startFill=1;endArrow=classic;endFill=1;fillColor=#0050ef;strokeColor=#001DBC;" parent="1" source="gcra_a-b6aYlQ8D47dko-15" target="gcra_a-b6aYlQ8D47dko-14" edge="1">
          <mxGeometry relative="1" as="geometry" />
        </mxCell>
        <mxCell id="gcra_a-b6aYlQ8D47dko-15" value="" style="shape=image;verticalLabelPosition=bottom;labelBackgroundColor=#ffffff;verticalAlign=top;aspect=fixed;imageAspect=0;image=data:image/jpeg,/9j/4AAQSkZJRgABAQAAAQABAAD/2wBDAAsJCQcJCQcJCQkJCwkJCQkJCQsJCwsMCwsLDA0QDBEODQ4MEhkSJRodJR0ZHxwpKRYlNzU2GioyPi0pMBk7IRP/2wBDAQcICAsJCxULCxUsHRkdLCwsLCwsLCwsLCwsLCwsLCwsLCwsLCwsLCwsLCwsLCwsLCwsLCwsLCwsLCwsLCwsLCz/wAARCAEOAO4DASIAAhEBAxEB/8QAGwABAAIDAQEAAAAAAAAAAAAAAAEHBAUGAgP/xABLEAABAwMABgQICQkIAgMAAAABAAIDBAURBhIhMUFRE2GBoRQWIkJVcbHSIzI1UnSRk5SyFVRigqKzwdHwJDM0Q1NydZIl8USj4f/EABsBAQACAwEBAAAAAAAAAAAAAAAEBgEDBQIH/8QANREAAgIBAgMFBgUEAwEAAAAAAAECAwQFERIhMRNBUVKhFTJxgZGxFDRhweEiM9HxJELwU//aAAwDAQACEQMRAD8AttERAEREAREQBEUZQEqFortpRaLUXxa5qatuR0FOR5LuUsnxR3nqXEXHSy+1+sxswpIDs6Oky1xH6Up8v6iPUujjabfkc0tl4s5uTqVGPyb3fgixa28We3ZFZWQxvH+WDry/Zxgu7lztXp3QMyKOinnPB87mwszzDRrO7gq+JJJJ2kkkk7yeZKhd+nRKIc7G5P6I4N2tXz5VpR9WdPUabaQS/wBz4JTjh0cOu7tMpI7lrZdIdI589Jc6rB3iNzYh9UYC1SLpQwseHuwX0ObPMvs96b+p931dY9xc+pnc473Oe4n616jr7jCdaGrqIzvzHK9pz2FYyKQ4R222I6nJPfc3EOk2ksONW5TOA4TCOX6+kaT3raU+nN5jwKiCkqGjedV8Mh7Wkt/ZXJoos8HHn70ESYZ2RX7s2WRSacWabDaqKppXHzi0TRD9aPyv2V0VLXUFcwSUdTDOzGT0Tw4t/wBzd47QqVXuOWaGRssMkkUrdrZInOY8Hqc3auZdodUudT2f1R06dbtjytW/oXgFKrW26aXalLI60NrYRgFxxHUAdT2jVPaO1dvbL3arszNJN8IBl8EvkTs9bCd3WCQuBk4F+NzmuXijv42fRk8oPn4M2aKMqVBJ4REQBERAEREAREQBERAEReHvZGx75HNYxjXPe55w1rWjJLidmAgPM08FNFJPPKyKGJpfI95Aa1o5lV3fdLqutMlNbi+no9rXSjyaiccdo2tb1Db9eFiaR6QS3efooXObboH/AALNxmeNnTSD8I4esrQK2adpUYJW3rd+HgVLUdUlNuql7Lx8f4IUqEVgK+ERFkBERAEREAREQBERAF7jklikjlie9ksZDo3xuLXtcOLSNq8IsNJrZmU2nujvbBpiJDFR3dzWvOGx1mxrHHgJwNgPXu543nts5x9aoxdtonpIYzDarhJ8GcR0Uzz8QnYIXuPA+aezlisalpaindQviv8ABZtN1Ryaqufwf+TvkUZUqtFmCIiAIiIAiIgCIiALgdMr50j3Welf5EZBr3NPx3jaIcjgN7uvA4bepvt0baLdUVQIM7vgaVp86d4OqcchtJ9XWqic973Oe9xc9zi57nHJc4nJJPMrv6Ph9pLt5rkunx/g4GsZnZx7GD5vr8P5IUIpVtKiQiIsgIi2lrsN4uxa6lg1ac//ACajLIP1TjWd2DtWuy2FUeKb2RtrqnbLhgt2atCQN5A9ZAViUWgtsiDXV9RPVSbCWRnoIfVhh1z/ANl0FLZrJR48Gt9JGRucIml+zm92Xd641ut0Qe0E5eh2atEulzm0vUp5kU8m2OGZ4O0GON7we1oKPjlj/vI5WAf6kb2fiAV4AADAwB1bPYhAIwQCOR2+1RPbz3/t+v8ABK9grb3/AEKMBB3EH1bUVxVVjsVbreEW+mc4+e1gjk7Hx4d3rm6/QSncC+2VT4ncIqv4SM9Qkbh47cqZTrVE+U04kO7Rr4c4bSOBRZtfa7nbJBFW074snDJPjQyf7JBs7N/UsJdmE4zXFF7o404Sg+GS2YREXs8EqFKhAWXolfPyjTeA1Mma2kYNVzj5U8A2B/rGwO7DxXUqlKGsqLfV0tZAfhKeQPAzgPbucw9RGR/6Vx0dVBW0tNVwO1oaiNsrDxweB6xuKpWq4ax7OOC/pl6MumlZnb18E/ej9jIREXHOyEREAREQBQVK+FXUx0lLVVUnxKeGSZ23GQxpdjtWUm3sjDaS3ZXWmlx8LuTaNhzDb2lhxuNQ/Dnns2DsK5dfSWWSeWaeU5lmkfLITxc8lxXzX0PGpVFUa13HzvJud9srH3hSoUqSRyE4dQ2lFudHLT+V7nFFIM0lMBU1fJzQcNi/WO/qBWq62NUHZLojbTVK6arj1Zu9GNFY6mOK5XSPWheA+kpX5Ae3eJZxyPmjtO/C75rWsDWtaGtaNVrWjAAG4ADYpAA2DduAG4KVQcrKsyZ8c/kvAv2Ni140OCC+fiERFFJQREQBERAfGopqarhkgqYY5oZBh8cgy09e3jyVZaSaOyWeRs8GvJb5narHOyXwPP8AlyO4j5p7N4y6018Kqmp6ynqKWoZrwzxujkb1HiDzG8KdhZs8We693vRAzcKGVDZ+93MpJFnXS3zWuuqaKXJMTgY3kY6WJ21jx6+PWDyWCr5CanFSi+TKJODrk4y6olQpUL2eAu90FuOtFV2t52wk1VNn/TeQJGj1HB/WXBLZ2KtNvu1tqScR9MIZuRim+Ddn1ZB7FAz6O3x5R7+q+JOwL+wvjLu6MuBSo5qVQS/hERAEREBC5zTKp6CyTxg4dVzQ0w56ueldjsbjtXRrh9P5fJs0AO91VM79UMYPaVO0+vtMqCfj9uZA1Gzs8acl4ffkcKoRFfigkooUrIH81ZmhdAKW0NqnNxNcJDUOJ39E3yIh9WT+sq0ZG+Z8ULPjzSMhZ/ukcGD2q7aeGOnggp4xhkEUcLB+ixoaFXtcu4a41Lv/AGLDodPFZKx937n1REVTLYEREAREQBERAEREBx2nFvEtHT3FjfhKR4hlIG+CU4GfU7H/AGVeq57nTNrLdcaUgEz0szG9T9Ulp7DhUvt47Fb9Euc6XW/+r+5T9bpULlYv+y+xKKEXeOEEOcEDfg4PWilYMlz2upFZbrdVcZ6WGR3U4tGsPrysxc9odN0tgohxhkqoT1asrnDuIXQr51kQ7O2UPBs+i48+0qjLxSCIi0G8IiICFXmnpPh9tbwFE53/AGlP8lYirnTz5ToP+Pb++kXW0hf8qPz+xydX/Ky+RyKIiu5SAiKUBs9H4RPe7LGdo8LbKR1QtdN/BXAqq0QaDpBQfoxVbv8A6iP4q1FT9clvfFfp+7LhokdqG/FkooRcI7pKKEQEooRASihEBKKEQEqkKlgjqKqMbBHPMwD/AGvIV3clStd/jbh9Lqf3rlY9Cf8AVP5Fc173YfMxkRFaiqhERYBZOghzaKpvzbhN3xxFdWuS0D+Sq7/kX/uYl1qoOofmZ/Ev+n/lofAIiKCTiFh110tdtaHVtVFDkZaxxLpHj9GNoLj9S1Gk2kP5IiZT02q64VDC5msAWwR7ulcDsJO5o6s8MGs5ZZp5JJp5JJZZDrPkkcXPcesldnB0uWSu0m9o+rOLnapHGfZwW8vRFhT6d2dhIgpaybG4uEcTT9bi79lclf7yy91VPUNp3QCKnEGq6QSE4e5+cgDmtOoVjx9Oox5ccFz+JXcjUb8iPBN8vgERF0TnBSiIDOtFyfaa6OuZE2VzI5Ywx7i1p6RurnIBXS+P1Z6Np/t5PdXFood2FRfLjsjuyZTm30R4K5bI7Tx+rPRtP9vJ7qeP1Z6Np/t5PdXFotPsvF8nqzb7TyvP9jtPH6s9G0/28nup4/Vno2n+3k91cWiey8XyerHtPK8/2O08fqz0bT/bye6nj9Wejaf7eT3VxaJ7LxPJ6se08rz/AGO08fqz0bT/AG8nup4/Vno2n+3k91cWiey8TyerHtPK8/2O08fqz0bT/bye6nj9Wejaf7eT3VxaJ7LxfJ6se08rz/Y7Tx+q/RtP9vJ7i4+aUzTTzEAGaWSUgbQC9xdgL5qVIoxKcdt1R23NF+XdekrJb7EIpUKURQiIgOm0f0mhstJNTPo5JulqXTl7JWtwCxrMapb1c+K6Wm03sMxDZ2VdMT50kYewdsRJ/ZVaIuXfpePdJzknu/1OpRqmRTFQi1sv0LtpqujrIhNSzxTRHzonBwB5HG0FfZUtQ19dbZ21NHM6KQfGG9kg+bI3cR/WxWtZLvBeaJlSwakrT0dTFnJilABwDyO8H+SrWfp08T+pPeJZMHUY5f8AS1tIqy510lxuFbWvJ+HlcWA+bE3yWN7BhYSIrtCChFRj0RSpzc5OUurCIi9ngIiICUUKUBCIiAIiIAiLpdGtG33VzKysa5ttY7yW7WurHDzWnfqDieO4c1ovvhjwdlj5EiiieRNQguZ8rJoxXXiGapLxT0wY4Uz3tJ8ImGwYHzBxP1blpqqlqqKompaqIxzxO1XtPc5p4g8CrqYyONrWRta1jGhrGtADWtaMAADZham+2KlvVPg6sdZED4NPj4vHUfjaWnu3+uuUa1J3Ptfdfp/n9SxX6NHsV2XvL1KkRfeqpaqiqJqWqjdHPC7D2nr3OaeIPAr4K0RkpLddCryi4vZ9QiIvR5ClQiAlQpUIAiIgCIiALcWG9S2WoqZmt1454RG+PgXtcHNd2eUO1adStN1UbYOEujN1NsqpqceqIREW01BERZMBERAFKhSgIREQBEXTaN6NPuz2VlY0ttrHeS05Dqxzd7W8dQcTx3Dmo998MeDssfIkUUTyJqEFzI0a0afdXsrKxrm21jvJbtDqxwO5p36g4njuHNWYxjI2MjY1rWMaGsa0BrWtAwAANmEYxkbGMY1rWMAaxrAA1rRsAAGzAXtUfMzJ5c+KXTuXgXjDw4YsOGPXvYREUImmmv1ipb1T4JbHWRA+DT43cdSTG9p7t/rqurpaqiqJqWqjMc8TtV7T3Fp3EHeCrtWmvtipb1T4OrHWRNPg0+Pi8dSTG0tPdv8AX2dN1F477Oz3fscbUdOWQu0r977lSIvvVUtVRTy0tVE6OaE6r2nr3OaRvB4FfBXKMlJbopsouL4X1CIi9HklQpUIAiIgCIiAIiIAiIsAIiLICKVCAIpWzsVuhutw8Clc5gkpalzHt3skY0FrscRzC12WKqDnLojZVW7ZqEerNWizLhb6y2VUlLVs1ZGbWkZLJGHYHxniD/8AnBYazCcZpSi90zEoSg3GS2aJaQCCQ1wBB1XjLXY4OHLmuhZphpHG1jGSUrGMaGMaymjDWtAwAAOAXOotdtFd23aRT2NlV9lP9uTR0fjnpN/rU/3di6PRO+XW7T3GOtkic2CGB8fRxtZhz3OBzj1BVyu00B/xV5+j0v43rlahiUV405Qgk/5R1dOy7rMmMZzbX8FgLHrZZIKKvnjIEkNLUSsJGQHMjc4ZCyFh3P5Nu30Gr/dOVRgt5JMt03tFtFdDTPSbAzNT/d2J456S/wCtT/d2LnOSK+/gMbyL6FC/HZP/ANH9TZXO83C7dCazoHPizqSRwtjkDT5pcNuOOFrURSa641x4YLZEadkrJcU3uwiZABO4DidwW/pNHp3Wi5XirDo4mUzn0MW0PlJLcTP/AEfmjjv3b/Nt0KknN9Xse6qZ2tqK6czQqFKLcaCERSgIREQBERAERFgyERemRyyu1Io5JHkE6sbHPdgbzhoJToEt+h5RffwO4fmdZ93m91PA7h+Z1n3eb3V544+J77OfgfBdFob8v030Wr/CFpPA7h+Z1n3eb3V0Gh9PVx32nfJTVLGeDVQLpIZGNB1RsJcAFEzZx/Dz59zJeDCSyIbrvR3V4s9FeKUwTjVkZl1PO0ZfC8jeOYPnDj6xkVTcLfW2yqkpatmrIza1wyWSMzgPjPEH+tyuha28WejvNMYJxqyMy6nnaBrwvI3jmD5w4+sZFW07UZYsuCfOL9Cz6hp6yY8cOUl6lPIsu4W+stlVJSVTNWRm1pGSyRhOBJGeIP8AW5YiukJqcVKL3TKZOLhJxktmgu00B/xV4+j0v43ri196esrqMvdSVM8BkAa8wSOYXAbQDqqPmUPIplVF7b/5JGHese6NjW+xdnYViXP5Nu30Gr/dOVT/AJbv/pSv+8y/zXl94vkjHsfcq5zHtLXtdPIWuaRgggncq/HQ7YtPjRYJa5U01wswRuHqCIitRVQmzuT/ANrsNF9GDWGG5XKMilBElLTSDBqCNollB8z5o4792+Pk5MMaHHP/AGScbGnkz4If6Gi+jBqzDcbnFilBD6SmeNtQRtEsrT5nzRx37t/WaRgCxXn6K72tW3Axjq2bFqtImvfZLw1jXPc6mcGtY0ucTrDYA3aqZPLnk5MZz8Vt+nMuUcWGNjShDrs/nyKi5qF9/A7h+Z1n3eb3U8DuH5nWfd5vdV544+JRuzn4HwRffwO4fmdZ93m91QaWtaC51LVNa0FznOglDWgcSS3CccfEcEvA+KIi9HgIiLICIiwZC6XQr5eZ9Cqvaxc0ul0K+XmfQqr2sUPP/LWfBkzA/Mw+JZ21NqlQvn59AG1SiIAoUogNZeLPR3ilME41JWazqedoy+F54jmD5w4+sZFVXC3VtsqZKWrjLJG7WuGejlZuD43HeCrXu12orRSmpqXZcctghaR0k8mPit6uZ4dxqm5XKtutU+qqn5cfJjY3PRxR5yGMHL2qzaJ2/Pyfv+n7lY1tUcvP+36/sYSIis5WQiIgCbOO5FKwZR1+jGi5qzFcrlGRSjD6SmeMGoO8SSg+ZyHHfu2GwwMbsclyGjGk4qxFbbg8CrADKaZ2AKkAbGu4a/t9e/r1RdSnfK9q75eG36F602NEaU6fn47/AKkqMKUXNOkRtTapRARtWuvvyNevoFT+ArZLW335GvX0Cp/AVtp/uR+K+5pv/tS+D+xTqIi+jnzgIiLICIiwAsmjra2gm8Io5nQzajo9doaTquwSPLBHBYyLEoqS2kt0eoycXvF7M3B0m0nO+5T9jYR7GLydJNJTvudT2dGPY1alFo/C0eRfRG/8Vf539WbU6Q6RnGbpV9jwPYFutFbreKy908NVXVU0Rp6pxjkkJYSGgglu7I4LkV0Ohny/TfRqv8IUXMx6o482oro+5ErCyLZZEE5Pqu8tJa+7XWitFK6pqXZJy2CFp+Emkx8VvVzPDuMXa7UVopXVNS7JOWwQtI6SaTGdVvVzPDuNU3K5Vt1qn1VU/Lj5MbG56OKPOxjBy9qrWn6fLKlxS5RXr8CyahqEcWPDHnJ+guVyrbrVPqqp+XHyY2Nz0cUechkY5e1YSlQrrCEYRUYrZIpc5ynJyk92wmQN5A9aLr9B6elqKm7CoghmDIKYtE0bHhpL35I1gVpyb1j1O1rfY3Y1DyLVUntucfrN5j6wmW8x9aur8m2n8wovu8PurFuNvtjLfdHsoaNrm0VU5rm08QcCInEEENyuNHXINpcD+p2ZaHJJvj9CoEQbgisRXSQSCCCQQQQQSCCNoIIVh6MaTisEduuLwKwDVp53bBUgbmuPz/b699dqQSCCCQQQQQcEEbQQQoWZiQyocMuvc/Am4mXPFnxR6d6LyWuvlRUUtpulTTvMc0VO50bwAS12QMgOBHctDoxpOKwRW64yYrANWnndgCpA3Nd+n7fXv3GknyFeforvxNVM/DToyY1WLvXz5lyWTC/HlZW+5/LkV740aUekpfs4PcUeNGlHpKX7OD3Fp1Cu/wCFo8i+iKT+Kv8AO/qzc+NGlHpKX7OD3F4m0i0hqIZoJq+V8UzHRytLIQHMcMEZDMrUoixaFzUF9EYeVc+Tm/qwiIpBHCIiyAiIsGQiIsmAiIgC21guFParj4dOHObFS1LWsYPKkke0BrM7hnmtSpWu2tWwcJdGbarHVNTj1RmXO5Vt1qn1VU/Lj5MbG56OKPOQxg5e1YSIswhGuKjFbJHmc5Tk5Se7YReo45JXsjjY58kjgxjGDLnOOwABZv5Gv3ou4fdpP5LErIQ95pCNcp+6tzAXaaA/4q8fR6X8b1zX5Gv3ou4fdpf5LrNCKK4UlRdXVVJUwB8FM1hnicwOIe8kDK5upW1yxZpSX1/VHT0yqccqDaf/AJHcrDufybdvoFX+6csxYtxa99vubGNc576OqYxrBlznOjcAAOapcOUl8S6We6ylRuCLPFmv2B/4u4bvzaX+Sfka/ei7h92l/kvonb1eZfU+d9jZ5X9DARZU9uulLH0tTRVUERcGB88To2lx2gAu4rFXuM4yW8Xua5RlF7SWxIJBBBIIIII2EEbQQQuuj0lNbYrrbrg8eGNpHCnmOwVLQW+S79Md/rXIKVpvxoX7cXVPdG+jJnRvwvqtmFClQpJGCIiAIiIAiIgCIiwZCIiyYCIiAKVClAQiIgJVgaMaT+EdDbblJ/aMBlLUPP8Af8BHIfn8jx9fxq+UqHl4kMqHDPr3PwJmJlzxZ8UOnevEvL60XG6L6T+EdDbblJ/aNjKWoedk/KOQnz+R4+v43ZZCouRjTxpuFi/kvGNkQyIKcP8ARKhSi0EkhYtfX0dtppaurk1ImbABtfI87o428XH+tgyFfX0dtppaurk1ImbABgvkedzIxxcf62DIqm83msvNV00x1IY9ZtNA05ZCw+1x84/wGB0sDAlly3fKK6v9jmZ+fHEjsucn0X7i83msvNSZpjqQx5bTQNJLIWH2uPnH+AwNYiK711xqioQWyRSbLJWyc5vdsIiLYayVClQgCIiAIiIAiIgCLKuFHLb62sopPjU8rowcY1m72uHrGCsVeISUoqS6M9Ti4ScX1QREXs8hERASiIgIREQBERAT2qwNF9KPCOittxk/tGxlLUPP9/wEch+fyPH1/Gr5Tt/j2qHl4kMqHBL5PwJmJlzxZ8cPmvEvNYlfX0dtppaurk1ImbABtfI87mRji4/1sGRyFi0whjppILu95kp4i6GcNLn1DW/5bv0+R48do28xeLzWXmpM03kRM1hTQNOWQsPtcfOP8BgVijSbZ3OFnKK7/H4f+5Fnv1aqNKnXzk+7w+IvN5rLzVGaY6kTNZtNA0kshYfa4+cf4DA1iIrfXXGqKhBbJFQsslbJzm92wiIthrClQpQBQpUIAiIgCIiAIizLfb6u5zvp6VutIyJ0zupoc1n8V4nNQi5Poj3CDnJRR3OmFifWRtuVHGXVUDNWpYwZfNANzmgb3N9nqwq6V5rmrvojbbi99RTuNHVvJc90bQ6GR3N8ezb1gjtVV03VFTFVXdO5lp1LTHbJ209e9FYottdbHWWmRsc80Emt8Uw6+0dYcB7StZ0buY71aoTjNcUehVpwcHwy6nhF76N3Md6dG7mO9etzyeFK9dG7mO9T0buY703MHzRe+jdzHenRu5jvTcyeEXvo3cx3p0buY703B4Re+jdzHenRu5jvTcHhF76N3Md6dG7mO9NweEXvo3cx3p0buY703B4Re+jdzHenRu5jvTcHhF76N3Md6dG7mO9NweVC+nRu5jvUdG7mO9NzB4Re+jdzHenRu5jvTcyeEXvo3cwt1adGq+7gviqKaKNuxxk6Rz+xrQB+0vFlka48U3sj3XXKySjHqaLaSAASSQ1oaCXOcdgAA255K0NFLI+1Uck1S3FdW6rpW7CYY251Is89pLus9S+ln0Wtdpe2cl1VWDdPMABHs29FGNg9e09a6BVPUtTWQuyq93vfiWzTdMdD7S33vsf/2Q==;" parent="1" vertex="1">
          <mxGeometry x="223.48000000000002" y="87.42000000000002" width="26.52" height="30.08" as="geometry" />
        </mxCell>
        <mxCell id="gcra_a-b6aYlQ8D47dko-17" value="" style="verticalLabelPosition=bottom;html=1;verticalAlign=top;align=center;strokeColor=none;fillColor=#00BEF2;shape=mxgraph.azure.express_route;pointerEvents=1;dashed=1;" parent="1" vertex="1">
          <mxGeometry x="56.89" y="92.46000000000001" width="40" height="20" as="geometry" />
        </mxCell>
        <mxCell id="gcra_a-b6aYlQ8D47dko-19" value="" style="shape=image;verticalLabelPosition=bottom;labelBackgroundColor=#ffffff;verticalAlign=top;aspect=fixed;imageAspect=0;image=data:image/png,iVBORw0KGgoAAAANSUhEUgAAASwAAAEsCAYAAAB5fY51AAAAGXRFWHRTb2Z0d2FyZQBBZG9iZSBJbWFnZVJlYWR5ccllPAAACqxJREFUeNrs3d9x2kgAB2BxkxTgKwGXQErABeTBKQGXEB79aEqwS4gfUkBcwlFCKOEoIA8czK3mdMqukJCEEfq+GSYzDn9Wy+qn3dVKTHa7XQYwBH+oAkBgAQgsQGABCCwAgQUILACBBSCwAIEFILAABBYgsAAEFoDAAgQWgMACEFiAwAI4vw9DKuzHx+++MejBr8fPAotRqftrJhNVhSEhILAABBaAwAIEFoDAAhBYgMACEFgAAgsQWAACC0BgAQILQGABCCxAYAEILACBBQgsAIEFCCwAgQUgsACBBSCwAAQWILAABBaAwAIEFoDAAmjmgyq4eDvb8y4mmp4eFoDAAgQWgMACEFiAwAIQWAACCxBYAO/ESvfrYWV2PTtVoIcFILAABBYgsAAEFiCwVAEgsAAEFiCwAAQWgMACBBaAwAIQWIDAAhBYAAILuGruOEoTfd6t0x1TudrAcptbMCQEEFgAAgsQWAACC0BgAQILQGABNGSlO01YjY7AsoNVsqofDAkBgQUgsACBBSCwAAQWILAABBaAwAIEFoDAAhBYgMACEFgAAgu4Zm7gB3Fjug/ZYO4bp4cFGBICCCxgtMxh1XfqnMZEHYyuntDDAgQWgMACEFiAwAK4bM4SQpxfDdfDAhBYgMACuBzmsOqzElsdoIcFILAAgQUgsAAEFiCwAAQWgMACBBaAwAIQWIDAAhBYAAILEFgA3XM/rPpOuT/2RB2Mtq7a1Jf7julhAQILQGABCCxAYAEILACBBQgsAIEFjJuV7vVZfawO1JceFoDAAgQWgMACEFiAwAIQWAACCxBYAAILQGABAgtAYAEILEBgAQgsQGABCCyAzrhFcn27E183UQejqydtRg8LEFgAAgtAYAECC0BgAQgsQGABCCyANqx0r8/qY3WgvvSwAAQWILAABBaAwAIEFoDAAhBYgMACEFgAAgsQWAACC0BgAQILQGABAgtAYAF0xi2S69ud+LqJOhhdPWkzeliAwAIQWAACCxBYAAILQGABAgtAYAEILEBgAQgsAIEFCCwAgQUgsACBBSCwAAQWILAABBaAwAIEFoDAAhBYgMACEFgA//pw5du3G1EZdr6rqynPLkMPCxBYAAILQGABAgtAYAEILEBgAQgsYMyGutJ94qsDPSyAy+2p7HYuWwL0sAAEFiCwAAQWgMACBBbAJRr8LZI/Pn73LdKX2f6x2T+217qBvx4/C6x3drN/zPePafi3aBMe6/3jzf5IRVB9C23oYLV/LFWLwOrSoXF93T8WNZ9/CK6X8NhqChQUwyoL7Wobgot3dA1zWIce1dP+8bNBWOUBl7/uq6ZAoXc1jfx9rmr0sFr5+Ph9Go6Gsw4C7/BeD5rE6G0Sf9cLF1itwuoQNH+FwEk1sHV4bEMgTSuOlHnvTGiNWz70K/e6X1SNwGrjRyKsNqHBvVT0qBahQd5EQit/PeO1DME1D/8e2pKTNBdgkHdr2PeuvoZhXBY5Ci5rdt+rhpOfQs8MrtrQljUMbtI9DAVjk+SvYThXd67h0JO6Szz/SVMGQ8IuLCJDuW122tzTNvTInkt/n4ee17ric1el3tp99v/5sU0I0bcz1cMqMuydl7b1Laueiym/Z3HJx7z0/29Hhs6LUC+zUp2sQ71sT9y2vJ7zM3nrUM5NYug/K7zXtvD8qs+fR3rer1l6Qj5/Tfl128L2bhp8r6fWW19lMiRs0cP6mf1+2rntwr467/mjFADL0PC/ZtXLIg479pes+7NMsfKsCuW5qehZfkkMeaveM9brjN2q+tjn5zvNqiLwUnX9LYufNNkWnpPv9E9Z9QmZh7DTZoltKG/vXeLgMwvPPbbs4SVs76biM9vW20ll2g8LBxNcfwwsrKZZfI3Ma8u3fkkcnY41ih/Z8TVc8/C8vk1DT/HpSKOfhvJMGxzxnxI7T1mdz897P0+Rnm1VHf6s+E6KS1MW4X1vjnz+t6z92qpZJFyr6jF1VrvLemtcpjDNYkjYg1lix2k7Qb6u+VlZaWhSLscm8bpZaBx9nhpfJHp380TDfw69hqbD71SdPUfKkA9D19l/S0qmpfevc1Z2HvnsWWKbZpHnTiuC4rZFnX+LvO+60IsqD+3WkaDvut4al2nfwxrMGrOhTbpPa4ZNU281d5TUaw9nFf8s/PuS6PKfQ16eSQikSWK4PK+xfdPS/M9b6VEM70Wk13sbhp+rMAS7jdTNU4Pe3rJQz7HtmhfKm39+/p3ETrBMW/Sy5pFyL8PnfQmPT4Vtfst+n2ftut66KJPAumLLsCOsI/Mj68jOMe25PC+R8mRZeo7vvsH73ob3zh+r0s5TnidLnbF9iBwg6lxS9Sl85ra0XbGDQz5PtykF+fKEnnST3v4qUZaHUGebSOh0WW+NyzSk+ashDgkvTdVQ5jXSgKalRruoMW9x7HPKjboqdJ5O7EE+HNlxYycstkfKMm9YjlRPepN4/9R38txRYKXqYt3gueeotyZlElhUuq/Z6LpYeb+NzP3kQ75ti8+eNxhip0KmTWisE9ua1fz7TYv6LPsRenF1lh/0UW9ty2RIeAZdnOGYNjh6D9n2hCHRsZ0o9vrDGb1dxeOvnrfzHN9bLADyif+/s38nv6t60H3UW9syCayOnXI279T5iO0VBlYfi1hvsnHK135V9Z6fQwjFllncXGCZDAm79Ovx81vilsj3Wbu1WPMz7dyxI+I1XlT7dsKONkT5ivmqM535ivtDG73LqueTuqi3RmXa70+HiffBzHENcQ7rNfv97NaiRWDlX957BNa5b1ky6+E9YzvNXTYer+GRXwp1X9HODkOy2zPU26llMiTsqYHEekj3J77fc2InfL3Cneumh2Dua5g+xN7WYSnFYc3XQ6Jep4V2eo56q1WmfS/rfiiVPLjA2ndfU8Oo5xO+8EUi6I6dXh5qWMV+lKOtTc0h9ljk98+6y+LLQabvUG91yySwerJM7JB1ru3Ln5u6JmuTXefdJRc1e6un9HjL4X7sIt4x9bourd4G3bYHGVhhknBZEUT5D0sUL9XIL8Oo+uGJbdbPnRXOJXVR7CyxvV013lXi4JHa+fILtXdZ/QugL9H9kZC5OTKE7qPe2pbpog124eg+tFbh7g2LxBfb9CZ8qUtqhtaLmoWj97owDFwkQqarZRsvYUeZlULyZ6Es+YXhs9IwfJH9d4+qITnU67dCz2iV/f8eU/NIG9yWpjO6rreTynQ4+y6wzhNaD/vQWndwlK66R9TQzLLjc3nrrNv71udhX+4dpM7A1jnqX7qnSM/+2EHyoed666JMhoRnGJPfZqef7TrsuNdyD/d1zefc9TDszd+3ST3mO+xqoO2uSR2mbhjYZb01LlM4iSWwziy/P/ttzaFOfuX+n1n9H60Ygk8V25Nfof+px+1dh/c/NrTO5yBvs+FOAucHyuWRbX0JdfJyhnrrskwXaZC/mlOUWPmed4ljF4dey5XrsbtKTkpDw5tCWL3XZUbzyMHiGpXbW9u21kW9HS3T0H4155rv1rDNxv1bcpcSzGP5Drpub2/2gesdEgIjILAAgQUgsIDRcovk4Tqcuna9HqMy+GUNgCEhgMACEFiAwAIQWAACCxBYAAILQGABAgtAYAEILEBgAQgsAIEFCCwAgQUgsACBBdCjfwQYADcqaFksKZZGAAAAAElFTkSuQmCC;" parent="1" vertex="1">
          <mxGeometry x="15.100000000000001" y="191.88" width="40" height="40" as="geometry" />
        </mxCell>
        <mxCell id="gcra_a-b6aYlQ8D47dko-20" value="" style="aspect=fixed;html=1;points=[];align=center;image;fontSize=12;image=img/lib/azure2/networking/Virtual_Networks.svg;dashed=1;fillColor=none;" parent="1" vertex="1">
          <mxGeometry x="638.25" y="72.5" width="16.75" height="10" as="geometry" />
        </mxCell>
        <mxCell id="gcra_a-b6aYlQ8D47dko-59" style="edgeStyle=orthogonalEdgeStyle;rounded=0;jumpStyle=none;orthogonalLoop=1;jettySize=auto;html=1;exitX=0;exitY=0.5;exitDx=0;exitDy=0;endArrow=none;endFill=0;startArrow=classic;startFill=1;fillColor=#0050ef;strokeColor=#001DBC;" parent="1" source="gcra_a-b6aYlQ8D47dko-25" edge="1">
          <mxGeometry relative="1" as="geometry">
            <mxPoint x="480" y="73" as="targetPoint" />
            <Array as="points">
              <mxPoint x="480" y="63" />
            </Array>
          </mxGeometry>
        </mxCell>
        <mxCell id="gcra_a-b6aYlQ8D47dko-25" value="" style="whiteSpace=wrap;html=1;dashed=1;strokeColor=#001DBC;fontColor=#ffffff;fillColor=none;" parent="1" vertex="1">
          <mxGeometry x="576.62" y="47.5" width="78.38" height="30" as="geometry" />
        </mxCell>
        <mxCell id="gcra_a-b6aYlQ8D47dko-36" value="" style="aspect=fixed;html=1;points=[];align=center;image;fontSize=12;image=img/lib/azure2/networking/Virtual_Networks.svg;dashed=1;fillColor=none;" parent="1" vertex="1">
          <mxGeometry x="638.25" y="110" width="16.75" height="10" as="geometry" />
        </mxCell>
        <mxCell id="gcra_a-b6aYlQ8D47dko-37" value="" style="aspect=fixed;html=1;points=[];align=center;image;fontSize=12;image=img/lib/azure2/networking/Virtual_Networks.svg;dashed=1;fillColor=none;" parent="1" vertex="1">
          <mxGeometry x="638.25" y="140.00000000000003" width="16.75" height="10" as="geometry" />
        </mxCell>
        <mxCell id="gcra_a-b6aYlQ8D47dko-38" value="" style="aspect=fixed;html=1;points=[];align=center;image;fontSize=12;image=img/lib/azure2/networking/Virtual_Networks.svg;dashed=1;fillColor=none;" parent="1" vertex="1">
          <mxGeometry x="633.25" y="212.5" width="16.75" height="10" as="geometry" />
        </mxCell>
        <mxCell id="gcra_a-b6aYlQ8D47dko-39" value="" style="aspect=fixed;html=1;points=[];align=center;image;fontSize=12;image=img/lib/azure2/networking/Virtual_Networks.svg;dashed=1;fillColor=none;" parent="1" vertex="1">
          <mxGeometry x="638.25" y="177.5" width="16.75" height="10" as="geometry" />
        </mxCell>
        <mxCell id="gcra_a-b6aYlQ8D47dko-40" value="" style="aspect=fixed;html=1;points=[];align=center;image;fontSize=12;image=img/lib/azure2/networking/Virtual_Networks.svg;dashed=1;fillColor=none;" parent="1" vertex="1">
          <mxGeometry x="633.25" y="250" width="16.75" height="10" as="geometry" />
        </mxCell>
        <mxCell id="gcra_a-b6aYlQ8D47dko-41" value="" style="aspect=fixed;html=1;points=[];align=center;image;fontSize=12;image=img/lib/azure2/networking/Virtual_Networks.svg;dashed=1;fillColor=none;" parent="1" vertex="1">
          <mxGeometry x="628.25" y="282.5" width="16.75" height="10" as="geometry" />
        </mxCell>
        <mxCell id="gcra_a-b6aYlQ8D47dko-60" style="edgeStyle=orthogonalEdgeStyle;rounded=0;jumpStyle=none;orthogonalLoop=1;jettySize=auto;html=1;startArrow=classic;startFill=1;endArrow=none;endFill=0;fillColor=#0050ef;strokeColor=#001DBC;" parent="1" source="gcra_a-b6aYlQ8D47dko-45" edge="1">
          <mxGeometry relative="1" as="geometry">
            <mxPoint x="480" y="112.5" as="targetPoint" />
            <Array as="points">
              <mxPoint x="480" y="103" />
            </Array>
          </mxGeometry>
        </mxCell>
        <mxCell id="gcra_a-b6aYlQ8D47dko-147" style="edgeStyle=orthogonalEdgeStyle;rounded=0;jumpStyle=none;orthogonalLoop=1;jettySize=auto;html=1;startArrow=classic;startFill=1;endArrow=none;endFill=0;fillColor=#f0a30a;strokeColor=#BD7000;entryX=0.5;entryY=1;entryDx=0;entryDy=0;" parent="1" source="gcra_a-b6aYlQ8D47dko-45" target="gcra_a-b6aYlQ8D47dko-47" edge="1">
          <mxGeometry relative="1" as="geometry">
            <mxPoint x="720" y="240" as="targetPoint" />
            <Array as="points">
              <mxPoint x="760" y="98" />
              <mxPoint x="760" y="518" />
              <mxPoint x="639" y="518" />
              <mxPoint x="639" y="325" />
            </Array>
          </mxGeometry>
        </mxCell>
        <mxCell id="gcra_a-b6aYlQ8D47dko-45" value="" style="whiteSpace=wrap;html=1;dashed=1;strokeColor=#001DBC;fontColor=#ffffff;fillColor=none;" parent="1" vertex="1">
          <mxGeometry x="576.62" y="82.5" width="78.38" height="30" as="geometry" />
        </mxCell>
        <mxCell id="gcra_a-b6aYlQ8D47dko-69" style="edgeStyle=orthogonalEdgeStyle;rounded=0;jumpStyle=none;orthogonalLoop=1;jettySize=auto;html=1;startArrow=classic;startFill=1;endArrow=none;endFill=0;fillColor=#0050ef;strokeColor=#001DBC;" parent="1" source="gcra_a-b6aYlQ8D47dko-47" edge="1">
          <mxGeometry relative="1" as="geometry">
            <mxPoint x="480" y="310" as="targetPoint" />
          </mxGeometry>
        </mxCell>
        <mxCell id="gcra_a-b6aYlQ8D47dko-142" style="edgeStyle=orthogonalEdgeStyle;rounded=0;jumpStyle=none;orthogonalLoop=1;jettySize=auto;html=1;startArrow=classic;startFill=1;endArrow=none;endFill=0;fillColor=#fa6800;strokeColor=#C73500;" parent="1" source="gcra_a-b6aYlQ8D47dko-47" edge="1">
          <mxGeometry relative="1" as="geometry">
            <mxPoint x="80" y="440" as="targetPoint" />
            <Array as="points">
              <mxPoint x="639" y="517" />
              <mxPoint x="80" y="517" />
            </Array>
          </mxGeometry>
        </mxCell>
        <mxCell id="gcra_a-b6aYlQ8D47dko-47" value="" style="whiteSpace=wrap;html=1;dashed=1;strokeColor=#001DBC;fontColor=#ffffff;fillColor=none;" parent="1" vertex="1">
          <mxGeometry x="576.62" y="295" width="78.38" height="30" as="geometry" />
        </mxCell>
        <mxCell id="gcra_a-b6aYlQ8D47dko-68" style="edgeStyle=orthogonalEdgeStyle;rounded=0;jumpStyle=none;orthogonalLoop=1;jettySize=auto;html=1;startArrow=classic;startFill=1;endArrow=none;endFill=0;fillColor=#0050ef;strokeColor=#001DBC;" parent="1" source="gcra_a-b6aYlQ8D47dko-48" edge="1">
          <mxGeometry relative="1" as="geometry">
            <mxPoint x="480" y="315" as="targetPoint" />
          </mxGeometry>
        </mxCell>
        <mxCell id="gcra_a-b6aYlQ8D47dko-48" value="" style="whiteSpace=wrap;html=1;dashed=1;strokeColor=#001DBC;fontColor=#ffffff;fillColor=none;" parent="1" vertex="1">
          <mxGeometry x="576.62" y="259.92" width="78.38" height="30" as="geometry" />
        </mxCell>
        <mxCell id="gcra_a-b6aYlQ8D47dko-67" style="edgeStyle=orthogonalEdgeStyle;rounded=0;jumpStyle=none;orthogonalLoop=1;jettySize=auto;html=1;startArrow=classic;startFill=1;endArrow=none;endFill=0;fillColor=#0050ef;strokeColor=#001DBC;" parent="1" source="gcra_a-b6aYlQ8D47dko-49" edge="1">
          <mxGeometry relative="1" as="geometry">
            <mxPoint x="480" y="275" as="targetPoint" />
          </mxGeometry>
        </mxCell>
        <mxCell id="gcra_a-b6aYlQ8D47dko-49" value="" style="whiteSpace=wrap;html=1;dashed=1;strokeColor=#001DBC;fontColor=#ffffff;fillColor=none;" parent="1" vertex="1">
          <mxGeometry x="576.62" y="226" width="78.38" height="30" as="geometry" />
        </mxCell>
        <mxCell id="gcra_a-b6aYlQ8D47dko-66" style="edgeStyle=orthogonalEdgeStyle;rounded=0;jumpStyle=none;orthogonalLoop=1;jettySize=auto;html=1;startArrow=classic;startFill=1;endArrow=none;endFill=0;fillColor=#0050ef;strokeColor=#001DBC;" parent="1" source="gcra_a-b6aYlQ8D47dko-50" edge="1">
          <mxGeometry relative="1" as="geometry">
            <mxPoint x="480" y="235" as="targetPoint" />
          </mxGeometry>
        </mxCell>
        <mxCell id="gcra_a-b6aYlQ8D47dko-232" style="edgeStyle=orthogonalEdgeStyle;rounded=0;jumpStyle=none;orthogonalLoop=1;jettySize=auto;html=1;startArrow=classic;startFill=1;endArrow=none;endFill=0;fillColor=#f0a30a;strokeColor=#BD7000;" parent="1" source="gcra_a-b6aYlQ8D47dko-50" edge="1">
          <mxGeometry relative="1" as="geometry">
            <mxPoint x="760" y="235" as="targetPoint" />
          </mxGeometry>
        </mxCell>
        <mxCell id="gcra_a-b6aYlQ8D47dko-50" value="" style="whiteSpace=wrap;html=1;dashed=1;strokeColor=#001DBC;fontColor=#ffffff;fillColor=none;" parent="1" vertex="1">
          <mxGeometry x="576.62" y="190" width="80" height="30" as="geometry" />
        </mxCell>
        <mxCell id="gcra_a-b6aYlQ8D47dko-65" style="edgeStyle=orthogonalEdgeStyle;rounded=0;jumpStyle=none;orthogonalLoop=1;jettySize=auto;html=1;startArrow=classic;startFill=1;endArrow=none;endFill=0;fillColor=#0050ef;strokeColor=#001DBC;" parent="1" source="gcra_a-b6aYlQ8D47dko-51" edge="1">
          <mxGeometry relative="1" as="geometry">
            <mxPoint x="480" y="195" as="targetPoint" />
          </mxGeometry>
        </mxCell>
        <mxCell id="gcra_a-b6aYlQ8D47dko-51" value="" style="whiteSpace=wrap;html=1;dashed=1;strokeColor=#001DBC;fontColor=#ffffff;fillColor=none;" parent="1" vertex="1">
          <mxGeometry x="576.62" y="152.5" width="78.38" height="30" as="geometry" />
        </mxCell>
        <mxCell id="gcra_a-b6aYlQ8D47dko-61" style="edgeStyle=orthogonalEdgeStyle;rounded=0;jumpStyle=none;orthogonalLoop=1;jettySize=auto;html=1;startArrow=classic;startFill=1;endArrow=none;endFill=0;fillColor=#0050ef;strokeColor=#001DBC;" parent="1" source="gcra_a-b6aYlQ8D47dko-52" edge="1">
          <mxGeometry relative="1" as="geometry">
            <mxPoint x="480" y="155" as="targetPoint" />
            <Array as="points">
              <mxPoint x="480" y="135" />
            </Array>
          </mxGeometry>
        </mxCell>
        <mxCell id="gcra_a-b6aYlQ8D47dko-52" value="" style="whiteSpace=wrap;html=1;dashed=1;strokeColor=#001DBC;fontColor=#ffffff;fillColor=none;" parent="1" vertex="1">
          <mxGeometry x="576.62" y="117.5" width="78.38" height="30" as="geometry" />
        </mxCell>
        <mxCell id="gcra_a-b6aYlQ8D47dko-54" value="" style="aspect=fixed;html=1;points=[];align=center;image;fontSize=12;image=img/lib/azure2/networking/Virtual_Networks.svg;dashed=1;fillColor=none;" parent="1" vertex="1">
          <mxGeometry x="634.06" y="320" width="16.75" height="10" as="geometry" />
        </mxCell>
        <mxCell id="gcra_a-b6aYlQ8D47dko-79" value="&lt;p style=&quot;font-size: 9px&quot;&gt;&lt;span style=&quot;font-family: &amp;#34;az_ea_font&amp;#34; , &amp;#34;segoe ui&amp;#34; , &amp;#34;az_font&amp;#34; , , , &amp;#34;blinkmacsystemfont&amp;#34; , &amp;#34;roboto&amp;#34; , &amp;#34;oxygen&amp;#34; , &amp;#34;ubuntu&amp;#34; , &amp;#34;cantarell&amp;#34; , &amp;#34;open sans&amp;#34; , &amp;#34;helvetica neue&amp;#34; , sans-serif ; background-color: rgb(255 , 255 , 255) ; font-size: 6px ; line-height: 10%&quot;&gt;&lt;font color=&quot;#66b2ff&quot;&gt;bayview-itsecurity&lt;/font&gt;&lt;/span&gt;&lt;br&gt;&lt;/p&gt;" style="text;html=1;resizable=0;autosize=1;align=center;verticalAlign=middle;points=[];fillColor=none;strokeColor=none;rounded=0;dashed=1;" parent="1" vertex="1">
          <mxGeometry x="198.87" y="30" width="60" height="40" as="geometry" />
        </mxCell>
        <mxCell id="gcra_a-b6aYlQ8D47dko-80" value="&lt;font style=&quot;font-size: 6px&quot; color=&quot;#66b2ff&quot;&gt;Bayview_DX_VPNLink&lt;/font&gt;" style="text;html=1;resizable=0;autosize=1;align=center;verticalAlign=middle;points=[];fillColor=none;strokeColor=none;rounded=0;dashed=1;rotation=270;" parent="1" vertex="1">
          <mxGeometry x="-14.989999999999984" y="87.5" width="80" height="20" as="geometry" />
        </mxCell>
        <mxCell id="gcra_a-b6aYlQ8D47dko-82" value="&lt;font style=&quot;font-size: 6px&quot; color=&quot;#66b2ff&quot;&gt;ExpressRoute&lt;/font&gt;" style="text;html=1;resizable=0;autosize=1;align=center;verticalAlign=middle;points=[];fillColor=none;strokeColor=none;rounded=0;dashed=1;" parent="1" vertex="1">
          <mxGeometry x="53.8" y="107.50000000000003" width="50" height="20" as="geometry" />
        </mxCell>
        <mxCell id="gcra_a-b6aYlQ8D47dko-87" value="&lt;font style=&quot;font-size: 6px&quot; color=&quot;#66b2ff&quot;&gt;Business Location/On-Prem&lt;/font&gt;" style="text;html=1;resizable=0;autosize=1;align=center;verticalAlign=middle;points=[];fillColor=none;strokeColor=none;rounded=0;dashed=1;" parent="1" vertex="1">
          <mxGeometry x="10" y="235" width="90" height="20" as="geometry" />
        </mxCell>
        <mxCell id="gcra_a-b6aYlQ8D47dko-88" value="&lt;font style=&quot;font-size: 6px&quot; color=&quot;#66b2ff&quot;&gt;VPN Gateway&lt;/font&gt;" style="text;html=1;resizable=0;autosize=1;align=center;verticalAlign=middle;points=[];fillColor=none;strokeColor=none;rounded=0;dashed=1;" parent="1" vertex="1">
          <mxGeometry x="212.5" y="112.5" width="50" height="20" as="geometry" />
        </mxCell>
        <mxCell id="gcra_a-b6aYlQ8D47dko-89" value="&lt;font style=&quot;font-size: 6px&quot; color=&quot;#66b2ff&quot;&gt;Virtual WAN&lt;/font&gt;" style="text;html=1;resizable=0;autosize=1;align=center;verticalAlign=middle;points=[];fillColor=none;strokeColor=none;rounded=0;dashed=1;" parent="1" vertex="1">
          <mxGeometry x="321.06" y="117.5" width="50" height="20" as="geometry" />
        </mxCell>
        <mxCell id="gcra_a-b6aYlQ8D47dko-90" value="&lt;font style=&quot;font-size: 6px&quot; color=&quot;#66b2ff&quot;&gt;Prod-USEast-2&lt;/font&gt;" style="text;html=1;resizable=0;autosize=1;align=center;verticalAlign=middle;points=[];fillColor=none;strokeColor=none;rounded=0;dashed=1;" parent="1" vertex="1">
          <mxGeometry x="590" y="53.81" width="60" height="20" as="geometry" />
        </mxCell>
        <mxCell id="gcra_a-b6aYlQ8D47dko-91" value="&lt;font style=&quot;font-size: 6px&quot; color=&quot;#66b2ff&quot;&gt;Vnet-Dev-USEast-2&lt;/font&gt;" style="text;html=1;resizable=0;autosize=1;align=center;verticalAlign=middle;points=[];fillColor=none;strokeColor=none;rounded=0;dashed=1;" parent="1" vertex="1">
          <mxGeometry x="585" y="87.5" width="70" height="20" as="geometry" />
        </mxCell>
        <mxCell id="gcra_a-b6aYlQ8D47dko-93" value="&lt;font style=&quot;font-size: 6px&quot; color=&quot;#66b2ff&quot;&gt;Hybrid&lt;/font&gt;" style="text;html=1;resizable=0;autosize=1;align=center;verticalAlign=middle;points=[];fillColor=none;strokeColor=none;rounded=0;dashed=1;" parent="1" vertex="1">
          <mxGeometry x="615" y="125" width="30" height="20" as="geometry" />
        </mxCell>
        <mxCell id="gcra_a-b6aYlQ8D47dko-94" value="&lt;font style=&quot;font-size: 6px&quot; color=&quot;#66b2ff&quot;&gt;lv-prod-network-useast-2&lt;/font&gt;" style="text;html=1;resizable=0;autosize=1;align=center;verticalAlign=middle;points=[];fillColor=none;strokeColor=none;rounded=0;dashed=1;" parent="1" vertex="1">
          <mxGeometry x="580" y="153.75" width="80" height="20" as="geometry" />
        </mxCell>
        <mxCell id="gcra_a-b6aYlQ8D47dko-95" value="&lt;font style=&quot;font-size: 6px&quot; color=&quot;#66b2ff&quot;&gt;lv-ci-dev-Vnet&lt;/font&gt;" style="text;html=1;resizable=0;autosize=1;align=center;verticalAlign=middle;points=[];fillColor=none;strokeColor=none;rounded=0;dashed=1;" parent="1" vertex="1">
          <mxGeometry x="595" y="189.5" width="50" height="20" as="geometry" />
        </mxCell>
        <mxCell id="gcra_a-b6aYlQ8D47dko-96" value="&lt;font style=&quot;font-size: 6px&quot; color=&quot;#66b2ff&quot;&gt;lv-dev-useast2&lt;/font&gt;" style="text;html=1;resizable=0;autosize=1;align=center;verticalAlign=middle;points=[];fillColor=none;strokeColor=none;rounded=0;dashed=1;" parent="1" vertex="1">
          <mxGeometry x="591.62" y="229.85" width="50" height="20" as="geometry" />
        </mxCell>
        <mxCell id="gcra_a-b6aYlQ8D47dko-97" value="&lt;font style=&quot;font-size: 6px&quot; color=&quot;#66b2ff&quot;&gt;lv-dev-vdi-cetral-india&lt;/font&gt;" style="text;html=1;resizable=0;autosize=1;align=center;verticalAlign=middle;points=[];fillColor=none;strokeColor=none;rounded=0;dashed=1;" parent="1" vertex="1">
          <mxGeometry x="580.81" y="264.92" width="70" height="20" as="geometry" />
        </mxCell>
        <mxCell id="gcra_a-b6aYlQ8D47dko-98" value="&lt;font style=&quot;font-size: 6px&quot; color=&quot;#66b2ff&quot;&gt;itsec-dev-useast2&lt;/font&gt;" style="text;html=1;resizable=0;autosize=1;align=center;verticalAlign=middle;points=[];fillColor=none;strokeColor=none;rounded=0;dashed=1;" parent="1" vertex="1">
          <mxGeometry x="586.62" y="300" width="60" height="20" as="geometry" />
        </mxCell>
        <mxCell id="gcra_a-b6aYlQ8D47dko-99" value="&lt;font style=&quot;font-size: 6px&quot; color=&quot;#66b2ff&quot;&gt;USEast-2-fw&lt;/font&gt;" style="text;html=1;resizable=0;autosize=1;align=center;verticalAlign=middle;points=[];fillColor=none;strokeColor=none;rounded=0;dashed=1;" parent="1" vertex="1">
          <mxGeometry x="310.91" y="234.50000000000006" width="50" height="20" as="geometry" />
        </mxCell>
        <mxCell id="gcra_a-b6aYlQ8D47dko-100" value="&lt;font style=&quot;font-size: 6px&quot; color=&quot;#66b2ff&quot;&gt;Equinix&lt;/font&gt;" style="text;html=1;resizable=0;autosize=1;align=center;verticalAlign=middle;points=[];fillColor=none;strokeColor=none;rounded=0;dashed=1;" parent="1" vertex="1">
          <mxGeometry x="42.600000000000016" y="144.99999999999997" width="40" height="20" as="geometry" />
        </mxCell>
        <mxCell id="gcra_a-b6aYlQ8D47dko-236" style="edgeStyle=orthogonalEdgeStyle;rounded=0;jumpStyle=none;orthogonalLoop=1;jettySize=auto;html=1;entryX=0.003;entryY=0.477;entryDx=0;entryDy=0;entryPerimeter=0;startArrow=classic;startFill=1;endArrow=classic;endFill=1;fillColor=#0050ef;strokeColor=#001DBC;" parent="1" source="gcra_a-b6aYlQ8D47dko-18" target="gcra_a-b6aYlQ8D47dko-17" edge="1">
          <mxGeometry relative="1" as="geometry">
            <Array as="points">
              <mxPoint x="37" y="102" />
            </Array>
          </mxGeometry>
        </mxCell>
        <mxCell id="gcra_a-b6aYlQ8D47dko-18" value="" style="shape=image;verticalLabelPosition=bottom;labelBackgroundColor=#ffffff;verticalAlign=top;aspect=fixed;imageAspect=0;image=data:image/jpeg,/9j/4AAQSkZJRgABAQAAAQABAAD/2wBDAAEBAQEBAQEBAQEBAQEBAQEBAQEBAQEBAQEBAQEBAQEBAQEBAQEBAQEBAQECAgICAgICAgICAgMDAwMDAwMDAwP/2wBDAQEBAQEBAQEBAQECAgECAgMDAwMDAwMDAwMDAwMDAwMDAwMDAwMDAwMDAwMDAwMDAwMDAwMDAwMDAwMDAwMDAwP/wgARCAFQAr4DAREAAhEBAxEB/8QAHgABAAMBAQADAQEAAAAAAAAAAAgJCgYHAwQFAgH/xAAdAQEAAgMBAQEBAAAAAAAAAAAACAkEBgcFAwEC/9oADAMBAAIQAxAAAAG/wAAAAAAAAAAAAAAAAAAAAAAAAAAAAAAAAAAAAAAAAAAAAAAAAAAAAAAAAAAAAAAAAAAAAAAAAAAAAAAAAAAAAAAAAAAAAAAAAAAAAAAAAAAAAAAAAAAAAAAAAAAAAAAAAAAAAAAAAAAAAAAAAAAAAAAAAAAAAAAAAAAAAAAAAAAAAAAAAAAAAAAAAAAAAAAAAAAAAAAAAAAAAAAAAAAAAAAAAAAAAAAAAAAAAAAAAAAAAAAAAAAAAAAAAAAAAAAAAAAAAAAAAAAAAAAAAAAAAAAAAAAAAAAAAAAAAAAAAAAAAAAAAAAAAAAAAAAAAAAAAAAAAAAAAAAAAAAAAAAAAAAAAAAAAAAAAAAAAAAAAAAAAAAAAAAAAAAAAAAAAAAAAAAAAAAAAAAAAAAAAAAAAAAAAAAAAAAAAAAAAAAAAAAAAAAAAAAAAAAAAAAAAAAAAAAAAAAAAAAAAA/D+Hqfr/Xzvl/r+AAAAAAAAAAAAAAAAAAAAAAAAAAAAAAAAAAAAAAAAAPzPlm/pfXCpL4tZvATQpZ9xnavcN12uqcG7xe/R/vE/wB/fwAAAAAAAAAAAAAAAAAAAAAAAAAAAAAAAAAAAAAD6n8feI2pyEgPocsYaadJHULJujPMHGa8a3DrNfEJNKk57L7HOJR7RwqoPkdh8998ifPje4ne3e3zEAAAAAAAAAAAAAAAAAAAAAAAAAAAAAAAAAAACNmt9p+1/ePEbUpCVQcrn3LrbI9Q00+SOrCUtCmYOM1414vbavIGaLK3qMnw5R7RwqlXjFmEkNj4xDDTZKagZNUbRr1ztMn9m4b32fqgAAAAAAAAAAAAAAAAAAAAAAAAAAAAAAAAAAz1R/t8nrvUUOZxvbizq/drbusV95y48XJasJS0KZg4zXjXi9tq8gZosreoyfDlHtHCqlOT2B6MpEU3ZT4s316fpNUcUb8RtFntvcULHuiwzAAAAAAAAAAAAAAAAAAAAAAAAAAAAAAAAAAGeqP9vk9d6ihzON7cWdX7vbd1ivrOXHi5LVhKWhTMHGa8a8XttXkDNFlb1GT4co9o4VUpyewPRlIim7KfFm+vT9JqjijfiNos9t7ihY90WGYAAAAAAAAAAAAAAAAAAAAAAAAAAAAAAAAAAz1R/t8nrvUUOZxvbizq/d7busV9Zy48XJasJS0KZg4zXjXi9tq8gZosreoyfDlHtHCqlOT2B6MpEU3ZT4s316fpNUcUb8RtFntvcULHuiwzAAAAAAAAAAAAAAAAAAAAAAAAAAAAAAAAAAGeqP8Ab5PXeooczje3FnV+723dYr6zlx4uS1YSloUzBxmvGvF7bV5AzRZW9Rk+HKPaOFVKcnsD0ZSIpuynxZvr0/Sao4o34jaLPbe4oWPdFhmAAAAAAAAAAAAAAAAAAAAAAAAAAAAAAAAAAM9Uf7fOxy9c7nO1bz7z9vtu6xX1nLjxclqwlLQpmDjNeNeL22ryBmiyt6jJ8OUe0cKqU5PYHoykRTdlPizfXdl2ismqTlk+LVepQMse6LDMAAAAAAAAAAAAAAAAAAAAAAAAAAAAAAAAAAQ40+R1cXOplwv02SkyNwjjbd1ivrOXHi5LVhKWhTMHGa8a8XttXkDNFlb1GT4co9o4VUpyewPRlIim7KfFm+v0v0tKnlvUUrM+lQk9a9bn4AAAAAAAAAAAAAAAAAAAAAAAAAAAAAAAAAAA5bF93wvw+pdhma7mujhdPIjYOP8AhPh9Tvz7xU5AzRZWxQ1XvvKYnver+roOiOQlPMWNX7vKzaeC/P8A18gAAAAAAAAAAAAAAAAAAAAAAAAAAAAAAAAAAAAAODwNqgno8qYD6HLG2zq9fcK9Mkv57gbfPje4nTD2+Ov3/piAAAAAAAAAAAAAAAAAAAAAAAAAAAAAAAAAAAAAAAAAfz+fo/r9/AAAAAAAAAAAAAAAAAAAAAAAAAAAAAAAAAAAAAAAAAAAAAAAAAAAAAAAAAAAAAAAAAAAAAAAAAAAAAAAAAAAAAAAAAAAAAAAAAAAAAAAAAAAAAAAAAAAAAAAAAAAAAAAAAAAAAAAAAAAAAAAAAAAAAAAAAAAAAAAAAAAAPHzN0e6AsJLKAQrKdTqzqTQIfMCoYsNPbCpEsBPbQVCFip7MCHhUaaMj+yh8vgAKvyTZKUHhJTSaCiDpGkt6AAAAAAAAAAAAAAAAAAAAAAB4KU3F7Z+ufsg/wAMsZqSPtlQJ6AWfAoZLWyRZRMWmkjAUOFsRIEEBymckeaATM4aYwCmgmKTSAKtiu0+8aRj5wAAAAAAAAAAAAAAAAAAAAAAeCmYEn0TxLDQfXMwZqEBDggYXdAobLVyRpRGWpEigUOFsRIEEBzw0/LOKInmmMApoJik0gCKBmxLTi68AAAAAAAAAAAAAAAAAAAAAAA8FKPC60HanrYMy5ckeCFTxoeJKArFPBS2szPmoM6YFDhbESBBAc8NLaiigqHNp4BTQTFJpAj0UImlooWJdFpAAAAAAAAAAAAAAAAAAAAAAAONKjwCTJYSDninE8jP0C9I6kAquInlpZLYAhwSSO1B4ycgSVBV8WggEWD1A9XBXKTwOqPjKsi0c+0AAAAAAAAAAAAAAAAAAAAAAAAAAAAAAAAAAAAAAAAAAAAAAAAAAAAAAAAAAAAAAAAAAAAAAAAAAAAAAAAAAAAAAAAAAAAAAAAAAAAAAAAAAAAAAAAAAAAAAAAAAAAAAAAAAAAAAAAAAAAAAAAAAAAAAAAAAAAAAAAAAAAAAAAAAAAAAAAAAAAAAAAAAAAAAAAAAAAAAAAAAAAAAAAAAAAAAAAAAAAAAAAAAAAAAAAAAAAAAAAAAAAAAAAAAAAAAAAAAAAAAAAAAAAAAAAAAAAAAAAAAAAAAAAAAAAAAAAAAAAAAAAAAAAAAAAAAAAAAAAAAAAAAAAAAAAAAAAAAAAAAAAAAAAAAAAAAAAAAAAAAAAAAAAAAAAAAAAAAAAAAAAAAAAAAAAAAAAAAAAAAAAAAAAAAAAAAAAAAAAAAAAAAAAAAAAAAAAAAAAAAAAAAAAAAAAAAAAAAAAAAAAAAAAAAAAAAAAAAAAAAAAAAAAAAAAAAAf/xAAvEAABAwMEAgIABAYDAAAAAAAGBQcIAwQ3AAECEDU2MWAVFxhQERMUFjiQIDSA/9oACAEBAAEFAv8Ac3eqaamcOHPhU4fU7q8tLGlo+fI2/Gb9TUVW4HzYrF+bMOctnvK5vLSy4fP06vXoW1IjfMBQNEcjCtR1VXVleWNvg19xZIHErsGfkYQhgojF5SQmOR1xjQW3HJL6HXGCyn6UXOwGBlduT+m4afJzly2SUZEViG/u2IJEcZTvIbfBr7ixeMJMe2xi8pITHIqh/wBykRKxB0gcfjQby5chAhe9FFDAdJ0Irsfoz55PjP6lJ3xce8jOnjtO8ht8GvuLF4wkx7bGLykhMctXkRS8doL9PfTKEaPUfoz55PjP6lJ3xce8jOnjtO8ht8GvuLF4wkx7bGLykhMctXkRS8doL9PfTKEaPUfoz55PjP6lJ3xce8jOnjtO8ht8GvuLF4wkx7bGLykhMctXkRS8doL9PfTKEaPUfoz55PjP6lJ3xce8jOnjtO8ht8GvuLF4wkx7bGLykhMctXkRS8doL9PfTKEaPUfoz55PaZ3bRvrN7z4YN0WPeRnTx2neQ2+DX3Fi8YSY9tjF5SQmOWryIpeO1bvmFDIsblHIzJ40eo/RjllRo2vyOPxwjavk++TLiPeRnTx2neQ2+DX3Fi8YSY9tjF5SQmOWryIpeO0ghpQT8xyNSrcaDgtDBk36QqoiOuUEJpRMYJXItLq/BK9vcWdYcdw8GdKqhUVlRi8YSY9tDD9cBNLxcSk9RoktSvD2vS2uKA4ygCO6p06dHh9NWxgeJKJHG0fvdEbMH45pjuHOm2UhEdVWjYcjsYKmhxhwNC1bWttZUfqf8Nttfw/8lOEoXqQAhTgSkcTj/TTZ1/TTZ0wdJ8qd109D0obQoqXYyakBteRskAM8Gyk8VDJDw58KvDqV7jmre2bbKl+tt9qVzimbeprbKl+tt91LJwzMAsm6Ub1YAun7IloUapjJTLdJf48uPPjp+XVcEUeruVJwVgYWyi6rEzWdOKhFK8Ms/IssHjLbfbfZ8HpSmkQI6fnKY8f251MYQnULCxo/3CgatVFPvv8AhZW3KQUk6FCha0NS7bewXQmJpnclLXdTi/6DQ4s1OLw7QYr6nF41qMY9Scwk3DF27psfG9+LlFvNSa/yH7mxj2O2Fu5GsPRclLamUqgAiTONYQvuWUqVOhT/AG51MYMcxn5ycP0O6Y5iPyaueqvHfnTifW4JD49SBvLexZqEVpW4CnU4tt/w5oN9t2r1OLfb8JaLbfZrOpxeNajGPUnMJQyxNJOP+xvaxokByXOMmv8AIfubGPY7YW7d12UJpRug2DovGmRefe1WrH9vdTGEPTEUFKP5wtVr84Wq0hHoST3fUggkhaN0WwfcGctNkiqOcHJrhvYYv0ntI39BswPqVoDfGbbxhfUaqCioYiaJZPEa3Mh3RRUugho3U4vGtRjHqTmEoZYm1JhgatflfHq24Z13NjHsdsLdOY5Q81w03wMXScOk9PsUmxkww1ZOuI6P1RcpN/biJFoEg/8AolA9folA9folA9NVHUZach6VUpNXE8vhaLqVynQjUKlwrxqPm2M0W5UrxK7cSJoEZ31nB3n/AD2xZUHamh27rMIbw0BtEoDQ/wBOAFWLhibVtklNON9LcUW/VDDt2GoR3cRAcSswUU6cSOSO55KiIiUNpOuXHjz43cTgziV0OFSnR/3v/wD/xABHEQAABAMFAwkGAwUFCQAAAAABAgMEAAUGBwgREjcTdbQhIjE1YXFydLIyQVFgs8EUI4IVFjNDgSQ0QmJzEFJTkJGSk6Ch/9oACAEDAQE/Af8AnNyuSTqdqHRksodO1ihiIIpHVEADpEQIUwgAfGFUlUFDpLJmIqUcBAQwEB7QHo+VGEtmM1XBrLGCzhzhjkTIY5sPjgUBHD/ZZPdcsy/dum6nqBFxNH7xkg4Eip8iBBVSKfKCaeUTAXNh+Yc4DhjlCJTJJNIGhGEjlTdmyL0ERTKmX/oQACKtsxoGukzFqmlmjpUQ/iZMiwdyxMqod2bDsi8pYfTFlBKfmdMPXQtn6ypBRWEp9nsylNzDgBTCA5sMDZh/zDDKXTCZqHRlzFZwsUgnEqZDHECl9owgUBHKHvHoD3wICAiAhy/JzVq6fLptWTZRZ0ccCkIUTGMPwApcRH+kUbdbtZqzZLuZQSVS838x4bIbDsRKBlv+4hAH4xRtzagZNsnFWTJzN3gYcz+7t8fCQRVN/VUAH3lhvStN0pTszY01ImrFr+GU5EUykx5g+0IBiYe0wiMG9o3fFmenNA7mZcOnF5u1C0GX2pT+l5bVrxrImgNhTSQOKOAmbJKiJjJ5TnHOcR55hw5ADoi6lXFVVxQs5dVXOFHrtrMRRTOcC59nsUj4GMAAJ+cYecbE3bF+HqOz/wA25+mlF0LWRpu9z6SxWNjdmtdgoaoaUbHeG/nJhsV+/apZTG/XmDsis7k/8VzQVVfHBB4H/wABdIP6c5HvMEVjY3aVQgqnqKlHJGRf56YbZDD47VLMUv68o9nyVZ5YFaRaS1bzSSSoiUhUEQB0ucE0hymEhsgBmUPlMBgHIQQxAQEQi2WyVayCcSORupyV67dMducxUxIQgiqonkLiYRMAZMcw5ccfZCLkBCDUFeHEgCcrRvgOHKGKimOA+7H3xUlTyCkJUtPKlmiTOVJiACofHDEegAAAERMPuKACI+4Il96qi6iranaMpOVunf452VEXJ/yEygbHnEIYDKn7jFS6emJx1RNfLKegYN7Ru+LM9OaB3My4dOL02uNY+FpwTeLk2n1Vb5Hhm8X4eo7P/NufppRdC1kabvc+ksV5VH7k0dUNWfgvxH4BuKuzzZM+XDm5spsvflHuiir1VllWnQaPXi0pmhxAAI5LzBMPJgVYmZPuz7PH4QIAIYD0RaOUqdodeETKBSBOXoAAcgAH4lTkAPcEUhdhqWvbO5JXVLzxsZ0622ZqsBk8NkuojzFgzlNmAmbA5SYCOGaKwoeqqBmgSarZOdnMBJnKBhKYDkxEuchyCYpi4gIYgPSGHyPdb0Oozvd8a4i+zqDSu5g4leLj3Xtf+UbfUVi95o293g19QxYRrDZ3vNP7xOOqJr5ZT0DBvaN3xZnpzQO5mXDpxem1xrHwtOCbxcm0+qrfI8M3i/D1HZ/5tz9NKLoWsjTd7n0li3jR20Pdqn2iTdcSrzKXrCA6Ai0rUWvt9PeJUi61obRnieca4i+xqFS+5w4hf5Hut6HUZ3u+NcRfZ1BpXcwcSvFx7r2v/KNvqKxe80be7wa+oYsI1hs73mn94nHVE18sp6Bg3tG74sz05oHczLh04vTa41j4WnBN4uTafVVvkeGbxfh6js/825+mlF0LWRpu9z6Sxbxo7aHu1T7RJuuJT5lL1hAdARaVqLX2+nvEqRda0NozxPONcRfY1Cpfc4cQv8j3W9DqM73fGuIvs6g0ruYOJXi4917X/lG31FYveaNvd4NfUMWEaw2d7zT+8Tjqia+WU9Awb2jd8WZ6c0DuZlw6cXptcax8LTgm8XJtPqq3yPDN4vw9R2f+bc/TSi6FrI03e59JYt40dtD3ap9ok3XEp8yl6wgOgItK1Fr7fT3iVIutaG0Z4nnGuIvsahUvucOIX+R7reh1Gd7vjXEX2dQaV3MHErxce69r/wAo2+orF7zRt7vBr6hiwjWGzveaf3icdUTXyynoGDe0bvizPTmgdzMuHTi9NrjWPhacE3i5Np9VW+R4ZvF+HqOz/wA25+mlF0LWRpu9z6Sxbxo7aHu1T7RJuuJT5lL1hAdARaVqLX2+nvEqRda0NozxPONcRfY1Cpfc4cQv8j3W9DqM73fGuIt/u9v7XZjLagk9QpNpm1abAElSCKZw2h1MdoQRMQcTiH8M4cgdEXYbJ64swqWtkqtlQJILtkASVIcqiSmU6gjlEo4gIYhyHKU3ZF7zRt7vBr6hiwjWGzveaf3icdUTXyynoGDe0bvizPTmgdzMuHTi9NrjWPhacE3i5Np9VW+R4ZvF+HqOz/zbn6aUXQtZGm73PpLFvGjtoe7VPtEm64lPmUvWEB0BDy61aXW9d1hNV0m8skbibO1CKrnxMdM7hQxTkRTzG5QHEM+zx7uWLMKFTs2oeSUYnMRdg02n5ok2eYVVjrDzMxsAAVBAOcPIHKMX2NQqX3OHEL/I9lt5itbMpUyptNi0fU0gJ8qSgCmoXOcVDZVifExjD+YRTDHk5AAIo29xZfUmybztReTPzf8AHDOjj2Lp44B2qETCJXN5VO2ib+TTJB0yN0HSOVQg/qKIhF7zRt7vBr6hiwjWGzveaf3icdUTXyynoGDdIxZnpzQO5mXDpxem1xrHwtOCbxcm0+qrfI8M3i/D1HZ/5tz9NKLoWsjTd7n0li3jR20Pdqn2iTdcSnzKXrCA6AirLR6FodIVKqqho0NhjkMfFUfCiTMqb+hBisr6shZ7RtQ1NKvFvcs5HYpd4JFzKHDvMkMWjWl1RajO0p7VKqIuUktkmVIgEIRPMY2UOkw84wjicxh5enD5JkNT1FSzsH1OTx0yd/7yKhk8fFlEAMHYbEIqq8BX1cUUtRVVqt3bYyqSgL7PZrgKQiOA7PKmYBx5cU8e2LGJiwlNqlCTGZvE27BGYpmOooYCkIHxMYeQA7R5IavGcxbJumLpJdocOQ5DAchg7DFEQEIrO75ZTW21Vf0wm2mJv57X+zqY/EQJ+Wcf9RM0SCUIU/I5NIWypjtmTVJApjYZjFSIBAE2AAGIgXlwAAx90Xptcax8LTgm8XJtPqq3yPDN4tJslpe1X9gJ1UdwLNgoocE0jgQFBUAoCBzYCbAMv+ASj2xSlntE0OjsaUploy5MBMQn5hvEqbMqb9Rxi8LPJLLrKK2YP5s2RfOWByJJnUKVRQw4YFIQRzGHuAYaOBaOmzopcTJKFNh8co4xWd5i1msNqh+3v2bLjY/lMw2PIPuFXEVx/wDIAD8IWWWcqqLuFTKLnHETGERMI/ERHlEfk6mK4rCjHAOqWqN2yUx5QTUECG8afKmfuOUQijb6FXS3ZNq0kTeZNg6VUv7Ov3iHORP3AVPvijbydktZbJFOoQl8xNh+U8AEBx+AKCIoD2YKYj8IvQqJrW21cqioU6RiMxAQHEBD8E36BDki6FUUgpmzGrJhUM5bMmQTg3PWUKmH92Q6MwhiPwAMRH3RWV8OzqRbVvTDRzOHoY4CUNg3x/1FAzj+lIQ/zRWV6y1aqdqhLpgnKJeP+FoGCmHaufMpj2pin3BD1++mTlR5MXiq7s/tHUMY5x7zGERH5UERHpGMRwAMeT/2tP/EAEMRAAAEAgMJDgUDAwUAAAAAAAECAwUABAYHERIhMTQ1NnN0sRATIkFRYHKBg5GhsrPCFDJCYZJScaJiwdIVgpCg4f/aAAgBAgEBPwH/AJm1pmWlgA0xMETKP6jAG2AEDABijaXmoqskgW7WVKQnKI2B47j9Td6+MnJKVMVFJNQxLShaYbkbLbRwdQBC8zMTSgqzK51FOUwiI+MSD06tg2yM8cheS20v4jaHhFDaTTr6M2jOpku0ilG6Letttwh1cXdCiySIAZZQpSiNl8bL/Jf5nnORMonUOBSBxjeCHGm7DIWlIuK6vInfD8rxe4RhxrEdZi6JIIkQT5fnN3je/jBp6cnptFScmjqHuw+YRHj4uTq3HnK7rrCnnGKFsjSqySs6tIJnmlLu0TBdYDmDANoBeDiinTZItjnLkkZcEyHRuhAMFt0YOrBxRVnjLr0CbTRWBm8ppSQ30ieWuwJSeOCf6R4Re4bfCyG6sn5SOkj/ALk/8Tf5Q30iZnSwJSeIKg/SPBN3DZb1W8ynalTOzHOhMriaaD6ChaOC0LeIOsYo6/FpBLzMySXFNMilyFo2iN4BtHkw4L/7xWWI/CNYW3t8PsCJOSmnBcstJoCouPEEK0GcZRtm3GfXInvSYmuA4Qj9hHAHUIxL4wh0w27jzld11hTzjFB82W/tPUNFZOVpHV/eaKs8ZdegTaaKwM3lNKSGuS/1JwlJDfLjfT3NtltnVehyoM+SAGUTTKuiHGQb/wCI2D3W7jOIi0tYiN/4dPyBDhTWTaneZbJ2WOBCXPDLf+YoGvlvcvEIw3uci6ofESEwCiVtnHeHkEBvgPMem+czj2fpkirbJM9rHsLFZmKtWkPsCKAZxJ6I+yKUZvO+hGJfGEOmG3cecruusKecYoPmy39p6horJytI6v7zRVnjLr0CbTRWBm8ppSRRfOFo0wRMYuv0B2bjNkhq1ZPyBFOM5nHs/TJFW2SZ3WPYXmPTfOZx7P0yxVtkme1j2FiszFWrSH2BFAM4k9EfZFKM3nfQjEvjCHTDbuPOV3XWFPOMUHzZb+09Q0Vk5WkdX95oqzxl16BNporAzeU0pIovnC0aYImMXX6A7NxmyQ1asn5AinGczj2fpkirbJM7rHsLzHpvnM49n6ZYq2yTPax7CxWZirVpD7AigGcSeiPsilGbzvoRiXxhDpht3HnK7rrCnnGKD5st/aeoaKycrSOr+80VZ4y69Am00VgZvKaUkUXzhaNMETGLr9Adm4zZIatWT8gRTjOZx7P0yRVtkmd1j2F5j03zmcez9MsVbZJntY9hYrMxVq0h9gRQDOJPRH2RSjN530IxL4wh0w27jzld11hTzjFB82W/tPUNFZOVpHV/eaKs8ZdegTaaKwM3lNKSKL5wtGmCJjF1+gOzcZskNWrJ+QIpxnM49n6ZIq2yTO6x7C8x6b5zOPZ+mWKKUtSYEVpSYlDHROpdXRRvheAMA3hwcoRTV+bHuTbRkF7oxTmuiiAgIWgGH/y2KAZxJ6I+yKUZvO+hGJfGEOmG3cecruusKecYoPmy39p6horJytI6v7zRVnjLr0CbTRWBm8ppSRRfOFo0wRMYuv0B2bidN2Zta29ApjLTJUEwECheAQKF4TDYHdbD25i8ucy4ijve+WcG22ywoFw3uSKtskzusewvMd8oY2vS6k4KqiU4ay0wXwGwLAtKP2AMAhDjQF7k7TywFmEv6bxvxH+wjC0uvLKClMImIoHEYBAfGKAZxJ6I+yKUZvO+hGJfGEOmG3cecruusKecYoPmy39p6horJytI6v7zRVnjLr0CbTRWBm8ppSRRfOFo0wRMYuv0B2bkgzubmNkjJHUDls4P5De8Ybqt5pSw7nOFTL+knCHvG8H8oaGaSZJY0rIlNcCa0bRtERwf24uZM1JSk8nvU5LEUJ/UADEjRRqbHIrlIlOme5ELm20t/wDe/wCMUiSVXY3RFFMTKmSGwAviP7QdNRE4kUIJVA4hCwYbqWPrbclSnROiH0n4QeN8OoQiamDTczMTRwADqHEw2YOENsUHzZb+09Q0Vk5WkdX95oZ36dY/ihkQJvioAFohbZZbg4uPjtiednJzNdT06dT7CN7qKF4OoIolLTKz62qpIHMmRUBMIANgB9x4oULvhDkHjCyG6hjC33Jvhd+WD6lOF/H5fCClKQoFIUAKHM6dbG9xJcT0mmoH3C/1DhDqGHGrmQWujt00dE/IbhF/yDvGHGhr83XRhlN9SD6k+F4fN4RQkBLRqQKYLDWqeoaKwJSanXqQSlJc6inw+AoCP1m5IbqvXeauTzpyS6f34Ru4L3eaG6grFI2GWSGYV5T4PxC932wmkmiQE0UwKmHEAWB4f9wn/8QAWxAAAQQAAwMFCgkFCgkNAAAAAgEDBAUABhESEyEQFDF2tQcVIiMyQXJ0dbMWIEJRYGFxtMIzNFJigSQ2N1BTc5GlttUXNURjkJOW0dQlQ0WAkpWho6axstPl/9oACAEBAAY/Av8ATNi5ZWEGvbMkADmy2IgGZLoIiT5ghEq+bAuNmLgGmomBIQEnziQ6oqfRTfzZUeGyiom9lPNsN6r0JtukI6ryXNJUuRKOJXWU6uR6Izvp7wxJTkfeHJk7wWlc3eviwBU16cFKs58ywkn5T82Q7JdXX9d4jLTCLR3k+CCKirFR3ewj0/ThP7yKX/Z1xbQruNBR6pjxHhmQwcZWTzhx1tUeYI3GxJN1rqOyn1YFyZJjxGzcBkHJLzbAE655DSE4Qirh6cE6VxqnFF+hxvyXmo7DabTjz7gNNAnzm4aiIpg2mbBy9ljqnN6YEfb2vmKc4TUPT0TNfqwbNBDhZfjlqiPKiWNhovD8q+AxW10+ZlVT58QpN1aTrN/nsbw5kl1/Y1eDg2JkoND9QoiYT7MZr6x3faUnFTeTaCun2k9bMZMqewM3aFqylxQFtqTvWWURhlE8AU1xWsUNe1WsTacZkhhhXNysjnstlTbbMyFlFbaTwR0H6sZt9Qq/vEvEj2vV+8cwCVF9Mbjh/kMkuewdP0Uiyt622i/qbK4bZzXRfooU+lP9ikVfLP8A+L37MANRfQ3JJ6fuGSXMp2q/JSLK3Tji8fkbSfQp2DZznJFqyIqdVAYKRKDeNC81viXdxmNtsxXw3EXRddMWdmxWnWx4Vmtey27IF954Eix5G+d2GwBolV/TZTa006cZVFCJBKwsdoUVdktmPG2dpOhdnXhhuspYL1hPdQiCOwibWwHEzJSUQBsE6VVURMW+Y7+dBr+9kB2YNawqzpLpNoOjTzzahFY6ekSdxB9cje+DCfZjNfWO77Sk4y76dx23Y4ourgdp2GM2+oVf3iXiR7Xq/eOYqKHnPM++swInOd1v9ypouh7rba3mip0bSYdkRo0e+gtIpq/Vu+PFtE1UnIL+6kcE6d3vNOTKpEqkRZcpFIiVSIlWtjKqkq8VVVxZ5XvKyaDEHmW7tIRNyUJJdfGmePhluXG92T+z4BHr82O+NBYNWMQXNy4bYuNmy9sC4rLzTwNutOIBouip0L9B8x+jUdiV2L3rGfZlfjKftCz+7xcRvZNp7oMZv9iyfw4g+uRvfBhPsxmvrHd9pScZd9O47bscUXVwO07DGbfUKv7xLxI9r1fvHMZQ9sx/xYn+pSvcHyZU6t0fZkbGY/Rp+w63F51iPs2B9B8x+jUdiV2L3rGfZlfjKftCz+7xcRvZNp7oMZv9iyfw4g+uRvfBhPsxmvrHd9pScZd9O47bscUXVwO07DGbfUKv7xLxI9r1fvHMZQ9sx/xYn+pSvcHyZU6t0fZkbGY/Rp+w63F51iPs2B9B8x+jUdiV2L3rGfZlfjKftCz+7xcRvZNp7oMZv9iyfw4g+uRvfBhPsxmvrHd9pScZd9O47bscUXVwO07DGbfUKv7xLxI9r1fvHMZQ9sx/xYn+pSvcHyZU6t0fZkbGY/Rp+w63F51iPs2B9B8x+jUdiV2L3rGfZlfjKftCz+7xcRvZNp7oMZv9iyfw4g+uRvfBhPsxmvrHd9pScZd9O47bscUXVwO07DGbfUKv7xLxI9r1fvHMZQ9sx/xYn+pSvcHyZU6t0fZkbGY/Rp+w63F51iPs2B9B8x+jUdiV2JlTYVD82FOn8/KXDfBJLBLHYjqHNnkFp4NGEX8oC8fPjLJ0E9X3Y02eUuI+w7HlRUcYjoG8BwdgkJRXiBEP14jeybT3QYzf7Fk/hxB9cje+DCfZjNfWO77Sk4y76dx23Y4ourgdp2GM2+oVf3iXiR7Xq/eOYyh7Zj/ixP8AUpXuD5MvQGjl3VnEoKiO/Fr2VBpmQzXx23GX5kndNIoGOi7G80xZ5jOGMBbBY2kQXlkboIsNiGGryg1tkQR9V8FOK4vOsR9mwPoPJuTlT6u6lC0jsuOaSI7qsMBHaV2E/wAPBaaFPFm3rp8+DdrBi5jijx1gHuZuz85QZKipL9TZuLgotjDlQJIeUxLYdjvJ9rboiWmI3sm090GM3+xZP4cQfXI3vgwn2YzX1ju+0pOMu+ncdt2OKLq4HadhjNvqFX94l4ke16v3jmMoe2Y/4sT/AFKV7g+RAoqOfYIq7KvtsqEQF6PGTHt3Fb0+s8A9mi6j1zfSUKrHnkr0SlO7EZkvsF1MOVdGEgWXpCypDkp8n3n5CtttK4S6C2Hi2kTQBFPoTzW4rINmx/JzYzUhB184K4Kk2X1jouG8y0ITK94I8qOUBJCyIBDKFBVRSQjklsg04aOafVjNMOFHely5FRJBiNHAnXnj0RdhtsdSMl06EwTElh6LIaXQ2X2zZebJPMTbiCYqi4bbiXb02GHDmFt/yhH2f0QJ5ecsD/NuDixtXgBt6ynS57rbW1ugclvm+YN7akWwJOcNVVdMZd9O47bscUXVwO07DFqdEMNJFqzHYORKZV8o4xzdNFYb2xa2yV35aEmN5fXU+y47QtPPKkZtf81Eb2IrXT8kExlmVFgTJMaHasvS5LMd1yPFaFC1cfeEVbaFPrVMPMKqijzTjSknSiOAoKqa+dNcA53q78zA0Xnd0STPCTjtDE2Qgjx/zeqfPgWmmwaabRBBtsUAAFOgRAUQRRPodub2ngWYaaIUmOBPN/zMlNJDK8ekCTBvZbtJdM8vEYktO+EHX9ETVW5jKfWpO/Zhxw6hbaIGq87pSWeOynyijIITg4fO1onz4y+DgE2YOXAkBioGKpd2PAhLRUXFBEqK2bZSSy634mFGdkH/AIzsOJboS2BTzqvBMA9dvw8uxi0VQcLn1hs+fSNGPcCun6TyL9WAcmRHswyx4q7bHtRtr9WAyjcZR+pzeYCPDjsRY7aaAxGaBhkE/VbbEQH6KcE08/7V6V/bjXz/AD/Z0f8Av/1Ss8W1a+UWxrMn5lsIEoEAjjTYVLNkxXxFwTbImX20JNpFThxxYFk/MVrcDVrHScoN5YjbhZW9VhF55GY2t5uC6NejH5e5/wBdkv8A3Y/L3P8Arsl/7sZm/wAMDk046sVfeLnZ0ZIj28nc/wBjvR4SeButdv8AZytvPtpZ5jsxcSkoxc3avbHA505xEIo9cwa6Kum04Xgj8pRK5G7k5cyvIPWM5z6TluiNtFVNmBDrxcsbQG+Kb00dTXhvMd88s90DvlNY1d5vXZkvK2YZJ8llZqMxHSX5jcBMJkfu1xnm91ISA5eyofMbankKqC2t1GBttqXAXVNXxFDEfD8YmAdaMXG3BE23AJDAwNNoTAh1EhIV1RU5cluZOvXqQ7OTdBOVqLXyecDGariYRefRJWxu1eLydOnGSri0kLLsrTK9JPnyiBtspEuVXsPPvKDINtArjhKugiicmTH8nXjtI7ZzrlqcTUWBJ5w3GYrzYFUnRJSDuydLydOnGSri1kLLsrTLFLOnyiBpspEuVAYefeUGQbZBXHCVdBFE5cku5PvZFIdnKvG5ysMw3ucDFarCYQudxpGzu1eLo06cZNtbKQUuwsctU02bKNAE5EqTAYdfeIWhBtFccJV4IicuaL7L09yst4I1qxZrQMuOM761hMO6BIbeaXbZcJOI+fHeDupW/fGquHmwhZhkMxY7lJMLRsAmLFZjtlVSV8o1TVg/C8hS0QhVCEkQhIV1EhXiioqcFRU5MvZZy/mWVWUcyLlc5Ne1HgONuFOtZLEpVOREdeTfNAiLoXxKCyyjcv0s6VmZuFIfYaivE7FWrsX1ZVJbEgETesivBEXhjJt7ezTsbaxrnXps10WgN9wZ8tpCIWG2mk0bbROAp0csuPkvMsrK+ZWNZNZNZGOcaS82BfuCwCTHkJzSVrptim02WhcURRWdkPu1TH9Xp/MRtbJmNFk5ftQVGubT1jtMtHVSl00d4o2qoeqtkqiioqKipqipxRUXoVF86LjUdzOzZaNODQ06lr84FZ2CCu03XRS+xXj8AflEI57z/m+2TLbu8KioijV0Xv0p7SLYSN1CbeaqWdfEiiorxJteQnh/xd3R+oeb/wCz1hjug89nQ4e8dy9sc6lMR1PQbba2EdMFLZ146dGP8eVH/eUP/wC7BpCnQ5it6bxIslmRsbWuzt7oz2drThr8SS3ak49l9izmkbG0uyGVstEYRoQafkxsXBFD0+XJIsMxozLUeNHabYjsMgLTLDLQoDTTTYIgNttgmiInBE5Cz5EjA3fZUKOkqQAojk6ilSAjOx39OLiwZD4utqvkDvP0sN1094n5uUbByiRw12jOs3LUqr2iX+QZeJgf1GU5e5565mL3NTjud9TMudlRuTue+0swfdavHc76mZd7Ljcvc69dzJ7imxkDqfl/syNy5z9Cp7brsT7mmBuPnilzVct17qqjbdzBCtpnu80w10ES3jhFHcXgBkqL4JKqNdyfujuvQziyFq8v2VltNPV8po9z8HLZXtCbAXE2I5l5BeKXhsbOMq+pZM7bl/Eyx1wa7GtsZA9kv9pzviHmbLkdtvPFTG8EA2W/hFBZTXvdILgnPmR/NnF/my8FUULbKecq6fb2NBFNjKhOatyEfZPm6UN2Tuy8zHglxFzRXAbAm9OAYld1Xunm9Ky+szeNMOoTQX8iOWjVbDa/yfLtdpsFs+Xpu0XXeEjbLLYNMtALTTTQi22022KCDbYCiCAAKaIicET+L+6P1Dzf/Z6wxmI/hH3h7wlXDp3t74c55+ktdfzyLu91zX69dcfwi/8Apv8A/YxmOR8JO/3f9msZ2e9ne/m3e45p6689l73e88+rTZ5XBTpICFPtUVRMW9bPXYmSaTMtU0h8CWdFsoMx5vj8rcVzq/s5c/uySFBdoyht7WnhSJ0hiJHEfnLfPJjOs0hJGJOYIEdkl8knIdepvbPz6JMDXl7ni+bnuYU1+vcVWO50qcU+BeXOyo3J3PB1498cwrp59EjVSa/+OO52ipovwMy4v9NVGVP6UXl7nXruZPcU2MgdT8v9mRuXOfoVPbddiw662/ZdDh/PGT4qDnCAztWVeyOz8JYbA8FbRP8ApqK2Pi1/58E2PKQMRu5vnqUoZhipzXL9tMLZO3bYTZSpnE5ovfeMg6NkvGQKaL4xPDyr6lkztuX8TLHXBrsa2xkD2S/2nO+IdtYKMu2lo4zQ0gubL9lMFPKPpJmBG2kV53zJwTUiFFzl3XOZNPqcpyfuQY5q9fuCWk8KGI2Gy6FYyGnFdXVHZFTd2sQO5lmk2IV5WRxh5al7DcZm3gxQ2QrHBHYALaG2Pg8PHtp/KIu3/F/dH6h5v/s9YYz18Jsx0tCsxyh5oltYxoKyUZG03ysc4cDeI1vB106NUx/CLk3/AGhrP+Ix/CLk3/aGs/4jBwMuZry/eTW2SkuRKu1hzZARxIQJ4mo7pmjYmaJr0aryxe6xlVsm6qzuAumJTYKbFdmBV3ljWzhHREi2q7ZjrojgOGCeTiMTFpDp8w7sEn5csZTUeY1I0RHOYk8rY2URSXwDb1XTykFeGGs6ZEzqNdWxhaZucvSGqQy0U9lq0q1nxjkSUVSQX2UUlTyx4bemT+5/TULrc51yO5cRYCq538vg22WnWgT80qYzaq8qOLoBEqkujaFilyqBg9LYbOXbym08GVbzV3s1wNeKtNlo02q8d02PLz+pYclWeUZq3SRmhU3pFaTBsWgMgibRuMtbL2icVFpUTjpiu7n+a7WLTXNFtRKeTYvDGh2tYThORmRluqLDU2Ft7rdkqbbaCo6rtaHY22ZaOBCbBXFkSbOGAKKcfF+N2nVXzIOqrjL2WcksPyKqIa09I4bRgUpyU8LlreyGi0KNBbZZRfD0UWWdpdFJRSppYv5tUVkGrj/zECK1Fa/8tpOXudeu5k9xTYyB1Py/2ZG5c5+hU9t12LDrrb9l0PJJ7qGQYzjVpGXn+ZamAituvqz4xcwVYs6GM5hR25AjxPTeD4aFtZGt8wq29awCyvRvzQ1Q7FK+2Um50kfJSW6EjRzZ4EQ7XDXT4mWOuDXY1tjIHsl/tOdyyMw3zu0fhMVVW0YpMuLDZ1biRkXXQU6XXFTZaDivmRZefM9Ovx8oQpKNvbpXGmXm2S22MsUCKvimGhL90PJxHaVVVXT1xErKyKxBr4DDcWHDjNi0xGjsigNtNNjoggIpiR3Vu5+w7HNl7vjmWsr9pt2HIbPffCSsRnQmtlxNuSI+QXjU+XoGWcyPts54q4+pEuy2OYoTKaLYRx4Dz5ofzlpP5wfBVUD+Lr3Lsp11iNfU1nSyH2NjfssWkJ+C66zvBIN622+qjqiprj99ubv6m/u7H77c3f1N/d2P325u/qb+7sScxU95e2UmTWPVZMWXMNwLT78Z8nB5rEYPeIUZPPpx5ZdTcQYtlWTmSYmQZjIPx5DRdIuNmioui8UXpReKccOy8nZlnZa2yU0rZ8bvzBa1XXYjv85iTmW0822Ty4Bb3uhs80FeIV1M+7IMf0QcmTwbYX69hz7MUGau4jNWyCG0CyWbuwgxpLb4CjUyPKU+Zx51XbNKuoCiE3xTzCWIEm5rO81q9GbKwrOdMThhytNHmm5kYiZkNbfkEmmo9KIvD4km4pZUnJtpLM3pKV0dqXTvvmupPLVGcfm5mXFdy62C/o64Tvh3RkKKK8Rh5bUHzD5kN+5cbaXT9U8OLl6G7JtpLaNTb+zMJFpIb8FVYbMG2mYcVTHXdtAKFw2trRPiUbF1a2tWNE7PdjrV801eWeEUHEe53HfTQOapppp04pcvRXXX41JWQqth+Rsb91qDHCODju7EA3hi3quiImvLa5RspcuDDtkjI9Jg7nnLfNpbEwd3v23WvCNhEXVOjD+WaewsLKK/bSbcn7Lm/OEelR4cYm05qyw3uxGEipw11VeVc3wp1xQuFZRbYqis5glUk1h8JDpMtvRHHWGpToakAlsiqrs6JoictfR3NlZVjFdaDatu1nNt8boxZMTdnzph8N3sSVXo11TFLlKBJkzIdJGKMxJmbrnLonIekKTu5BtrXaeXoROHL8Isz5wzU4LWwzBqIq1jNdXQRISOJDEoLjgb9U1ccVVcIl4rwREgUdJCZrqqsjhFhQ2B0baaD+kjcMlUjItSMlVVVVXkIDFCAkUSEkQhISTRRJF4Kipg825czFmfKMwbBLSBGpHK4Y1VLQt4vMOcQnXG4+910bVVBBXY8nhhlt55ZDoNNg6+oA2r7giiG8rbaI2CuFx0Tgn+ng//xAApEAEAAgIBAgcAAgIDAAAAAAABESEAMRBBUSBgYXGhsfAwUJCRgIHh/9oACAEBAAE/If8AM2Qkc0Bv7gBlcPFR9vTC3cfKj99Evrvl6Jlzd5CaC4KouVVBS3jZmXa8SKU0MGKvoHODXmBE6tOHm4I2yFWKzrkw0IBw3RUb2MEAgARGRGxEpE8nQoJgX8zdQzQQ4WEIQy3ERjtsh04lzGwarj7MgIsr4epds+I+uBC0bdsv5cUmyqrkzf8AuBwIPbE8oEV01EBW0gyy0erOfWr/ALGeq9GnhoUQaMREBMJv6XyVEphlVKbqImEZ17mykVEREbce4eaSUFlktqXHWbOsBL8SctuSTL+cAGK512rng/8AEfXiEcEECL05B6yrWWLJ1ybEizaqQKAw3F4KhFEZEpE0j0TET81D21ZKtriBYSq7gkulgmGsXxwAjCP8zYHT5LaMMSX9ftwP/EfXiEcEECL+324gXb7vk5+emtGGJJ+v24H/AIj68QjgggRf2+3EC7fd8nPz21owxJP1+3A/8R9eIRwQQIv7fbiBdvu+Tn57a0YYkn6/bgf+I+vEI4IIEX9vtxAu33fJb89taRH1lfNFKKCuzEzT17swJEyOCT9ftwP/ABH14hHBBAi/t9uIF2+7huWyHQKuhzGprD6IhBXTHHhkgjyRt/3gMcWmjRWy5Y6YOYXRdjNJPOL9YmT3RiHhJ+v24H/gPrxCOCCBF/b7cQLt93C5VkjCyvLiyVBBIcemGd/usUmZ1ut2Qo6mXySrWRCjKaTWz1MZeD2LdUmEvGF1hRKAUUoBXpk0qK8NJ86g5VDoljMzbcoN6zXr2Q7jtHeBeeCCVh1+5xqEtMVlEJuZqJ4svUYge1cL3tdMaLyM+fKKlRCZOfdYScnjIz6WK7QX+AoWgA8nLKsKKEkJQrPLL8kXKSEw+hVi0T6tOlkUrQOl4CytU0kDdkwumQPCUQpWmFqZVzV0xGAXmqcHRgh9VWe0oq7XeenFQmBwroeVCRBJVAEpKR1TeQlgSAYWkkLtCX+/+JRkVYoBvDF2hKwQ0+o90cQ6t45pUtU0cRo4iul13c9FXm8cRQKq+Nic1UQmmA5kpyEAgoKastd1R71keDSgiC6ieyXkOh9K6pBxBEZOYBwv1qkpe3eahBfJpt/vBc0BxdYk5iFEiDdpqG692El8sFzQHMLHt9tyy83bzULWvThSbIGLQcr12fFulFkqkN5JHWMZTbAncMjID/mEReV0iUnCA6JXXTQkgFR4HCKfjBozMhvEmMEvT8tHQpHdyS1RjYDGFAj+RrgpjahXslMMUgTOWAEgUDTjZ4wcEgW6RkaQymAJqkFCmcXaQf8AYTujqO4eDMEpEidnA9kPWnGJBxT0TD4ILIc7eivfFikWcNMoeOvSTgAFcKwmegICU9UiqPuld1Qg+gH85ZvThCVWvJzrPT0ZcsLMzM+Z119+pwrFb/jCLh2xNwAnCicjNvZhBFUqTEHbOQZDjg+3b/PTiotWCFbdpRmVDAIP7A79ufryH/y2OJ/YKC0AiPWTXCFw+9lD/pcAJVqYohsBvmch2Qh+Lu5F1PTA/GQklaIX+sc0GxV0SUPdDHZEgTTw04mGe0IdhGO6ozTD72A/wyq14tHC7LQxgwGyRnBNpuP50nbGL/ikXDszXuimUJHDoczStLLVVi32rCLDKnIqFQoZxHrV/YjpSqx2tYs2XuuV69WpwkfjZmQE68r+NCfkIgS7p2K8Tw1JKtbYT+BOVpZSbHXUFk6bjVDwilWTPmSeYDiwI8QUgHkM8byRmQawYoYLDJtubQfQ5sychpr3UcNTdQLkOG62twg4R5yCaO9SG0zo/wASlVrxaT8sVJri4Z4jJ6Jmjny6QYBKPG4dg9aQGPve1Aszntvl02hIhkFBCMCmpidGgGCgUKKlGaiKWuea6Nz+A4o0H0f683pGfVLOcKZInghBB6CUuZUCMmhVz0e6ki1kFAYgBwwzO7kl210864mAPvi0vnYHdlrWoO2p1AmrHH8Ba/GrCyiFkObWX7K3ciLRmxWR7mqTbX6oB6OUAQhIYEjVBNIc9EfNWwCHvWnpnRy74Z0QthRzsqFU49cENnrnykCTpuFSGuaG8ViUa1WJfBCpFQ9pbWkEC86TMGjAxMRoHJ6WQpg0b5rSDEuDQCt1VKCVslxwG3hAkroRpMHCepBYckXqCuQIGGY4BSzJoK/zwf/aAAwDAQACAAMAAAAQAAAAAAAAAAAAAAAAAAAAAAAAAAAAAAAAAAAAAAAAAAAAAAAAAAAAAAAAAAAAAAAAAAAAAAAAAAAAAAAAAAAAAAAAAAAAAAAAAAAAAAAAAAAAAAAAAAAAAAAAAAAAAAAAAAAAAAAAAAAAAAAAAAAAAAAAAAAAAAAAAAAAAAAAAAAAAAAAAAAAAAAAAAAAAAAAAAAAAAAAAAAAAAAAAAAAAAAAAAAAAAAAAAAAAAAAAAAAAAAAAAAAAAAAAAAAAAAAAAAAAAAAAAAAAAAAAAAAAAAAAAAAAAAAAAAAAAAAAAAAAAAAAAAAAAAAAAAAAAAAAAAAAAAAAAAAAAAAAAAAAAAAAAAAAAAAAAAAAAAAAAAAAAAAAAAAAAAAAAAAAAAAAAAAAAAAAAAAAAAAAAAAAAAAAAAAAAAAAAAAAAAAAAAAAAAAAAAAAAAAAAAAAAAAAAAAAAAAAAAAACYAAAAAAAAAAAAAAAAAAAAAAAAAAAAAAAAAAAAAAAAA1uqqAAAAAAAAAAAAAAAAAAAAAAAAAAAAAAAAAAAAAADJzR6LjAAAAAAAAAAAAAAAAAAAAAAAAAAAAAAAAAAAACLDLWiOp0oAAAAAAAAAAAAAAAAAAAAAAAAAAAAAAAAAAEf6LWiOJkgAAAAAAAAAAAAAAAAAAAAAAAAAAAAAAAAAAEfyLWiOJkgAAAAAAAAAAAAAAAAAAAAAAAAAAAAAAAAAAEfyLWiOJkgAAAAAAAAAAAAAAAAAAAAAAAAAAAAAAAAAAEfyLWiOJkgAAAAAAAAAAAAAAAAAAAAAAAAAAAAAAAAAAE3yLWiOJZgAAAAAAAAAAAAAAAAAAAAAAAAAAAAAAAAAAE2yLWiOJDwAAAAAAAAAAAAAAAAAAAAAAAAAAAAAAAAAAAE9q+k+1wAAAAAAAAAAAAAAAAAAAAAAAAAAAAAAAAAAAAAA4DdaAAAAAAAAAAAAAAAAAAAAAAAAAAAAAAAAAAAAAAAAAGwAAAAAAAAAAAAAAAAAAAAAAAAAAAAAAAAAAAAAAAAAAAAAAAAAAAAAAAAAAAAAAAAAAAAAAAAAAAAAAAAAAAAAAAAAAAAAAAAAAAAAAAAAAAAAAAAAAAAAAAAAAAAAAAAAAAAAAAAAAAAAAAAAAAAAAAAAAAAAAAAAAAAgkAAgkAkAgAgEAAAEAAAAAAAAAAAAAAAAAAAAAAAAAAAggAgAkAEAAEAEgAAEAAgAAAAAAAAAAAAAAAAAAAAAAAAkEAgAAAEEgEAEggAEAAAAAAAAAAAAAAAAAAAAAAAAAAAkkAEgkAgAAEAEgEAEAAEgAAAAAAAAAAAAAAAAAAAAAAAAAAEEEAAkAEAEgEAAgEAgAAAAAAAAAAAAAAAAAAAAAAAAAAAAAAAAAAAAAAAAAAAAAAAAAAAAAAAAAAAAAAAAAAAAAAAAAAAAAAAAAAAAAAAAAAAAAAAAAAAAAAAAAAAAAAAAAAAAAAAAAAAAAAAAAAAAAAAAAAAAAAAAAAAAAAAAAAAAAAAAAAAAAAAAAAAAAAAAAAAAAAAAAAAAAAAAAAAAAAAAAAAAAAAAAAAAAAAAAAAAAAAAAAAAAAAAAAAAAAAAAAAAAAAAAAAAAAAAAAAAAAAAAAAAAAAAAAAAAAAAAAAAAAAAAAAAAAAAAAAAAAAAAAAAAAAAAAAAAAAAAAAAAAAAAAAAAAAAAAAAAAAAAAAAAAAAAAAAAAAAAAAAAAAAAAAAAAAAAAAAAAAAAAAAAAAAAAAAAAAAAAAAAAAAAAAAAAAAAAAAAAAAAAAAAAAAAAAAAAAAAAAAAAAAAAAAAAAAAAAAAAAAAAAAAAAAAAAAAAAAAAAAAAAAAAAAAAAA/8QAJREBAQACAQMEAwADAAAAAAAAAREAITFBUaEQIGCxYXHwgZCg/9oACAEDAQE/EP8Ac2rlZ65RIAqgAFWYgci4zkAKOog/FELNCJOdMOVkDa4iKJvLkmC2E+RVAugwitAN5xuz+UqqrVxghAYrJvycxZBVg5vQjCeFFYytskeFU1FgUXINQYiYLEdInInf4d+E4AXEV+AuakCaGRa5PELA47zc8JCybROLOEUQYBohur9o3fMurnkPv0VnO1W1qcFwhAAyS5MwDM4LrJigA9Etw/4c8nUSMIQXRUUzsfty/U5L0EFRALjoBdNBdkKgsZnI+FdXN+uUplDuowcdNSSDcMbUatn/AK0CEJCiCBLC2GP7IXZxyaRpaTIEMiLAsCAJe5CRyL5D79ytpkS3HA2vxyrlSLNF6s3bxL5GjlSmqArWIgFER4TDimAACAAA0AAGgmD6yyUdugMGyhvLtpEoRCxyyiiIfDNEVxzSi+Q+/craZEtz+t39NPwPiGXHf0RXHNKL5D79ytpkS3P63f0y/A+IZcd/RFcc0ovkPv3K2mRLc/rd/TL8D4hlx39EVxzSi+Q+/craZEtz+t39MvwPheXHf0TorPcW8VCg7hX91/kzMhmSbrv2c0ovkPv3K2mRLc/rd/TL8DCihKcArhhZCNFg0dtIplEZNWCivwi+zNI0Tu7p7QmAGoUCXYNBFLxo2izAa/8A4+Cq7lpwg+zmlFQucV9ytpkS3P63f0y/AwVjgQ8XQojNzIV5kM/Yp0JW3esBS0CoIDssx00AfCDjJFXRYDYDoTqY+/IgAEWkkGo72gepYlRZBqVAcqG8tAO1A5YYeRRMHv69UEmHGqnXJu9Fllqfph3AwGvVpkUAuwhyKRQWVvCAKCSJa1vmF2IdsV2gyaSFdpDbAXA/EKsQkZuKRm5ke0a7oNFZRJTvjHLxUq5WUdVVfh21iiUadiDRU02Zr9gTonBEa6nW8cdnC3h6ltINoarA/oDnIKFD3Fyo/ZdjxObo0aC6zW45SCyvOzbxwHH6Gg3mAOHvspQNYy9quvdhftfii4uoBtuggfoNB0MWSpVDoLKh3YXvDt/1af/EACURAQABAgYDAQEAAwAAAAAAAAERACExUWFxofAQQWCBkZCgwf/aAAgBAgEBPxD/ADNuyiBBVwBQK5UfFCRGRNEs/KJZxiFJlKCfEBXaAlmnExN4TEuNNiOP9KS0bBnON5He7WgzzAN2Ligl0wNFFxQEgrAKCX0YvqhEEbfHH+qVADNWA/ahNPquap/oDKpEFOh2A/iT01jfuwlmBYGgCjA28bWfIDpAIQiAsJuuNEe8o+0AqWC0DTw66vNpgse/8bY/prX4HL8rfttg0R7su7lffwa/FHQMVxyJDEwiQMIg1CvXCAtwBNkLIxUQSFITZiOT3HqjrSpFMGKqgB7VA9tR/ILmIsE3sDhXY5KMDbxt5dPifC66vNr1pGaJvdLaTehVsrYAvL+7h50KMmNIyU6t1cVfbVmfZiZdiRDGZATBTA1kQDAMAQEYTBn4fjUuZ8JPt8ldHpXY5KMDbxt5dPifC66vNrsda7XNTi+EvDpcv8O8anzPhJ9vkro9K7HJRgbeNvLp8T4XXV5tdjrXa5qcXwl4dLl/h3jU+Z8JPt8ldHpXY5KMDbxt5dPifC66vNrsda7XNTi+EvDpcv8ADvGp8z4Sfb5K6PSuxyUYG3jby6fE+F11ebXY612uanF8JeHS5f4d41OTC6Aa1iAgONdxpjy+AckEhGG6Gtdvkro9K7HJRgbeNvLp8T4XXV5tdjrXa5qcWoc31gtwESHB3tQwlgrIrBJQrYu2K5f4dE0ciRjSAMbF7q1ATs9jWOXRtYwriL8A12+Suj0rsclGB428unxPhddXm12OtdrmpxaCzZEIDeA/orMrAfixNsCjwJW0SScAsCAFsJ+JeZHwu0ijqQ0YILv4QkvKRaI6UbLsajIF10L00/LoB1EEa/FPPyGyrFZHpQUQSrAtpVj3XLp8TTH4XORaESScgaVjBclhdh+RSmSCjTKRA3ShVQPLKRP+16VC7iPZAP8AaZ0AxoAAAyAsHxyKI7Jo/jvA1LEMP5Y23HZqSKddTGaQOsxM6eSAIiI+8blLV5uXVgwZrAe6khMSK3vw/BH1UBt9sz0ijod7WFowQbAA+UAMCoJWL/7Wn//EACUQAQEAAgEDBAIDAQAAAAAAAAERACExEEFRMGBh8CBQcZDxgP/aAAgBAQABPxD+5t8iHggjlaYAK4CArCdJT8IH2ouirhXglm86BcEAERBE4R2J8Jk0pP7xIaNZa5hlyd4RwOACEAAAYuc7OREPYc0gXJzW14oiZOLAwxGdkYiuIEFIFw7IHhwmKCiaT2cj9C04E8il+WZLIwG2aoTdGqYMeikoqbFLYgk0hFG0nLORKkwXPrfDp/CIMxpzr/IFiXwnxtsfzCCAKr0lSEixDvgli40tCBzuCrAikUCm7wCGIFnYznMBPIk9lFdfbOAFd2JAYxociNRdMMDV0zMGPyKvXBdaVon9YQycInKgZI5SVUx/JHUZDO31vh+X9h1lWAfUU7r62btEYHBcTqXwVWGgC8wKzkFdQIoKJscZHNoqKdElCquJ73MA6wuJ+7Zl8FuAEGDoCgvszjAbnEnb63w9D+w6yrDMp9x5faGlvzwQG51J2+t8PQ/sOsqwzKfceX2hpb08EBudSdvrfD0P7DrKsMyn3Hl9oaW9PBAbnUnb63w9D+w6yrDMp9x5fZelvTwIK6A6CJogMsQOy85iGU4dDbX4HUnb63w9D+w6yrDMp9x5cZasRYyB25goODy68pQIDAkAHsinP6C3n8dCRNhEqbRCQKhtXqgIXF2wj1UAkOyNin4HUnYoSRBR5EFH0P7DrKsMyn3HlxhDAxOLxHYhkrjNzFBZdukhSY0t5J6EQMHLtJ7Ib1/4kngEoWQmOYiQEVKpUpRIpYPIK/NIjgWGLe6x/ipMCGJjIAkNDjICAnyUIWTiyJSKRGAoq9GHUoq8GMe6CQlzr83t2ay3w1anLhUzYpKph/LAgTkDYXAiyAEU3lDrm/FAGaLMDuUX2Sb+FFgwcHs7jC7vSgfAHWOSJO57YB0GMADak7EtjLV3CuYCnjUtCEqOQOa9ViNQmBRrE3mwuPmKXLiQeswYtEWC1AoJxRWAq6OSAJqBo+PahIKGEpkAFpXKtcBKYuA9JaKA6FTl/wCShU6bhXwmVwsq0nTAOjZ+GXIXpbttxLF0djaKFhy9ZLPI6liGaCKjFqiF6R6QQ3OwoP3LVichnllQj1BVdUIyknK81NfxF6IAciI9d2U3DQ3kRVuLBs2SOTZjU8GAY0+sQGVdcsYwYOJzg1noqHgwDol916bwBtLrxYT1v7GAv57AodewKK0vlmqqwAMA11NQnTxBeFMeTPWtAEFAjOhirirnnvAilV/DTtmLIj/HkNyHCli97LyIAopXpRgFIJKAZ9wCm5DfBQ/6ApkA/wCTM42rEQURpi9np/ChL02YY4dulvMvAGwF/wBh2uetUbcWYQIJDTBy/wAPPxfCag5WPVQFUAKroA5V7Bjm0ojKGhbkBIGeGuR1a99wAOjKCVRY5lRtEjiSyo8HYiQdgVb6/T2hT3Kw0e0yxWmWYx6DltL97trE4abPTchwEw8AXYKHrUy4dM53vH2uoZlIV826CqZPaZO8YWXQlH6rmAAA/YbTnmNZVejdE2+cuRqLPblvxiXka9dS9ss3ybkTkbkM1bRmFG35OruufhXcxFQHESH9sja6gtwqWpq9HB1DNVe+RT4MT6a6gAz+E6CTpuK7mkpfLmrBp8Et7EPcR9G5WGzg75f4oNROBawbvf6arxpP8n+kfIcBcdU27qS7MSYgwL9c2nK4yrAKM/d+VOMKYp+xZtPb/BBIIE3S3Dr58npanijBPKE0XoYOOJ+inrM4Vhki1CcRIYeNrZfYehwG5psDIpwOANHXoHJn9KuyzHE4yThDpuSNHG2UtlQ4cksy2Z8BdUDMpbDCNJAUbEkBgN0p4MJBirzIxETU1fimwHZ9K5WGzpnzy55wTXMRkoXiI5ZZXx8L0AHAZFANrFkWEHB8AsCtGDuVHECsAe13LMqcCvKqqvm3t22i3h8TwWAXs57wtBC6v6+s+gsvmjDU8sH/AAMf8jH/ACMRbKLYHbPG7VMTodhWDBQcAgblEPTDJMTAIKl4vPwFjOB02hhzkcitpN7WBC5+uTggTql/rvQREo6R2I8iY8Lhqq8tjdTw4jfYlN++TnbBheLoVfwAAJEw6LgpqF/0Hjap4fLr6gy+0FIEOup9SSOi72S+kJ5oGpSGXIt0iDpqIUAC3mMrEfwWs4S0w0ULx9UQ3fqDCBiEJpLV6FQchrRA6YzM6908R1b6JErZhk7btKM2sZQiI5shYhKVaOkhkThgUOXWwjKAP74P/9k=;" parent="1" vertex="1">
          <mxGeometry x="15.100000000000009" y="132.5" width="41.79" height="20" as="geometry" />
        </mxCell>
        <mxCell id="gcra_a-b6aYlQ8D47dko-106" style="edgeStyle=orthogonalEdgeStyle;rounded=0;jumpStyle=none;orthogonalLoop=1;jettySize=auto;html=1;startArrow=classic;startFill=1;endArrow=classic;endFill=1;fillColor=#0050ef;strokeColor=#001DBC;" parent="1" source="gcra_a-b6aYlQ8D47dko-19" target="gcra_a-b6aYlQ8D47dko-18" edge="1">
          <mxGeometry relative="1" as="geometry">
            <mxPoint x="50" y="207" as="sourcePoint" />
            <mxPoint x="118.21000000000004" y="215" as="targetPoint" />
          </mxGeometry>
        </mxCell>
        <mxCell id="gcra_a-b6aYlQ8D47dko-110" value="" style="aspect=fixed;perimeter=ellipsePerimeter;html=1;align=center;shadow=0;dashed=0;spacingTop=3;image;image=img/lib/active_directory/internet_cloud.svg;fillColor=none;" parent="1" vertex="1">
          <mxGeometry x="65.01" y="287.5" width="33.33" height="21" as="geometry" />
        </mxCell>
        <mxCell id="gcra_a-b6aYlQ8D47dko-136" style="edgeStyle=orthogonalEdgeStyle;rounded=0;jumpStyle=none;orthogonalLoop=1;jettySize=auto;html=1;entryX=0;entryY=0.5;entryDx=0;entryDy=0;startArrow=none;startFill=0;endArrow=classic;endFill=1;fillColor=#f0a30a;strokeColor=#BD7000;" parent="1" source="gcra_a-b6aYlQ8D47dko-111" target="gcra_a-b6aYlQ8D47dko-127" edge="1">
          <mxGeometry relative="1" as="geometry">
            <Array as="points">
              <mxPoint x="130" y="295" />
              <mxPoint x="130" y="325" />
            </Array>
          </mxGeometry>
        </mxCell>
        <mxCell id="gcra_a-b6aYlQ8D47dko-143" style="edgeStyle=orthogonalEdgeStyle;rounded=0;jumpStyle=none;orthogonalLoop=1;jettySize=auto;html=1;startArrow=none;startFill=0;endArrow=none;endFill=0;fillColor=#fa6800;strokeColor=#C73500;" parent="1" source="gcra_a-b6aYlQ8D47dko-111" edge="1">
          <mxGeometry relative="1" as="geometry">
            <mxPoint x="80" y="440" as="targetPoint" />
            <Array as="points">
              <mxPoint x="80" y="430" />
              <mxPoint x="80" y="430" />
            </Array>
          </mxGeometry>
        </mxCell>
        <mxCell id="gcra_a-b6aYlQ8D47dko-111" value="&lt;font style=&quot;font-size: 6px&quot; color=&quot;#66b2ff&quot;&gt;Internet&lt;/font&gt;" style="text;html=1;resizable=0;autosize=1;align=center;verticalAlign=middle;points=[];fillColor=none;strokeColor=none;rounded=0;dashed=1;" parent="1" vertex="1">
          <mxGeometry x="58.800000000000026" y="285" width="40" height="20" as="geometry" />
        </mxCell>
        <mxCell id="gcra_a-b6aYlQ8D47dko-115" style="edgeStyle=orthogonalEdgeStyle;rounded=0;jumpStyle=none;orthogonalLoop=1;jettySize=auto;html=1;entryX=0.5;entryY=1;entryDx=0;entryDy=0;startArrow=none;startFill=0;endArrow=none;endFill=0;dashed=1;fillColor=#f0a30a;strokeColor=#BD7000;" parent="1" source="gcra_a-b6aYlQ8D47dko-112" target="gcra_a-b6aYlQ8D47dko-113" edge="1">
          <mxGeometry relative="1" as="geometry" />
        </mxCell>
        <mxCell id="gcra_a-b6aYlQ8D47dko-112" value="" style="aspect=fixed;html=1;points=[];align=center;image;fontSize=12;image=img/lib/mscae/DNS.svg;dashed=1;fillColor=none;" parent="1" vertex="1">
          <mxGeometry x="22.599999999999998" y="370" width="25" height="25" as="geometry" />
        </mxCell>
        <mxCell id="gcra_a-b6aYlQ8D47dko-231" style="edgeStyle=orthogonalEdgeStyle;rounded=0;jumpStyle=none;orthogonalLoop=1;jettySize=auto;html=1;entryX=0.28;entryY=0.25;entryDx=0;entryDy=0;entryPerimeter=0;startArrow=none;startFill=0;endArrow=none;endFill=0;fillColor=#f0a30a;strokeColor=#BD7000;" parent="1" source="gcra_a-b6aYlQ8D47dko-113" target="gcra_a-b6aYlQ8D47dko-111" edge="1">
          <mxGeometry relative="1" as="geometry" />
        </mxCell>
        <mxCell id="gcra_a-b6aYlQ8D47dko-113" value="" style="aspect=fixed;perimeter=ellipsePerimeter;html=1;align=center;shadow=0;dashed=0;spacingTop=3;image;image=img/lib/active_directory/user.svg;fillColor=none;" parent="1" vertex="1">
          <mxGeometry x="31.399999999999995" y="280" width="7.4" height="20" as="geometry" />
        </mxCell>
        <mxCell id="gcra_a-b6aYlQ8D47dko-124" value="" style="whiteSpace=wrap;html=1;dashed=1;strokeColor=#001DBC;fontColor=#ffffff;fillColor=none;" parent="1" vertex="1">
          <mxGeometry x="201.74" y="285" width="180" height="80" as="geometry" />
        </mxCell>
        <mxCell id="gcra_a-b6aYlQ8D47dko-125" value="" style="aspect=fixed;html=1;points=[];align=center;image;fontSize=12;image=img/lib/azure2/networking/Virtual_Networks.svg;fillColor=none;" parent="1" vertex="1">
          <mxGeometry x="360.91" y="359.85" width="17" height="10.15" as="geometry" />
        </mxCell>
        <mxCell id="gcra_a-b6aYlQ8D47dko-126" value="&lt;font style=&quot;font-size: 6px&quot; color=&quot;#66b2ff&quot;&gt;Prod-USEast-2&lt;/font&gt;" style="text;html=1;resizable=0;autosize=1;align=center;verticalAlign=middle;points=[];fillColor=none;strokeColor=none;rounded=0;dashed=1;" parent="1" vertex="1">
          <mxGeometry x="300" y="345" width="60" height="20" as="geometry" />
        </mxCell>
        <mxCell id="gcra_a-b6aYlQ8D47dko-127" value="" style="whiteSpace=wrap;html=1;strokeColor=#001DBC;fontColor=#ffffff;fillColor=none;" parent="1" vertex="1">
          <mxGeometry x="220" y="289.92" width="70" height="70.08" as="geometry" />
        </mxCell>
        <mxCell id="gcra_a-b6aYlQ8D47dko-128" value="" style="whiteSpace=wrap;html=1;strokeColor=#001DBC;fontColor=#ffffff;fillColor=none;" parent="1" vertex="1">
          <mxGeometry x="313.4" y="289.92" width="60" height="59.96" as="geometry" />
        </mxCell>
        <mxCell id="gcra_a-b6aYlQ8D47dko-129" value="" style="shape=image;verticalLabelPosition=bottom;labelBackgroundColor=#ffffff;verticalAlign=top;aspect=fixed;imageAspect=0;image=data:image/png,iVBORw0KGgoAAAANSUhEUgAAAOEAAADhCAMAAAAJbSJIAAAAkFBMVEUAccb///8AaMMAb8XF1u3I2/AAbcUAa8QAZ8NEjNAAZcIkgMzk7vjh8PmItOAAcsex0OuLr93w9/z3/P681u5hmdVkntbV5fSxyOfq9fsvhM0AdsjS4/Rinde00Ozd6/dNktN0qNuRuuIRecmhxOYAX8B6q9yKteChweUxic+cweQfgcx0odd2qtzF1e2Ss94a2d+PAAAJ70lEQVR42u3dWZequBYA4OzsNgngUEUQZVBQbKvK2+f2//93/VCMCk5M0ZW8naWnyGemnUACgYGTN/QFycDXk4F8c+HcPL63cMKRTt5Z6C2QYGC/sdBnhBD2877CmBNCCOGbdxUuKflNdPeewk0GJES4byiUcQEkhC7fThhZjJQT9733Eh4okmpibPJGQtsV50BCUMzfRugknNQl6q/eQujFNQWYFiP9en2h/UUZaUxIE+e1hfI7oEiuJRRx+MLCU0LJzcRov8b+hNMvfqP8cqNpTF5OKCcu5ff5fuuqf7BfSRjtfcHIQwlpsAtfRDj99tkDxVcYGU++ItWFMvyyzGd4KZKb1lcoVRXK6LAJxPO8DCkS92OqnFBOTkuLU9aSl1VXir67jVQRes63m3DKu9FlSGSUo7F3vPGE0p6GH/t/ftCknGGXuhKTU3MRH0/O1JYDCaU3W4WTj/2fTewH1KSc92OrliYXNPBjd346/DVZrWYzT8ouhSvXdV3DMGLfspJkseBcUM4Y9k47cyLjnArBOSFBkliWZcSGYbiu64YthROTMY5FImMnLCfOmPlXWyElaieqhVqohVqohVqohVqohVqohVqohVqohVqohVqohVqohVqohVqohVqohVqohVqohVqohVqohVqohVqohVqohVqohVqohVqohW8uRGTsnh0p936vHyHSNNVvFOW/H17kDRk16Y/huu7yJ6Fm404+ZNQ0E8N1Xdf4QdO8uieuFyH6Tpr+1B2WwL/X6/V6vU2q+UIe7JxZ8ZftyZeFtT/fYlPZmjfb7qzmXan9CI3846TmwmbK+F/5MxSGc7kha3lZzsLY1ux5juYBjiOciGZhuYTY4qPur7vs3Oc37VtfsnGEsOP3CJlfv+/1TIji0JiR0YT2ZT29FDae7lUVMuvKztjRhOCYN4W4KG12ldNotYpmNUJu2OcbOqUKwstLXwhFcX7JdpkETFBGrM3argqZUfLYzs7wk8Dyjd12NbbQOx+tzoXF16OEpmM4IqP0T1mIVgGcLQVl6SZKRmmyn44qhAO9LuSnbMdt9bdAnhRNFTHvi+ydedYBcXNnb8YQztJfPWbXhdlZSQa7iMyKjG6zK06tmkvyIBljPAzTXEXVgONMiIv039MrIS6Lswuu6iNRHCWmiZL0SydxTRikPWkomsNsno0THnlwM3WvwqmZDdCVAK2pDKNmIcvOipTGg6e+9CxkPC2elbjWl6blI63G4jGzproXRCkhsuz4wzltFtJsONyaTdMlKyvCx0/X6FmIWRdYLp9zIcvP8jw1EPk+K8LH59t9C/NupPS9i1qa5NGYk9QejiXCK5OxkYXFebLFJOMiaiudrCf3NQdk4SL9CWacqCckZtrK5JW5hSidziG/Lg6pw2zqsaYqCvOjnR3aKMRFeXoo11bVmPdXlUURxquJjSUkPOtIssixZgaMQeWUS7mv5Jf9qZku4nFeSV8ujiUk2RHkXhpZ1a1iIFZn796m1K3y7CDTuPSboHffuuYQQkzSCPwgGoUEzXhW/cMJuxgsjLJwpo6Q8GNl8lArJITxeWUOb+dHJ6svJGbaV84oNgsJ0qBaVbPjr/NaWprlKibMo649vSIkBGlwKi+aZme0Z3Vgx9Rsh+Ux/QevCQlBivuirqaxXj5a7EujBZ4+ftNhpoIQWToahByvCn/LsVio45VVkcrF0rsf9O8PFYQE/fT7R3pDSAgRxbJhzMpRm1c3taBqCInY58HzTSFhQRbj/AZCeVT3o7AQedZcxG1haRFcVIaLrVBXWKwl7f5e3RQSM7sBE2C5jsMC1RUSmg52Ng9vC+l3pV6a2ULU2lRYiCxtXOuP20L+XQljimUAl6srLOrpWRkia25c6SodsiyCsS2mrpCIbeW/ZquJyfHiYH0U2XhBz5YTwf45myCrJES064SBvfKrDxtgvtCaL0MWq/qwq5xni6ZCwrOXAJXXvEM3MDkiEoLIRJJz8kgUWXF3NNoEgrP0xpOVRXlKCIul0ctVfW8yNyw0+cLffORFbRejQ2lFDsBzjv/EfhzvTiupRuRdrFbIJiEAgJR29YTcyh1S6/wWsEpzi6KeuteE5+lkVmO51RNPZw0tLIKVO4RzcX4HqvlRDLDnTA1hvmhTuvdU/4TFbEkvZ1ZNr4Hw5gEfYTXRq7ttmU/YixGf1Lz1YOXWLoAi/bl8LYu9XSIfdkU4+fz8/Pz8PNaGZfz4++m/QTE/FizeO5Etf3ub6OMYmE13mVDwzSm0bQkgpW2vDp/G1Uf3eno2kV1bhc4Wq6tBK6cmWoZhWBaa9OptUGRc8MQ3DN8KmLj1IhClni996Ezwe7+rnxHWQi3UQi3UQi3UwrcQ/r+tkKsunLQUhqoLeVthpLyw7buCPAVeD3Q1sailsO5ukEoJiWwrNBQXWtBWOFe7ITK3tXCr9oCY36Z7XjgzlRaKSWshMJUbInJoL3SZys1w2YHQEQoL6akDoVR4REQ+7UAIG3WrabFdqpVQ4fGCrjsRykTValrZfttCWHkoUq3h/g90I7S5ooVIpx0Jy8/uvthgeK8wUnNINKPOhHUnJ7zCtOIBoafgqI8s6lD4zMbA3jvSOXQpVG9MrDyc1IEQtqpNE80tdCtsPLVB4Yj0QaGtVGdzuaWmvVCtAPyekPthYc0j2OP1oxvoQ6hOf4oL2Yvw/ISP8YDmCvoRqtIU71iceVYIRxWIdAf9CbM9kaOOhAb0KQR/7IE/3//fl9AbuUNteuK4OyFEZEwi3ryp3V4I4YhjBlIH+heOSCx2E/UrhMlYvQ39hmGE4NBRSlGcYCghTEaoqPgc8EkhTAa/b/os8FkhhANPiFGsYVghzAI26DDxAUMLwbaGi1ERQxheCLYx1EyDWVMYQwjSHeZ+BjVsGEcIsBcD9DfCbZXHdkLY9j5qYOk8uzGEEC767VKRb2FcIXh+n/0NIyGMLQQ49halIo0lKCCEbU/PESPdd5C7LoQQJX0M/gwnoIoQpNv9sNFuFOxaCLAlrOMaOu8oZ10JYdppDMcTB1QTAszNrmoqCtcGBYWw6qjDYbjtMFddCkEeO1jdQBp7oKoQYNK6GBk/dJuljoUgd61aI4qfKagtBJhYz0dxfHHoPD/dC0HOn2yNKFwPXkEIsPKfCXF44PSRmV6EAAfOHi7APxJeSAi2+1hrpEbYU076EgJMHqiqfLHuLR/9CQFO/L7BkZk7G15SCPbujuaINI76zESvQoAwvtEckfpOv1noWQjgWFeaI3JykPDiQoATNkQAyOhR9n75AYQgv2qNjO+8Aa4+hBDAu+xyGHejQa49jBAgqr4ujpnL1UBXHkoIEG3ys2UZjcPBrjucECByOUNCGF2GA151SCHAascpdcNBrzmsEGB6mg18xf8AZ4bYFeK18xgAAAAASUVORK5CYII=;" parent="1" vertex="1">
          <mxGeometry x="229.81" y="296" width="12.5" height="12.5" as="geometry" />
        </mxCell>
        <mxCell id="gcra_a-b6aYlQ8D47dko-131" value="" style="shape=image;verticalLabelPosition=bottom;labelBackgroundColor=#ffffff;verticalAlign=top;aspect=fixed;imageAspect=0;image=data:image/png,iVBORw0KGgoAAAANSUhEUgAAAOEAAADhCAMAAAAJbSJIAAAAkFBMVEUAccb///8AaMMAb8XF1u3I2/AAbcUAa8QAZ8NEjNAAZcIkgMzk7vjh8PmItOAAcsex0OuLr93w9/z3/P681u5hmdVkntbV5fSxyOfq9fsvhM0AdsjS4/Rinde00Ozd6/dNktN0qNuRuuIRecmhxOYAX8B6q9yKteChweUxic+cweQfgcx0odd2qtzF1e2Ss94a2d+PAAAJ70lEQVR42u3dWZequBYA4OzsNgngUEUQZVBQbKvK2+f2//93/VCMCk5M0ZW8naWnyGemnUACgYGTN/QFycDXk4F8c+HcPL63cMKRTt5Z6C2QYGC/sdBnhBD2877CmBNCCOGbdxUuKflNdPeewk0GJES4byiUcQEkhC7fThhZjJQT9733Eh4okmpibPJGQtsV50BCUMzfRugknNQl6q/eQujFNQWYFiP9en2h/UUZaUxIE+e1hfI7oEiuJRRx+MLCU0LJzcRov8b+hNMvfqP8cqNpTF5OKCcu5ff5fuuqf7BfSRjtfcHIQwlpsAtfRDj99tkDxVcYGU++ItWFMvyyzGd4KZKb1lcoVRXK6LAJxPO8DCkS92OqnFBOTkuLU9aSl1VXir67jVQRes63m3DKu9FlSGSUo7F3vPGE0p6GH/t/ftCknGGXuhKTU3MRH0/O1JYDCaU3W4WTj/2fTewH1KSc92OrliYXNPBjd346/DVZrWYzT8ouhSvXdV3DMGLfspJkseBcUM4Y9k47cyLjnArBOSFBkliWZcSGYbiu64YthROTMY5FImMnLCfOmPlXWyElaieqhVqohVqohVqohVqohVqohVqohVqohVqohVqohVqohVqohVqohVqohVqohVqohVqohVqohVqohVqohVqohVqohVqohVqohW8uRGTsnh0p936vHyHSNNVvFOW/H17kDRk16Y/huu7yJ6Fm404+ZNQ0E8N1Xdf4QdO8uieuFyH6Tpr+1B2WwL/X6/V6vU2q+UIe7JxZ8ZftyZeFtT/fYlPZmjfb7qzmXan9CI3846TmwmbK+F/5MxSGc7kha3lZzsLY1ux5juYBjiOciGZhuYTY4qPur7vs3Oc37VtfsnGEsOP3CJlfv+/1TIji0JiR0YT2ZT29FDae7lUVMuvKztjRhOCYN4W4KG12ldNotYpmNUJu2OcbOqUKwstLXwhFcX7JdpkETFBGrM3argqZUfLYzs7wk8Dyjd12NbbQOx+tzoXF16OEpmM4IqP0T1mIVgGcLQVl6SZKRmmyn44qhAO9LuSnbMdt9bdAnhRNFTHvi+ydedYBcXNnb8YQztJfPWbXhdlZSQa7iMyKjG6zK06tmkvyIBljPAzTXEXVgONMiIv039MrIS6Lswuu6iNRHCWmiZL0SydxTRikPWkomsNsno0THnlwM3WvwqmZDdCVAK2pDKNmIcvOipTGg6e+9CxkPC2elbjWl6blI63G4jGzproXRCkhsuz4wzltFtJsONyaTdMlKyvCx0/X6FmIWRdYLp9zIcvP8jw1EPk+K8LH59t9C/NupPS9i1qa5NGYk9QejiXCK5OxkYXFebLFJOMiaiudrCf3NQdk4SL9CWacqCckZtrK5JW5hSidziG/Lg6pw2zqsaYqCvOjnR3aKMRFeXoo11bVmPdXlUURxquJjSUkPOtIssixZgaMQeWUS7mv5Jf9qZku4nFeSV8ujiUk2RHkXhpZ1a1iIFZn796m1K3y7CDTuPSboHffuuYQQkzSCPwgGoUEzXhW/cMJuxgsjLJwpo6Q8GNl8lArJITxeWUOb+dHJ6svJGbaV84oNgsJ0qBaVbPjr/NaWprlKibMo649vSIkBGlwKi+aZme0Z3Vgx9Rsh+Ux/QevCQlBivuirqaxXj5a7EujBZ4+ftNhpoIQWToahByvCn/LsVio45VVkcrF0rsf9O8PFYQE/fT7R3pDSAgRxbJhzMpRm1c3taBqCInY58HzTSFhQRbj/AZCeVT3o7AQedZcxG1haRFcVIaLrVBXWKwl7f5e3RQSM7sBE2C5jsMC1RUSmg52Ng9vC+l3pV6a2ULU2lRYiCxtXOuP20L+XQljimUAl6srLOrpWRkia25c6SodsiyCsS2mrpCIbeW/ZquJyfHiYH0U2XhBz5YTwf45myCrJES064SBvfKrDxtgvtCaL0MWq/qwq5xni6ZCwrOXAJXXvEM3MDkiEoLIRJJz8kgUWXF3NNoEgrP0xpOVRXlKCIul0ctVfW8yNyw0+cLffORFbRejQ2lFDsBzjv/EfhzvTiupRuRdrFbIJiEAgJR29YTcyh1S6/wWsEpzi6KeuteE5+lkVmO51RNPZw0tLIKVO4RzcX4HqvlRDLDnTA1hvmhTuvdU/4TFbEkvZ1ZNr4Hw5gEfYTXRq7ttmU/YixGf1Lz1YOXWLoAi/bl8LYu9XSIfdkU4+fz8/Pz8PNaGZfz4++m/QTE/FizeO5Etf3ub6OMYmE13mVDwzSm0bQkgpW2vDp/G1Uf3eno2kV1bhc4Wq6tBK6cmWoZhWBaa9OptUGRc8MQ3DN8KmLj1IhClni996Ezwe7+rnxHWQi3UQi3UQi3UwrcQ/r+tkKsunLQUhqoLeVthpLyw7buCPAVeD3Q1sailsO5ukEoJiWwrNBQXWtBWOFe7ITK3tXCr9oCY36Z7XjgzlRaKSWshMJUbInJoL3SZys1w2YHQEQoL6akDoVR4REQ+7UAIG3WrabFdqpVQ4fGCrjsRykTValrZfttCWHkoUq3h/g90I7S5ooVIpx0Jy8/uvthgeK8wUnNINKPOhHUnJ7zCtOIBoafgqI8s6lD4zMbA3jvSOXQpVG9MrDyc1IEQtqpNE80tdCtsPLVB4Yj0QaGtVGdzuaWmvVCtAPyekPthYc0j2OP1oxvoQ6hOf4oL2Yvw/ISP8YDmCvoRqtIU71iceVYIRxWIdAf9CbM9kaOOhAb0KQR/7IE/3//fl9AbuUNteuK4OyFEZEwi3ryp3V4I4YhjBlIH+heOSCx2E/UrhMlYvQ39hmGE4NBRSlGcYCghTEaoqPgc8EkhTAa/b/os8FkhhANPiFGsYVghzAI26DDxAUMLwbaGi1ERQxheCLYx1EyDWVMYQwjSHeZ+BjVsGEcIsBcD9DfCbZXHdkLY9j5qYOk8uzGEEC767VKRb2FcIXh+n/0NIyGMLQQ49halIo0lKCCEbU/PESPdd5C7LoQQJX0M/gwnoIoQpNv9sNFuFOxaCLAlrOMaOu8oZ10JYdppDMcTB1QTAszNrmoqCtcGBYWw6qjDYbjtMFddCkEeO1jdQBp7oKoQYNK6GBk/dJuljoUgd61aI4qfKagtBJhYz0dxfHHoPD/dC0HOn2yNKFwPXkEIsPKfCXF44PSRmV6EAAfOHi7APxJeSAi2+1hrpEbYU076EgJMHqiqfLHuLR/9CQFO/L7BkZk7G15SCPbujuaINI76zESvQoAwvtEckfpOv1noWQjgWFeaI3JykPDiQoATNkQAyOhR9n75AYQgv2qNjO+8Aa4+hBDAu+xyGHejQa49jBAgqr4ujpnL1UBXHkoIEG3ys2UZjcPBrjucECByOUNCGF2GA151SCHAascpdcNBrzmsEGB6mg18xf8AZ4bYFeK18xgAAAAASUVORK5CYII=;" parent="1" vertex="1">
          <mxGeometry x="337.15" y="292.5" width="12.5" height="12.5" as="geometry" />
        </mxCell>
        <mxCell id="gcra_a-b6aYlQ8D47dko-132" value="&lt;font style=&quot;font-size: 6px&quot; color=&quot;#66b2ff&quot;&gt;Vnet-AzureAD-Subnet&lt;/font&gt;" style="text;html=1;resizable=0;autosize=1;align=center;verticalAlign=middle;points=[];fillColor=none;strokeColor=none;rounded=0;dashed=1;" parent="1" vertex="1">
          <mxGeometry x="218.48" y="335" width="70" height="20" as="geometry" />
        </mxCell>
        <mxCell id="gcra_a-b6aYlQ8D47dko-133" value="&lt;font style=&quot;font-size: 6px&quot; color=&quot;#66b2ff&quot;&gt;Default subnet&lt;/font&gt;" style="text;html=1;resizable=0;autosize=1;align=center;verticalAlign=middle;points=[];fillColor=none;strokeColor=none;rounded=0;dashed=1;" parent="1" vertex="1">
          <mxGeometry x="316.75" y="315" width="50" height="20" as="geometry" />
        </mxCell>
        <mxCell id="gcra_a-b6aYlQ8D47dko-134" value="" style="aspect=fixed;html=1;points=[];align=center;image;fontSize=12;image=img/lib/azure2/compute/Virtual_Machine.svg;fillColor=none;" parent="1" vertex="1">
          <mxGeometry x="244.71" y="296" width="30.19" height="28" as="geometry" />
        </mxCell>
        <mxCell id="gcra_a-b6aYlQ8D47dko-135" value="&lt;font style=&quot;font-size: 6px&quot; color=&quot;#66b2ff&quot;&gt;itSecJumpServer&lt;/font&gt;" style="text;html=1;resizable=0;autosize=1;align=center;verticalAlign=middle;points=[];fillColor=none;strokeColor=none;rounded=0;dashed=1;" parent="1" vertex="1">
          <mxGeometry x="229.80999999999997" y="320" width="60" height="20" as="geometry" />
        </mxCell>
        <mxCell id="gcra_a-b6aYlQ8D47dko-139" value="&lt;font color=&quot;#66b2ff&quot; size=&quot;1&quot;&gt;&lt;b&gt;BayView Prod&lt;/b&gt;&lt;/font&gt;" style="text;html=1;resizable=0;autosize=1;align=center;verticalAlign=middle;points=[];fillColor=none;strokeColor=none;rounded=0;dashed=1;" parent="1" vertex="1">
          <mxGeometry x="173.89" y="13.07" width="80" height="20" as="geometry" />
        </mxCell>
        <mxCell id="gcra_a-b6aYlQ8D47dko-141" value="&lt;font style=&quot;font-size: 6px&quot; color=&quot;#66b2ff&quot;&gt;User&lt;/font&gt;" style="text;html=1;resizable=0;autosize=1;align=center;verticalAlign=middle;points=[];fillColor=none;strokeColor=none;rounded=0;dashed=1;" parent="1" vertex="1">
          <mxGeometry x="28.800000000000022" y="290" width="30" height="20" as="geometry" />
        </mxCell>
        <mxCell id="gcra_a-b6aYlQ8D47dko-150" style="edgeStyle=orthogonalEdgeStyle;rounded=0;jumpStyle=none;orthogonalLoop=1;jettySize=auto;html=1;startArrow=classic;startFill=1;endArrow=none;endFill=0;fillColor=#f0a30a;strokeColor=#BD7000;" parent="1" source="gcra_a-b6aYlQ8D47dko-148" target="gcra_a-b6aYlQ8D47dko-111" edge="1">
          <mxGeometry relative="1" as="geometry">
            <Array as="points">
              <mxPoint x="130" y="210" />
              <mxPoint x="130" y="295" />
            </Array>
          </mxGeometry>
        </mxCell>
        <mxCell id="gcra_a-b6aYlQ8D47dko-148" value="" style="aspect=fixed;html=1;points=[];align=center;image;fontSize=12;image=img/lib/mscae/Load_Balancer_feature.svg;fillColor=none;" parent="1" vertex="1">
          <mxGeometry x="207.59000000000003" y="199.92" width="20" height="20" as="geometry" />
        </mxCell>
        <mxCell id="gcra_a-b6aYlQ8D47dko-151" value="&lt;font style=&quot;font-size: 6px&quot; color=&quot;#66b2ff&quot;&gt;backend-lb&lt;/font&gt;" style="text;html=1;resizable=0;autosize=1;align=center;verticalAlign=middle;points=[];fillColor=none;strokeColor=none;rounded=0;dashed=1;" parent="1" vertex="1">
          <mxGeometry x="197.58999999999997" y="210.00000000000003" width="40" height="20" as="geometry" />
        </mxCell>
        <mxCell id="gcra_a-b6aYlQ8D47dko-156" value="" style="whiteSpace=wrap;html=1;dashed=1;strokeColor=#001DBC;fontColor=#ffffff;fillColor=none;" parent="1" vertex="1">
          <mxGeometry x="200" y="390" width="180" height="80.67" as="geometry" />
        </mxCell>
        <mxCell id="gcra_a-b6aYlQ8D47dko-157" value="" style="aspect=fixed;html=1;points=[];align=center;image;fontSize=12;image=img/lib/azure2/networking/Virtual_Networks.svg;fillColor=none;" parent="1" vertex="1">
          <mxGeometry x="356.4" y="460.52000000000004" width="17" height="10.15" as="geometry" />
        </mxCell>
        <mxCell id="gcra_a-b6aYlQ8D47dko-166" value="&lt;font style=&quot;font-size: 6px&quot; color=&quot;#66b2ff&quot;&gt;worker-vnet- EastUS-2&lt;/font&gt;" style="text;html=1;resizable=0;autosize=1;align=center;verticalAlign=middle;points=[];fillColor=none;strokeColor=none;rounded=0;dashed=1;" parent="1" vertex="1">
          <mxGeometry x="273.75" y="450.67" width="80" height="20" as="geometry" />
        </mxCell>
        <mxCell id="gcra_a-b6aYlQ8D47dko-168" value="" style="shape=image;verticalLabelPosition=bottom;labelBackgroundColor=#ffffff;verticalAlign=top;aspect=fixed;imageAspect=0;image=data:image/png,iVBORw0KGgoAAAANSUhEUgAAAOEAAADhCAMAAAAJbSJIAAAAkFBMVEUAccb///8AaMMAb8XF1u3I2/AAbcUAa8QAZ8NEjNAAZcIkgMzk7vjh8PmItOAAcsex0OuLr93w9/z3/P681u5hmdVkntbV5fSxyOfq9fsvhM0AdsjS4/Rinde00Ozd6/dNktN0qNuRuuIRecmhxOYAX8B6q9yKteChweUxic+cweQfgcx0odd2qtzF1e2Ss94a2d+PAAAJ70lEQVR42u3dWZequBYA4OzsNgngUEUQZVBQbKvK2+f2//93/VCMCk5M0ZW8naWnyGemnUACgYGTN/QFycDXk4F8c+HcPL63cMKRTt5Z6C2QYGC/sdBnhBD2877CmBNCCOGbdxUuKflNdPeewk0GJES4byiUcQEkhC7fThhZjJQT9733Eh4okmpibPJGQtsV50BCUMzfRugknNQl6q/eQujFNQWYFiP9en2h/UUZaUxIE+e1hfI7oEiuJRRx+MLCU0LJzcRov8b+hNMvfqP8cqNpTF5OKCcu5ff5fuuqf7BfSRjtfcHIQwlpsAtfRDj99tkDxVcYGU++ItWFMvyyzGd4KZKb1lcoVRXK6LAJxPO8DCkS92OqnFBOTkuLU9aSl1VXir67jVQRes63m3DKu9FlSGSUo7F3vPGE0p6GH/t/ftCknGGXuhKTU3MRH0/O1JYDCaU3W4WTj/2fTewH1KSc92OrliYXNPBjd346/DVZrWYzT8ouhSvXdV3DMGLfspJkseBcUM4Y9k47cyLjnArBOSFBkliWZcSGYbiu64YthROTMY5FImMnLCfOmPlXWyElaieqhVqohVqohVqohVqohVqohVqohVqohVqohVqohVqohVqohVqohVqohVqohVqohVqohVqohVqohVqohVqohVqohVqohVqohW8uRGTsnh0p936vHyHSNNVvFOW/H17kDRk16Y/huu7yJ6Fm404+ZNQ0E8N1Xdf4QdO8uieuFyH6Tpr+1B2WwL/X6/V6vU2q+UIe7JxZ8ZftyZeFtT/fYlPZmjfb7qzmXan9CI3846TmwmbK+F/5MxSGc7kha3lZzsLY1ux5juYBjiOciGZhuYTY4qPur7vs3Oc37VtfsnGEsOP3CJlfv+/1TIji0JiR0YT2ZT29FDae7lUVMuvKztjRhOCYN4W4KG12ldNotYpmNUJu2OcbOqUKwstLXwhFcX7JdpkETFBGrM3argqZUfLYzs7wk8Dyjd12NbbQOx+tzoXF16OEpmM4IqP0T1mIVgGcLQVl6SZKRmmyn44qhAO9LuSnbMdt9bdAnhRNFTHvi+ydedYBcXNnb8YQztJfPWbXhdlZSQa7iMyKjG6zK06tmkvyIBljPAzTXEXVgONMiIv039MrIS6Lswuu6iNRHCWmiZL0SydxTRikPWkomsNsno0THnlwM3WvwqmZDdCVAK2pDKNmIcvOipTGg6e+9CxkPC2elbjWl6blI63G4jGzproXRCkhsuz4wzltFtJsONyaTdMlKyvCx0/X6FmIWRdYLp9zIcvP8jw1EPk+K8LH59t9C/NupPS9i1qa5NGYk9QejiXCK5OxkYXFebLFJOMiaiudrCf3NQdk4SL9CWacqCckZtrK5JW5hSidziG/Lg6pw2zqsaYqCvOjnR3aKMRFeXoo11bVmPdXlUURxquJjSUkPOtIssixZgaMQeWUS7mv5Jf9qZku4nFeSV8ujiUk2RHkXhpZ1a1iIFZn796m1K3y7CDTuPSboHffuuYQQkzSCPwgGoUEzXhW/cMJuxgsjLJwpo6Q8GNl8lArJITxeWUOb+dHJ6svJGbaV84oNgsJ0qBaVbPjr/NaWprlKibMo649vSIkBGlwKi+aZme0Z3Vgx9Rsh+Ux/QevCQlBivuirqaxXj5a7EujBZ4+ftNhpoIQWToahByvCn/LsVio45VVkcrF0rsf9O8PFYQE/fT7R3pDSAgRxbJhzMpRm1c3taBqCInY58HzTSFhQRbj/AZCeVT3o7AQedZcxG1haRFcVIaLrVBXWKwl7f5e3RQSM7sBE2C5jsMC1RUSmg52Ng9vC+l3pV6a2ULU2lRYiCxtXOuP20L+XQljimUAl6srLOrpWRkia25c6SodsiyCsS2mrpCIbeW/ZquJyfHiYH0U2XhBz5YTwf45myCrJES064SBvfKrDxtgvtCaL0MWq/qwq5xni6ZCwrOXAJXXvEM3MDkiEoLIRJJz8kgUWXF3NNoEgrP0xpOVRXlKCIul0ctVfW8yNyw0+cLffORFbRejQ2lFDsBzjv/EfhzvTiupRuRdrFbIJiEAgJR29YTcyh1S6/wWsEpzi6KeuteE5+lkVmO51RNPZw0tLIKVO4RzcX4HqvlRDLDnTA1hvmhTuvdU/4TFbEkvZ1ZNr4Hw5gEfYTXRq7ttmU/YixGf1Lz1YOXWLoAi/bl8LYu9XSIfdkU4+fz8/Pz8PNaGZfz4++m/QTE/FizeO5Etf3ub6OMYmE13mVDwzSm0bQkgpW2vDp/G1Uf3eno2kV1bhc4Wq6tBK6cmWoZhWBaa9OptUGRc8MQ3DN8KmLj1IhClni996Ezwe7+rnxHWQi3UQi3UQi3UwrcQ/r+tkKsunLQUhqoLeVthpLyw7buCPAVeD3Q1sailsO5ukEoJiWwrNBQXWtBWOFe7ITK3tXCr9oCY36Z7XjgzlRaKSWshMJUbInJoL3SZys1w2YHQEQoL6akDoVR4REQ+7UAIG3WrabFdqpVQ4fGCrjsRykTValrZfttCWHkoUq3h/g90I7S5ooVIpx0Jy8/uvthgeK8wUnNINKPOhHUnJ7zCtOIBoafgqI8s6lD4zMbA3jvSOXQpVG9MrDyc1IEQtqpNE80tdCtsPLVB4Yj0QaGtVGdzuaWmvVCtAPyekPthYc0j2OP1oxvoQ6hOf4oL2Yvw/ISP8YDmCvoRqtIU71iceVYIRxWIdAf9CbM9kaOOhAb0KQR/7IE/3//fl9AbuUNteuK4OyFEZEwi3ryp3V4I4YhjBlIH+heOSCx2E/UrhMlYvQ39hmGE4NBRSlGcYCghTEaoqPgc8EkhTAa/b/os8FkhhANPiFGsYVghzAI26DDxAUMLwbaGi1ERQxheCLYx1EyDWVMYQwjSHeZ+BjVsGEcIsBcD9DfCbZXHdkLY9j5qYOk8uzGEEC767VKRb2FcIXh+n/0NIyGMLQQ49halIo0lKCCEbU/PESPdd5C7LoQQJX0M/gwnoIoQpNv9sNFuFOxaCLAlrOMaOu8oZ10JYdppDMcTB1QTAszNrmoqCtcGBYWw6qjDYbjtMFddCkEeO1jdQBp7oKoQYNK6GBk/dJuljoUgd61aI4qfKagtBJhYz0dxfHHoPD/dC0HOn2yNKFwPXkEIsPKfCXF44PSRmV6EAAfOHi7APxJeSAi2+1hrpEbYU076EgJMHqiqfLHuLR/9CQFO/L7BkZk7G15SCPbujuaINI76zESvQoAwvtEckfpOv1noWQjgWFeaI3JykPDiQoATNkQAyOhR9n75AYQgv2qNjO+8Aa4+hBDAu+xyGHejQa49jBAgqr4ujpnL1UBXHkoIEG3ys2UZjcPBrjucECByOUNCGF2GA151SCHAascpdcNBrzmsEGB6mg18xf8AZ4bYFeK18xgAAAAASUVORK5CYII=;" parent="1" vertex="1">
          <mxGeometry x="271.34" y="193.75" width="16.25" height="16.25" as="geometry" />
        </mxCell>
        <mxCell id="gcra_a-b6aYlQ8D47dko-170" value="" style="aspect=fixed;html=1;points=[];align=center;image;fontSize=12;image=img/lib/azure2/compute/Virtual_Machine.svg;fillColor=none;" parent="1" vertex="1">
          <mxGeometry x="283.95" y="210" width="26.96" height="25" as="geometry" />
        </mxCell>
        <mxCell id="gcra_a-b6aYlQ8D47dko-104" value="&lt;font style=&quot;font-size: 6px&quot; color=&quot;#66b2ff&quot;&gt;VPN over &lt;/font&gt;&lt;font style=&quot;font-size: 6px&quot; color=&quot;#66b2ff&quot;&gt;ExpressRoute&lt;/font&gt;" style="text;html=1;resizable=0;autosize=1;align=center;verticalAlign=middle;points=[];fillColor=none;strokeColor=none;rounded=0;dashed=1;" parent="1" vertex="1">
          <mxGeometry x="82.6" y="77.49999999999999" width="80" height="20" as="geometry" />
        </mxCell>
        <mxCell id="gcra_a-b6aYlQ8D47dko-178" value="&lt;font style=&quot;font-size: 6px&quot; color=&quot;#66b2ff&quot;&gt;azbvlfw01&lt;/font&gt;" style="text;html=1;resizable=0;autosize=1;align=center;verticalAlign=middle;points=[];fillColor=none;strokeColor=none;rounded=0;dashed=1;" parent="1" vertex="1">
          <mxGeometry x="281.65" y="191.88000000000002" width="40" height="20" as="geometry" />
        </mxCell>
        <mxCell id="gcra_a-b6aYlQ8D47dko-179" value="&lt;font style=&quot;font-size: 6px&quot; color=&quot;#66b2ff&quot;&gt;azbvlfw02&lt;/font&gt;" style="text;html=1;resizable=0;autosize=1;align=center;verticalAlign=middle;points=[];fillColor=none;strokeColor=none;rounded=0;dashed=1;" parent="1" vertex="1">
          <mxGeometry x="310.91" y="192.5" width="40" height="20" as="geometry" />
        </mxCell>
        <mxCell id="gcra_a-b6aYlQ8D47dko-180" value="&lt;font style=&quot;font-size: 6px&quot; color=&quot;#66b2ff&quot;&gt;cloudknoxvm&lt;/font&gt;" style="text;html=1;resizable=0;autosize=1;align=center;verticalAlign=middle;points=[];fillColor=none;strokeColor=none;rounded=0;dashed=1;" parent="1" vertex="1">
          <mxGeometry x="332.59" y="186.25" width="50" height="20" as="geometry" />
        </mxCell>
        <mxCell id="gcra_a-b6aYlQ8D47dko-183" value="" style="shape=image;verticalLabelPosition=bottom;labelBackgroundColor=#ffffff;verticalAlign=top;aspect=fixed;imageAspect=0;image=data:image/png,iVBORw0KGgoAAAANSUhEUgAAAOEAAADhCAMAAAAJbSJIAAAAkFBMVEUAccb///8AaMMAb8XF1u3I2/AAbcUAa8QAZ8NEjNAAZcIkgMzk7vjh8PmItOAAcsex0OuLr93w9/z3/P681u5hmdVkntbV5fSxyOfq9fsvhM0AdsjS4/Rinde00Ozd6/dNktN0qNuRuuIRecmhxOYAX8B6q9yKteChweUxic+cweQfgcx0odd2qtzF1e2Ss94a2d+PAAAJ70lEQVR42u3dWZequBYA4OzsNgngUEUQZVBQbKvK2+f2//93/VCMCk5M0ZW8naWnyGemnUACgYGTN/QFycDXk4F8c+HcPL63cMKRTt5Z6C2QYGC/sdBnhBD2877CmBNCCOGbdxUuKflNdPeewk0GJES4byiUcQEkhC7fThhZjJQT9733Eh4okmpibPJGQtsV50BCUMzfRugknNQl6q/eQujFNQWYFiP9en2h/UUZaUxIE+e1hfI7oEiuJRRx+MLCU0LJzcRov8b+hNMvfqP8cqNpTF5OKCcu5ff5fuuqf7BfSRjtfcHIQwlpsAtfRDj99tkDxVcYGU++ItWFMvyyzGd4KZKb1lcoVRXK6LAJxPO8DCkS92OqnFBOTkuLU9aSl1VXir67jVQRes63m3DKu9FlSGSUo7F3vPGE0p6GH/t/ftCknGGXuhKTU3MRH0/O1JYDCaU3W4WTj/2fTewH1KSc92OrliYXNPBjd346/DVZrWYzT8ouhSvXdV3DMGLfspJkseBcUM4Y9k47cyLjnArBOSFBkliWZcSGYbiu64YthROTMY5FImMnLCfOmPlXWyElaieqhVqohVqohVqohVqohVqohVqohVqohVqohVqohVqohVqohVqohVqohVqohVqohVqohVqohVqohVqohVqohVqohVqohVqohW8uRGTsnh0p936vHyHSNNVvFOW/H17kDRk16Y/huu7yJ6Fm404+ZNQ0E8N1Xdf4QdO8uieuFyH6Tpr+1B2WwL/X6/V6vU2q+UIe7JxZ8ZftyZeFtT/fYlPZmjfb7qzmXan9CI3846TmwmbK+F/5MxSGc7kha3lZzsLY1ux5juYBjiOciGZhuYTY4qPur7vs3Oc37VtfsnGEsOP3CJlfv+/1TIji0JiR0YT2ZT29FDae7lUVMuvKztjRhOCYN4W4KG12ldNotYpmNUJu2OcbOqUKwstLXwhFcX7JdpkETFBGrM3argqZUfLYzs7wk8Dyjd12NbbQOx+tzoXF16OEpmM4IqP0T1mIVgGcLQVl6SZKRmmyn44qhAO9LuSnbMdt9bdAnhRNFTHvi+ydedYBcXNnb8YQztJfPWbXhdlZSQa7iMyKjG6zK06tmkvyIBljPAzTXEXVgONMiIv039MrIS6Lswuu6iNRHCWmiZL0SydxTRikPWkomsNsno0THnlwM3WvwqmZDdCVAK2pDKNmIcvOipTGg6e+9CxkPC2elbjWl6blI63G4jGzproXRCkhsuz4wzltFtJsONyaTdMlKyvCx0/X6FmIWRdYLp9zIcvP8jw1EPk+K8LH59t9C/NupPS9i1qa5NGYk9QejiXCK5OxkYXFebLFJOMiaiudrCf3NQdk4SL9CWacqCckZtrK5JW5hSidziG/Lg6pw2zqsaYqCvOjnR3aKMRFeXoo11bVmPdXlUURxquJjSUkPOtIssixZgaMQeWUS7mv5Jf9qZku4nFeSV8ujiUk2RHkXhpZ1a1iIFZn796m1K3y7CDTuPSboHffuuYQQkzSCPwgGoUEzXhW/cMJuxgsjLJwpo6Q8GNl8lArJITxeWUOb+dHJ6svJGbaV84oNgsJ0qBaVbPjr/NaWprlKibMo649vSIkBGlwKi+aZme0Z3Vgx9Rsh+Ux/QevCQlBivuirqaxXj5a7EujBZ4+ftNhpoIQWToahByvCn/LsVio45VVkcrF0rsf9O8PFYQE/fT7R3pDSAgRxbJhzMpRm1c3taBqCInY58HzTSFhQRbj/AZCeVT3o7AQedZcxG1haRFcVIaLrVBXWKwl7f5e3RQSM7sBE2C5jsMC1RUSmg52Ng9vC+l3pV6a2ULU2lRYiCxtXOuP20L+XQljimUAl6srLOrpWRkia25c6SodsiyCsS2mrpCIbeW/ZquJyfHiYH0U2XhBz5YTwf45myCrJES064SBvfKrDxtgvtCaL0MWq/qwq5xni6ZCwrOXAJXXvEM3MDkiEoLIRJJz8kgUWXF3NNoEgrP0xpOVRXlKCIul0ctVfW8yNyw0+cLffORFbRejQ2lFDsBzjv/EfhzvTiupRuRdrFbIJiEAgJR29YTcyh1S6/wWsEpzi6KeuteE5+lkVmO51RNPZw0tLIKVO4RzcX4HqvlRDLDnTA1hvmhTuvdU/4TFbEkvZ1ZNr4Hw5gEfYTXRq7ttmU/YixGf1Lz1YOXWLoAi/bl8LYu9XSIfdkU4+fz8/Pz8PNaGZfz4++m/QTE/FizeO5Etf3ub6OMYmE13mVDwzSm0bQkgpW2vDp/G1Uf3eno2kV1bhc4Wq6tBK6cmWoZhWBaa9OptUGRc8MQ3DN8KmLj1IhClni996Ezwe7+rnxHWQi3UQi3UQi3UwrcQ/r+tkKsunLQUhqoLeVthpLyw7buCPAVeD3Q1sailsO5ukEoJiWwrNBQXWtBWOFe7ITK3tXCr9oCY36Z7XjgzlRaKSWshMJUbInJoL3SZys1w2YHQEQoL6akDoVR4REQ+7UAIG3WrabFdqpVQ4fGCrjsRykTValrZfttCWHkoUq3h/g90I7S5ooVIpx0Jy8/uvthgeK8wUnNINKPOhHUnJ7zCtOIBoafgqI8s6lD4zMbA3jvSOXQpVG9MrDyc1IEQtqpNE80tdCtsPLVB4Yj0QaGtVGdzuaWmvVCtAPyekPthYc0j2OP1oxvoQ6hOf4oL2Yvw/ISP8YDmCvoRqtIU71iceVYIRxWIdAf9CbM9kaOOhAb0KQR/7IE/3//fl9AbuUNteuK4OyFEZEwi3ryp3V4I4YhjBlIH+heOSCx2E/UrhMlYvQ39hmGE4NBRSlGcYCghTEaoqPgc8EkhTAa/b/os8FkhhANPiFGsYVghzAI26DDxAUMLwbaGi1ERQxheCLYx1EyDWVMYQwjSHeZ+BjVsGEcIsBcD9DfCbZXHdkLY9j5qYOk8uzGEEC767VKRb2FcIXh+n/0NIyGMLQQ49halIo0lKCCEbU/PESPdd5C7LoQQJX0M/gwnoIoQpNv9sNFuFOxaCLAlrOMaOu8oZ10JYdppDMcTB1QTAszNrmoqCtcGBYWw6qjDYbjtMFddCkEeO1jdQBp7oKoQYNK6GBk/dJuljoUgd61aI4qfKagtBJhYz0dxfHHoPD/dC0HOn2yNKFwPXkEIsPKfCXF44PSRmV6EAAfOHi7APxJeSAi2+1hrpEbYU076EgJMHqiqfLHuLR/9CQFO/L7BkZk7G15SCPbujuaINI76zESvQoAwvtEckfpOv1noWQjgWFeaI3JykPDiQoATNkQAyOhR9n75AYQgv2qNjO+8Aa4+hBDAu+xyGHejQa49jBAgqr4ujpnL1UBXHkoIEG3ys2UZjcPBrjucECByOUNCGF2GA151SCHAascpdcNBrzmsEGB6mg18xf8AZ4bYFeK18xgAAAAASUVORK5CYII=;" parent="1" vertex="1">
          <mxGeometry x="232.5" y="404.15" width="26.52" height="26.52" as="geometry" />
        </mxCell>
        <mxCell id="gcra_a-b6aYlQ8D47dko-184" value="" style="shape=image;verticalLabelPosition=bottom;labelBackgroundColor=#ffffff;verticalAlign=top;aspect=fixed;imageAspect=0;image=data:image/png,iVBORw0KGgoAAAANSUhEUgAAAOEAAADhCAMAAAAJbSJIAAAAkFBMVEUAccb///8AaMMAb8XF1u3I2/AAbcUAa8QAZ8NEjNAAZcIkgMzk7vjh8PmItOAAcsex0OuLr93w9/z3/P681u5hmdVkntbV5fSxyOfq9fsvhM0AdsjS4/Rinde00Ozd6/dNktN0qNuRuuIRecmhxOYAX8B6q9yKteChweUxic+cweQfgcx0odd2qtzF1e2Ss94a2d+PAAAJ70lEQVR42u3dWZequBYA4OzsNgngUEUQZVBQbKvK2+f2//93/VCMCk5M0ZW8naWnyGemnUACgYGTN/QFycDXk4F8c+HcPL63cMKRTt5Z6C2QYGC/sdBnhBD2877CmBNCCOGbdxUuKflNdPeewk0GJES4byiUcQEkhC7fThhZjJQT9733Eh4okmpibPJGQtsV50BCUMzfRugknNQl6q/eQujFNQWYFiP9en2h/UUZaUxIE+e1hfI7oEiuJRRx+MLCU0LJzcRov8b+hNMvfqP8cqNpTF5OKCcu5ff5fuuqf7BfSRjtfcHIQwlpsAtfRDj99tkDxVcYGU++ItWFMvyyzGd4KZKb1lcoVRXK6LAJxPO8DCkS92OqnFBOTkuLU9aSl1VXir67jVQRes63m3DKu9FlSGSUo7F3vPGE0p6GH/t/ftCknGGXuhKTU3MRH0/O1JYDCaU3W4WTj/2fTewH1KSc92OrliYXNPBjd346/DVZrWYzT8ouhSvXdV3DMGLfspJkseBcUM4Y9k47cyLjnArBOSFBkliWZcSGYbiu64YthROTMY5FImMnLCfOmPlXWyElaieqhVqohVqohVqohVqohVqohVqohVqohVqohVqohVqohVqohVqohVqohVqohVqohVqohVqohVqohVqohVqohVqohVqohVqohW8uRGTsnh0p936vHyHSNNVvFOW/H17kDRk16Y/huu7yJ6Fm404+ZNQ0E8N1Xdf4QdO8uieuFyH6Tpr+1B2WwL/X6/V6vU2q+UIe7JxZ8ZftyZeFtT/fYlPZmjfb7qzmXan9CI3846TmwmbK+F/5MxSGc7kha3lZzsLY1ux5juYBjiOciGZhuYTY4qPur7vs3Oc37VtfsnGEsOP3CJlfv+/1TIji0JiR0YT2ZT29FDae7lUVMuvKztjRhOCYN4W4KG12ldNotYpmNUJu2OcbOqUKwstLXwhFcX7JdpkETFBGrM3argqZUfLYzs7wk8Dyjd12NbbQOx+tzoXF16OEpmM4IqP0T1mIVgGcLQVl6SZKRmmyn44qhAO9LuSnbMdt9bdAnhRNFTHvi+ydedYBcXNnb8YQztJfPWbXhdlZSQa7iMyKjG6zK06tmkvyIBljPAzTXEXVgONMiIv039MrIS6Lswuu6iNRHCWmiZL0SydxTRikPWkomsNsno0THnlwM3WvwqmZDdCVAK2pDKNmIcvOipTGg6e+9CxkPC2elbjWl6blI63G4jGzproXRCkhsuz4wzltFtJsONyaTdMlKyvCx0/X6FmIWRdYLp9zIcvP8jw1EPk+K8LH59t9C/NupPS9i1qa5NGYk9QejiXCK5OxkYXFebLFJOMiaiudrCf3NQdk4SL9CWacqCckZtrK5JW5hSidziG/Lg6pw2zqsaYqCvOjnR3aKMRFeXoo11bVmPdXlUURxquJjSUkPOtIssixZgaMQeWUS7mv5Jf9qZku4nFeSV8ujiUk2RHkXhpZ1a1iIFZn796m1K3y7CDTuPSboHffuuYQQkzSCPwgGoUEzXhW/cMJuxgsjLJwpo6Q8GNl8lArJITxeWUOb+dHJ6svJGbaV84oNgsJ0qBaVbPjr/NaWprlKibMo649vSIkBGlwKi+aZme0Z3Vgx9Rsh+Ux/QevCQlBivuirqaxXj5a7EujBZ4+ftNhpoIQWToahByvCn/LsVio45VVkcrF0rsf9O8PFYQE/fT7R3pDSAgRxbJhzMpRm1c3taBqCInY58HzTSFhQRbj/AZCeVT3o7AQedZcxG1haRFcVIaLrVBXWKwl7f5e3RQSM7sBE2C5jsMC1RUSmg52Ng9vC+l3pV6a2ULU2lRYiCxtXOuP20L+XQljimUAl6srLOrpWRkia25c6SodsiyCsS2mrpCIbeW/ZquJyfHiYH0U2XhBz5YTwf45myCrJES064SBvfKrDxtgvtCaL0MWq/qwq5xni6ZCwrOXAJXXvEM3MDkiEoLIRJJz8kgUWXF3NNoEgrP0xpOVRXlKCIul0ctVfW8yNyw0+cLffORFbRejQ2lFDsBzjv/EfhzvTiupRuRdrFbIJiEAgJR29YTcyh1S6/wWsEpzi6KeuteE5+lkVmO51RNPZw0tLIKVO4RzcX4HqvlRDLDnTA1hvmhTuvdU/4TFbEkvZ1ZNr4Hw5gEfYTXRq7ttmU/YixGf1Lz1YOXWLoAi/bl8LYu9XSIfdkU4+fz8/Pz8PNaGZfz4++m/QTE/FizeO5Etf3ub6OMYmE13mVDwzSm0bQkgpW2vDp/G1Uf3eno2kV1bhc4Wq6tBK6cmWoZhWBaa9OptUGRc8MQ3DN8KmLj1IhClni996Ezwe7+rnxHWQi3UQi3UQi3UwrcQ/r+tkKsunLQUhqoLeVthpLyw7buCPAVeD3Q1sailsO5ukEoJiWwrNBQXWtBWOFe7ITK3tXCr9oCY36Z7XjgzlRaKSWshMJUbInJoL3SZys1w2YHQEQoL6akDoVR4REQ+7UAIG3WrabFdqpVQ4fGCrjsRykTValrZfttCWHkoUq3h/g90I7S5ooVIpx0Jy8/uvthgeK8wUnNINKPOhHUnJ7zCtOIBoafgqI8s6lD4zMbA3jvSOXQpVG9MrDyc1IEQtqpNE80tdCtsPLVB4Yj0QaGtVGdzuaWmvVCtAPyekPthYc0j2OP1oxvoQ6hOf4oL2Yvw/ISP8YDmCvoRqtIU71iceVYIRxWIdAf9CbM9kaOOhAb0KQR/7IE/3//fl9AbuUNteuK4OyFEZEwi3ryp3V4I4YhjBlIH+heOSCx2E/UrhMlYvQ39hmGE4NBRSlGcYCghTEaoqPgc8EkhTAa/b/os8FkhhANPiFGsYVghzAI26DDxAUMLwbaGi1ERQxheCLYx1EyDWVMYQwjSHeZ+BjVsGEcIsBcD9DfCbZXHdkLY9j5qYOk8uzGEEC767VKRb2FcIXh+n/0NIyGMLQQ49halIo0lKCCEbU/PESPdd5C7LoQQJX0M/gwnoIoQpNv9sNFuFOxaCLAlrOMaOu8oZ10JYdppDMcTB1QTAszNrmoqCtcGBYWw6qjDYbjtMFddCkEeO1jdQBp7oKoQYNK6GBk/dJuljoUgd61aI4qfKagtBJhYz0dxfHHoPD/dC0HOn2yNKFwPXkEIsPKfCXF44PSRmV6EAAfOHi7APxJeSAi2+1hrpEbYU076EgJMHqiqfLHuLR/9CQFO/L7BkZk7G15SCPbujuaINI76zESvQoAwvtEckfpOv1noWQjgWFeaI3JykPDiQoATNkQAyOhR9n75AYQgv2qNjO+8Aa4+hBDAu+xyGHejQa49jBAgqr4ujpnL1UBXHkoIEG3ys2UZjcPBrjucECByOUNCGF2GA151SCHAascpdcNBrzmsEGB6mg18xf8AZ4bYFeK18xgAAAAASUVORK5CYII=;" parent="1" vertex="1">
          <mxGeometry x="311.7399999999999" y="404.15" width="26.52" height="26.52" as="geometry" />
        </mxCell>
        <mxCell id="gcra_a-b6aYlQ8D47dko-185" value="" style="whiteSpace=wrap;html=1;strokeColor=#001DBC;fontColor=#ffffff;fillColor=none;" parent="1" vertex="1">
          <mxGeometry x="298.87" y="397.40999999999997" width="58.85" height="55" as="geometry" />
        </mxCell>
        <mxCell id="gcra_a-b6aYlQ8D47dko-186" value="" style="whiteSpace=wrap;html=1;strokeColor=#001DBC;fontColor=#ffffff;fillColor=none;" parent="1" vertex="1">
          <mxGeometry x="218.48000000000002" y="396.2" width="60" height="57.41" as="geometry" />
        </mxCell>
        <mxCell id="gcra_a-b6aYlQ8D47dko-187" value="&lt;font style=&quot;font-size: 6px&quot; color=&quot;#66b2ff&quot;&gt;public- subnet&lt;/font&gt;" style="text;html=1;resizable=0;autosize=1;align=center;verticalAlign=middle;points=[];fillColor=none;strokeColor=none;rounded=0;dashed=1;" parent="1" vertex="1">
          <mxGeometry x="223.48000000000002" y="430.67" width="50" height="20" as="geometry" />
        </mxCell>
        <mxCell id="gcra_a-b6aYlQ8D47dko-188" value="&lt;font style=&quot;font-size: 6px&quot; color=&quot;#66b2ff&quot;&gt;private- subnet&lt;/font&gt;" style="text;html=1;resizable=0;autosize=1;align=center;verticalAlign=middle;points=[];fillColor=none;strokeColor=none;rounded=0;dashed=1;" parent="1" vertex="1">
          <mxGeometry x="296.4" y="430.67" width="60" height="20" as="geometry" />
        </mxCell>
        <mxCell id="gcra_a-b6aYlQ8D47dko-191" value="" style="whiteSpace=wrap;html=1;strokeColor=#001DBC;fontColor=#ffffff;fillColor=none;" parent="1" vertex="1">
          <mxGeometry x="266.59" y="193.75" width="113.41" height="46.25" as="geometry" />
        </mxCell>
        <mxCell id="gcra_a-b6aYlQ8D47dko-193" value="" style="whiteSpace=wrap;html=1;strokeColor=#001DBC;fontColor=#ffffff;fillColor=none;" parent="1" vertex="1">
          <mxGeometry x="233.48" y="197" width="30" height="37.5" as="geometry" />
        </mxCell>
        <mxCell id="gcra_a-b6aYlQ8D47dko-194" value="&lt;font style=&quot;font-size: 6px&quot; color=&quot;#66b2ff&quot;&gt;frontend&lt;/font&gt;" style="text;html=1;resizable=0;autosize=1;align=center;verticalAlign=middle;points=[];fillColor=none;strokeColor=none;rounded=0;dashed=1;" parent="1" vertex="1">
          <mxGeometry x="258.87" y="220.00000000000003" width="40" height="20" as="geometry" />
        </mxCell>
        <mxCell id="gcra_a-b6aYlQ8D47dko-195" value="&lt;font style=&quot;font-size: 6px&quot; color=&quot;#66b2ff&quot;&gt;backend&lt;/font&gt;" style="text;html=1;resizable=0;autosize=1;align=center;verticalAlign=middle;points=[];fillColor=none;strokeColor=none;rounded=0;dashed=1;" parent="1" vertex="1">
          <mxGeometry x="231.33999999999997" y="212.50000000000003" width="40" height="20" as="geometry" />
        </mxCell>
        <mxCell id="gcra_a-b6aYlQ8D47dko-203" value="" style="aspect=fixed;html=1;points=[];align=center;image;fontSize=12;image=img/lib/azure2/networking/Virtual_Networks.svg;fillColor=none;" parent="1" vertex="1">
          <mxGeometry x="360.91" y="249.85000000000002" width="17" height="10.15" as="geometry" />
        </mxCell>
        <mxCell id="gcra_a-b6aYlQ8D47dko-205" value="" style="whiteSpace=wrap;html=1;dashed=1;strokeColor=#001DBC;fontColor=#ffffff;fillColor=none;" parent="1" vertex="1">
          <mxGeometry x="198.87" y="170" width="190" height="86" as="geometry" />
        </mxCell>
        <mxCell id="gcra_a-b6aYlQ8D47dko-206" value="" style="aspect=fixed;html=1;points=[];align=center;image;fontSize=12;image=img/lib/mscae/Load_Balancer_feature.svg;fillColor=none;" parent="1" vertex="1">
          <mxGeometry x="337.71999999999997" y="171.88" width="20" height="20" as="geometry" />
        </mxCell>
        <mxCell id="gcra_a-b6aYlQ8D47dko-207" value="" style="aspect=fixed;html=1;points=[];align=center;image;fontSize=12;image=img/lib/mscae/Load_Balancer_feature.svg;fillColor=none;" parent="1" vertex="1">
          <mxGeometry x="273.75" y="172.5" width="20" height="20" as="geometry" />
        </mxCell>
        <mxCell id="gcra_a-b6aYlQ8D47dko-208" value="" style="aspect=fixed;html=1;points=[];align=center;image;fontSize=12;image=img/lib/mscae/Load_Balancer_feature.svg;fillColor=none;" parent="1" vertex="1">
          <mxGeometry x="207.59000000000003" y="171.88" width="20" height="20" as="geometry" />
        </mxCell>
        <mxCell id="gcra_a-b6aYlQ8D47dko-209" value="&lt;font style=&quot;font-size: 6px&quot; color=&quot;#66b2ff&quot;&gt;front-end-lb&lt;/font&gt;" style="text;html=1;resizable=0;autosize=1;align=center;verticalAlign=middle;points=[];fillColor=none;strokeColor=none;rounded=0;dashed=1;" parent="1" vertex="1">
          <mxGeometry x="216.59" y="179.92" width="50" height="20" as="geometry" />
        </mxCell>
        <mxCell id="gcra_a-b6aYlQ8D47dko-210" value="&lt;font style=&quot;font-size: 6px&quot; color=&quot;#66b2ff&quot;&gt;azbatch-cs-lb&lt;/font&gt;" style="text;html=1;resizable=0;autosize=1;align=center;verticalAlign=middle;points=[];fillColor=none;strokeColor=none;rounded=0;dashed=1;" parent="1" vertex="1">
          <mxGeometry x="292.59000000000003" y="173.75" width="50" height="20" as="geometry" />
        </mxCell>
        <mxCell id="gcra_a-b6aYlQ8D47dko-211" value="&lt;font style=&quot;font-size: 6px&quot; color=&quot;#66b2ff&quot;&gt;aads-lb&lt;/font&gt;" style="text;html=1;resizable=0;autosize=1;align=center;verticalAlign=middle;points=[];fillColor=none;strokeColor=none;rounded=0;dashed=1;" parent="1" vertex="1">
          <mxGeometry x="349.41" y="177" width="40" height="20" as="geometry" />
        </mxCell>
        <mxCell id="gcra_a-b6aYlQ8D47dko-212" value="" style="whiteSpace=wrap;html=1;strokeColor=#001DBC;fontColor=#ffffff;fillColor=none;strokeWidth=2;" parent="1" vertex="1">
          <mxGeometry x="183.48" y="380" width="216.52" height="100" as="geometry" />
        </mxCell>
        <mxCell id="gcra_a-b6aYlQ8D47dko-213" value="" style="aspect=fixed;html=1;points=[];align=center;image;fontSize=12;image=img/lib/azure2/general/Resource_Groups.svg;" parent="1" vertex="1">
          <mxGeometry x="172.59" y="377.6" width="20" height="18.81" as="geometry" />
        </mxCell>
        <mxCell id="gcra_a-b6aYlQ8D47dko-214" value="&lt;font style=&quot;font-size: 6px&quot; color=&quot;#66b2ff&quot;&gt;databriks-rg-bv_adbprd-2cid7zsaxt6y2&lt;/font&gt;" style="text;html=1;resizable=0;autosize=1;align=center;verticalAlign=middle;points=[];fillColor=none;strokeColor=none;rounded=0;dashed=1;" parent="1" vertex="1">
          <mxGeometry x="191.74" y="369.99999999999994" width="120" height="20" as="geometry" />
        </mxCell>
        <mxCell id="gcra_a-b6aYlQ8D47dko-216" value="" style="aspect=fixed;html=1;points=[];align=center;image;fontSize=12;image=img/lib/azure2/general/Resource_Groups.svg;" parent="1" vertex="1">
          <mxGeometry x="170" y="271.11" width="20" height="18.81" as="geometry" />
        </mxCell>
        <mxCell id="gcra_a-b6aYlQ8D47dko-256" style="edgeStyle=orthogonalEdgeStyle;rounded=0;jumpStyle=none;orthogonalLoop=1;jettySize=auto;html=1;entryX=0;entryY=0.5;entryDx=0;entryDy=0;startArrow=classic;startFill=1;endArrow=classic;endFill=1;fillColor=#0050ef;strokeColor=#001DBC;" parent="1" source="gcra_a-b6aYlQ8D47dko-217" target="gcra_a-b6aYlQ8D47dko-241" edge="1">
          <mxGeometry relative="1" as="geometry">
            <Array as="points">
              <mxPoint x="439" y="321" />
              <mxPoint x="439" y="340" />
            </Array>
          </mxGeometry>
        </mxCell>
        <mxCell id="gcra_a-b6aYlQ8D47dko-217" value="" style="whiteSpace=wrap;html=1;strokeWidth=2;strokeColor=#001DBC;fontColor=#ffffff;fillColor=none;" parent="1" vertex="1">
          <mxGeometry x="181.74" y="271.11" width="216.52" height="100" as="geometry" />
        </mxCell>
        <mxCell id="gcra_a-b6aYlQ8D47dko-219" value="&lt;font style=&quot;font-size: 6px&quot; color=&quot;#66b2ff&quot;&gt;bv-prod-network&lt;/font&gt;" style="text;html=1;resizable=0;autosize=1;align=center;verticalAlign=middle;points=[];fillColor=none;strokeColor=none;rounded=0;dashed=1;" parent="1" vertex="1">
          <mxGeometry x="181.74" y="269.91999999999996" width="60" height="20" as="geometry" />
        </mxCell>
        <mxCell id="gcra_a-b6aYlQ8D47dko-220" value="" style="shape=image;verticalLabelPosition=bottom;labelBackgroundColor=#ffffff;verticalAlign=top;aspect=fixed;imageAspect=0;image=data:image/png,iVBORw0KGgoAAAANSUhEUgAAAOEAAADhCAMAAAAJbSJIAAAAkFBMVEUAccb///8AaMMAb8XF1u3I2/AAbcUAa8QAZ8NEjNAAZcIkgMzk7vjh8PmItOAAcsex0OuLr93w9/z3/P681u5hmdVkntbV5fSxyOfq9fsvhM0AdsjS4/Rinde00Ozd6/dNktN0qNuRuuIRecmhxOYAX8B6q9yKteChweUxic+cweQfgcx0odd2qtzF1e2Ss94a2d+PAAAJ70lEQVR42u3dWZequBYA4OzsNgngUEUQZVBQbKvK2+f2//93/VCMCk5M0ZW8naWnyGemnUACgYGTN/QFycDXk4F8c+HcPL63cMKRTt5Z6C2QYGC/sdBnhBD2877CmBNCCOGbdxUuKflNdPeewk0GJES4byiUcQEkhC7fThhZjJQT9733Eh4okmpibPJGQtsV50BCUMzfRugknNQl6q/eQujFNQWYFiP9en2h/UUZaUxIE+e1hfI7oEiuJRRx+MLCU0LJzcRov8b+hNMvfqP8cqNpTF5OKCcu5ff5fuuqf7BfSRjtfcHIQwlpsAtfRDj99tkDxVcYGU++ItWFMvyyzGd4KZKb1lcoVRXK6LAJxPO8DCkS92OqnFBOTkuLU9aSl1VXir67jVQRes63m3DKu9FlSGSUo7F3vPGE0p6GH/t/ftCknGGXuhKTU3MRH0/O1JYDCaU3W4WTj/2fTewH1KSc92OrliYXNPBjd346/DVZrWYzT8ouhSvXdV3DMGLfspJkseBcUM4Y9k47cyLjnArBOSFBkliWZcSGYbiu64YthROTMY5FImMnLCfOmPlXWyElaieqhVqohVqohVqohVqohVqohVqohVqohVqohVqohVqohVqohVqohVqohVqohVqohVqohVqohVqohVqohVqohVqohVqohVqohW8uRGTsnh0p936vHyHSNNVvFOW/H17kDRk16Y/huu7yJ6Fm404+ZNQ0E8N1Xdf4QdO8uieuFyH6Tpr+1B2WwL/X6/V6vU2q+UIe7JxZ8ZftyZeFtT/fYlPZmjfb7qzmXan9CI3846TmwmbK+F/5MxSGc7kha3lZzsLY1ux5juYBjiOciGZhuYTY4qPur7vs3Oc37VtfsnGEsOP3CJlfv+/1TIji0JiR0YT2ZT29FDae7lUVMuvKztjRhOCYN4W4KG12ldNotYpmNUJu2OcbOqUKwstLXwhFcX7JdpkETFBGrM3argqZUfLYzs7wk8Dyjd12NbbQOx+tzoXF16OEpmM4IqP0T1mIVgGcLQVl6SZKRmmyn44qhAO9LuSnbMdt9bdAnhRNFTHvi+ydedYBcXNnb8YQztJfPWbXhdlZSQa7iMyKjG6zK06tmkvyIBljPAzTXEXVgONMiIv039MrIS6Lswuu6iNRHCWmiZL0SydxTRikPWkomsNsno0THnlwM3WvwqmZDdCVAK2pDKNmIcvOipTGg6e+9CxkPC2elbjWl6blI63G4jGzproXRCkhsuz4wzltFtJsONyaTdMlKyvCx0/X6FmIWRdYLp9zIcvP8jw1EPk+K8LH59t9C/NupPS9i1qa5NGYk9QejiXCK5OxkYXFebLFJOMiaiudrCf3NQdk4SL9CWacqCckZtrK5JW5hSidziG/Lg6pw2zqsaYqCvOjnR3aKMRFeXoo11bVmPdXlUURxquJjSUkPOtIssixZgaMQeWUS7mv5Jf9qZku4nFeSV8ujiUk2RHkXhpZ1a1iIFZn796m1K3y7CDTuPSboHffuuYQQkzSCPwgGoUEzXhW/cMJuxgsjLJwpo6Q8GNl8lArJITxeWUOb+dHJ6svJGbaV84oNgsJ0qBaVbPjr/NaWprlKibMo649vSIkBGlwKi+aZme0Z3Vgx9Rsh+Ux/QevCQlBivuirqaxXj5a7EujBZ4+ftNhpoIQWToahByvCn/LsVio45VVkcrF0rsf9O8PFYQE/fT7R3pDSAgRxbJhzMpRm1c3taBqCInY58HzTSFhQRbj/AZCeVT3o7AQedZcxG1haRFcVIaLrVBXWKwl7f5e3RQSM7sBE2C5jsMC1RUSmg52Ng9vC+l3pV6a2ULU2lRYiCxtXOuP20L+XQljimUAl6srLOrpWRkia25c6SodsiyCsS2mrpCIbeW/ZquJyfHiYH0U2XhBz5YTwf45myCrJES064SBvfKrDxtgvtCaL0MWq/qwq5xni6ZCwrOXAJXXvEM3MDkiEoLIRJJz8kgUWXF3NNoEgrP0xpOVRXlKCIul0ctVfW8yNyw0+cLffORFbRejQ2lFDsBzjv/EfhzvTiupRuRdrFbIJiEAgJR29YTcyh1S6/wWsEpzi6KeuteE5+lkVmO51RNPZw0tLIKVO4RzcX4HqvlRDLDnTA1hvmhTuvdU/4TFbEkvZ1ZNr4Hw5gEfYTXRq7ttmU/YixGf1Lz1YOXWLoAi/bl8LYu9XSIfdkU4+fz8/Pz8PNaGZfz4++m/QTE/FizeO5Etf3ub6OMYmE13mVDwzSm0bQkgpW2vDp/G1Uf3eno2kV1bhc4Wq6tBK6cmWoZhWBaa9OptUGRc8MQ3DN8KmLj1IhClni996Ezwe7+rnxHWQi3UQi3UQi3UwrcQ/r+tkKsunLQUhqoLeVthpLyw7buCPAVeD3Q1sailsO5ukEoJiWwrNBQXWtBWOFe7ITK3tXCr9oCY36Z7XjgzlRaKSWshMJUbInJoL3SZys1w2YHQEQoL6akDoVR4REQ+7UAIG3WrabFdqpVQ4fGCrjsRykTValrZfttCWHkoUq3h/g90I7S5ooVIpx0Jy8/uvthgeK8wUnNINKPOhHUnJ7zCtOIBoafgqI8s6lD4zMbA3jvSOXQpVG9MrDyc1IEQtqpNE80tdCtsPLVB4Yj0QaGtVGdzuaWmvVCtAPyekPthYc0j2OP1oxvoQ6hOf4oL2Yvw/ISP8YDmCvoRqtIU71iceVYIRxWIdAf9CbM9kaOOhAb0KQR/7IE/3//fl9AbuUNteuK4OyFEZEwi3ryp3V4I4YhjBlIH+heOSCx2E/UrhMlYvQ39hmGE4NBRSlGcYCghTEaoqPgc8EkhTAa/b/os8FkhhANPiFGsYVghzAI26DDxAUMLwbaGi1ERQxheCLYx1EyDWVMYQwjSHeZ+BjVsGEcIsBcD9DfCbZXHdkLY9j5qYOk8uzGEEC767VKRb2FcIXh+n/0NIyGMLQQ49halIo0lKCCEbU/PESPdd5C7LoQQJX0M/gwnoIoQpNv9sNFuFOxaCLAlrOMaOu8oZ10JYdppDMcTB1QTAszNrmoqCtcGBYWw6qjDYbjtMFddCkEeO1jdQBp7oKoQYNK6GBk/dJuljoUgd61aI4qfKagtBJhYz0dxfHHoPD/dC0HOn2yNKFwPXkEIsPKfCXF44PSRmV6EAAfOHi7APxJeSAi2+1hrpEbYU076EgJMHqiqfLHuLR/9CQFO/L7BkZk7G15SCPbujuaINI76zESvQoAwvtEckfpOv1noWQjgWFeaI3JykPDiQoATNkQAyOhR9n75AYQgv2qNjO+8Aa4+hBDAu+xyGHejQa49jBAgqr4ujpnL1UBXHkoIEG3ys2UZjcPBrjucECByOUNCGF2GA151SCHAascpdcNBrzmsEGB6mg18xf8AZ4bYFeK18xgAAAAASUVORK5CYII=;" parent="1" vertex="1">
          <mxGeometry x="237.64000000000001" y="199.92" width="16.25" height="16.25" as="geometry" />
        </mxCell>
        <mxCell id="gcra_a-b6aYlQ8D47dko-221" value="" style="aspect=fixed;html=1;points=[];align=center;image;fontSize=12;image=img/lib/azure2/compute/Virtual_Machine.svg;fillColor=none;" parent="1" vertex="1">
          <mxGeometry x="314.80999999999995" y="210" width="26.96" height="25" as="geometry" />
        </mxCell>
        <mxCell id="gcra_a-b6aYlQ8D47dko-222" value="" style="aspect=fixed;html=1;points=[];align=center;image;fontSize=12;image=img/lib/azure2/compute/Virtual_Machine.svg;fillColor=none;" parent="1" vertex="1">
          <mxGeometry x="346.44" y="209.5" width="26.96" height="25" as="geometry" />
        </mxCell>
        <mxCell id="gcra_a-b6aYlQ8D47dko-228" value="" style="whiteSpace=wrap;html=1;strokeColor=#001DBC;fontColor=#ffffff;fillColor=none;" parent="1" vertex="1">
          <mxGeometry x="197.59" y="57.5" width="202.41" height="92.5" as="geometry" />
        </mxCell>
        <mxCell id="gcra_a-b6aYlQ8D47dko-229" value="" style="whiteSpace=wrap;html=1;strokeColor=#001DBC;fontColor=#ffffff;fillColor=none;" parent="1" vertex="1">
          <mxGeometry x="192.59" y="159.89" width="204.86" height="100.07" as="geometry" />
        </mxCell>
        <mxCell id="gcra_a-b6aYlQ8D47dko-230" value="" style="whiteSpace=wrap;html=1;strokeWidth=2;strokeColor=#001DBC;fontColor=#ffffff;fillColor=none;" parent="1" vertex="1">
          <mxGeometry x="188.8" y="44.4" width="220" height="221.19" as="geometry" />
        </mxCell>
        <mxCell id="gcra_a-b6aYlQ8D47dko-239" value="&lt;font style=&quot;font-size: 6px&quot; color=&quot;#66b2ff&quot;&gt;VNet-Peering&lt;/font&gt;" style="text;html=1;resizable=0;autosize=1;align=center;verticalAlign=middle;points=[];fillColor=none;strokeColor=none;rounded=0;dashed=1;" parent="1" vertex="1">
          <mxGeometry x="425" y="47.5" width="50" height="20" as="geometry" />
        </mxCell>
        <mxCell id="gcra_a-b6aYlQ8D47dko-240" value="&lt;font style=&quot;font-size: 6px&quot; color=&quot;#66b2ff&quot;&gt;lv-dev-vdi-cetral-india&lt;/font&gt;" style="text;html=1;resizable=0;autosize=1;align=center;verticalAlign=middle;points=[];fillColor=none;strokeColor=none;rounded=0;dashed=1;" parent="1" vertex="1">
          <mxGeometry x="486.75" y="475.67" width="70" height="20" as="geometry" />
        </mxCell>
        <mxCell id="gcra_a-b6aYlQ8D47dko-241" value="" style="whiteSpace=wrap;html=1;dashed=1;strokeColor=#001DBC;fontColor=#ffffff;fillColor=none;" parent="1" vertex="1">
          <mxGeometry x="480" y="324.93" width="78.38" height="30" as="geometry" />
        </mxCell>
        <mxCell id="gcra_a-b6aYlQ8D47dko-242" value="" style="aspect=fixed;html=1;points=[];align=center;image;fontSize=12;image=img/lib/azure2/networking/Virtual_Networks.svg;dashed=1;fillColor=none;" parent="1" vertex="1">
          <mxGeometry x="539.9999999999999" y="345" width="16.75" height="10" as="geometry" />
        </mxCell>
        <mxCell id="gcra_a-b6aYlQ8D47dko-257" style="edgeStyle=orthogonalEdgeStyle;rounded=0;jumpStyle=none;orthogonalLoop=1;jettySize=auto;html=1;startArrow=classic;startFill=1;endArrow=none;endFill=0;fillColor=#0050ef;strokeColor=#001DBC;" parent="1" source="gcra_a-b6aYlQ8D47dko-243" edge="1">
          <mxGeometry relative="1" as="geometry">
            <mxPoint x="440" y="340" as="targetPoint" />
          </mxGeometry>
        </mxCell>
        <mxCell id="gcra_a-b6aYlQ8D47dko-243" value="" style="whiteSpace=wrap;html=1;dashed=1;strokeColor=#001DBC;fontColor=#ffffff;fillColor=none;" parent="1" vertex="1">
          <mxGeometry x="480" y="359.85" width="78.38" height="30" as="geometry" />
        </mxCell>
        <mxCell id="gcra_a-b6aYlQ8D47dko-258" style="edgeStyle=orthogonalEdgeStyle;rounded=0;jumpStyle=none;orthogonalLoop=1;jettySize=auto;html=1;startArrow=classic;startFill=1;endArrow=none;endFill=0;fillColor=#0050ef;strokeColor=#001DBC;" parent="1" source="gcra_a-b6aYlQ8D47dko-244" edge="1">
          <mxGeometry relative="1" as="geometry">
            <mxPoint x="440" y="370" as="targetPoint" />
          </mxGeometry>
        </mxCell>
        <mxCell id="gcra_a-b6aYlQ8D47dko-263" style="edgeStyle=orthogonalEdgeStyle;rounded=0;jumpStyle=none;orthogonalLoop=1;jettySize=auto;html=1;startArrow=classic;startFill=1;endArrow=none;endFill=0;fillColor=#f0a30a;strokeColor=#BD7000;" parent="1" source="gcra_a-b6aYlQ8D47dko-244" edge="1">
          <mxGeometry relative="1" as="geometry">
            <mxPoint x="640" y="410" as="targetPoint" />
          </mxGeometry>
        </mxCell>
        <mxCell id="gcra_a-b6aYlQ8D47dko-244" value="" style="whiteSpace=wrap;html=1;dashed=1;strokeColor=#001DBC;fontColor=#ffffff;fillColor=none;" parent="1" vertex="1">
          <mxGeometry x="480" y="395" width="78.38" height="30" as="geometry" />
        </mxCell>
        <mxCell id="gcra_a-b6aYlQ8D47dko-259" style="edgeStyle=orthogonalEdgeStyle;rounded=0;jumpStyle=none;orthogonalLoop=1;jettySize=auto;html=1;startArrow=classic;startFill=1;endArrow=none;endFill=0;fillColor=#0050ef;strokeColor=#001DBC;" parent="1" source="gcra_a-b6aYlQ8D47dko-245" edge="1">
          <mxGeometry relative="1" as="geometry">
            <mxPoint x="440" y="410" as="targetPoint" />
          </mxGeometry>
        </mxCell>
        <mxCell id="gcra_a-b6aYlQ8D47dko-262" style="edgeStyle=orthogonalEdgeStyle;rounded=0;jumpStyle=none;orthogonalLoop=1;jettySize=auto;html=1;startArrow=classic;startFill=1;endArrow=none;endFill=0;fillColor=#f0a30a;strokeColor=#BD7000;" parent="1" source="gcra_a-b6aYlQ8D47dko-245" edge="1">
          <mxGeometry relative="1" as="geometry">
            <mxPoint x="640" y="445.6700000000001" as="targetPoint" />
          </mxGeometry>
        </mxCell>
        <mxCell id="gcra_a-b6aYlQ8D47dko-245" value="" style="whiteSpace=wrap;html=1;dashed=1;strokeColor=#001DBC;fontColor=#ffffff;fillColor=none;" parent="1" vertex="1">
          <mxGeometry x="480" y="430.67" width="78.38" height="30" as="geometry" />
        </mxCell>
        <mxCell id="gcra_a-b6aYlQ8D47dko-260" style="edgeStyle=orthogonalEdgeStyle;rounded=0;jumpStyle=none;orthogonalLoop=1;jettySize=auto;html=1;startArrow=classic;startFill=1;endArrow=none;endFill=0;fillColor=#0050ef;strokeColor=#001DBC;" parent="1" source="gcra_a-b6aYlQ8D47dko-246" edge="1">
          <mxGeometry relative="1" as="geometry">
            <mxPoint x="440" y="440" as="targetPoint" />
          </mxGeometry>
        </mxCell>
        <mxCell id="gcra_a-b6aYlQ8D47dko-246" value="" style="whiteSpace=wrap;html=1;dashed=1;strokeColor=#001DBC;fontColor=#ffffff;fillColor=none;" parent="1" vertex="1">
          <mxGeometry x="480" y="470.67" width="78.38" height="30" as="geometry" />
        </mxCell>
        <mxCell id="gcra_a-b6aYlQ8D47dko-247" value="" style="aspect=fixed;html=1;points=[];align=center;image;fontSize=12;image=img/lib/azure2/networking/Virtual_Networks.svg;dashed=1;fillColor=none;" parent="1" vertex="1">
          <mxGeometry x="529.9999999999999" y="380" width="16.75" height="10" as="geometry" />
        </mxCell>
        <mxCell id="gcra_a-b6aYlQ8D47dko-248" value="" style="aspect=fixed;html=1;points=[];align=center;image;fontSize=12;image=img/lib/azure2/networking/Virtual_Networks.svg;dashed=1;fillColor=none;" parent="1" vertex="1">
          <mxGeometry x="529.9999999999999" y="415" width="16.75" height="10" as="geometry" />
        </mxCell>
        <mxCell id="gcra_a-b6aYlQ8D47dko-249" value="" style="aspect=fixed;html=1;points=[];align=center;image;fontSize=12;image=img/lib/azure2/networking/Virtual_Networks.svg;dashed=1;fillColor=none;" parent="1" vertex="1">
          <mxGeometry x="529.9999999999999" y="453.61" width="16.75" height="10" as="geometry" />
        </mxCell>
        <mxCell id="gcra_a-b6aYlQ8D47dko-250" value="" style="aspect=fixed;html=1;points=[];align=center;image;fontSize=12;image=img/lib/azure2/networking/Virtual_Networks.svg;dashed=1;fillColor=none;" parent="1" vertex="1">
          <mxGeometry x="529.9999999999999" y="490.67" width="16.75" height="10" as="geometry" />
        </mxCell>
        <mxCell id="gcra_a-b6aYlQ8D47dko-252" value="&lt;font style=&quot;font-size: 6px&quot; color=&quot;#66b2ff&quot;&gt;lv-dev-vdi-cetral-india&lt;/font&gt;" style="text;html=1;resizable=0;autosize=1;align=center;verticalAlign=middle;points=[];fillColor=none;strokeColor=none;rounded=0;dashed=1;" parent="1" vertex="1">
          <mxGeometry x="484.19" y="325" width="70" height="20" as="geometry" />
        </mxCell>
        <mxCell id="gcra_a-b6aYlQ8D47dko-253" value="&lt;font style=&quot;font-size: 6px&quot; color=&quot;#66b2ff&quot;&gt;vnet-us-east2-fw&lt;/font&gt;" style="text;html=1;resizable=0;autosize=1;align=center;verticalAlign=middle;points=[];fillColor=none;strokeColor=none;rounded=0;dashed=1;" parent="1" vertex="1">
          <mxGeometry x="489.19" y="360" width="60" height="20" as="geometry" />
        </mxCell>
        <mxCell id="gcra_a-b6aYlQ8D47dko-254" value="&lt;font style=&quot;font-size: 6px&quot; color=&quot;#66b2ff&quot;&gt;vnet-dev-useast-2&lt;/font&gt;" style="text;html=1;resizable=0;autosize=1;align=center;verticalAlign=middle;points=[];fillColor=none;strokeColor=none;rounded=0;dashed=1;" parent="1" vertex="1">
          <mxGeometry x="494.19" y="395" width="60" height="20" as="geometry" />
        </mxCell>
        <mxCell id="gcra_a-b6aYlQ8D47dko-255" value="&lt;font style=&quot;font-size: 6px&quot; color=&quot;#66b2ff&quot;&gt;lv-ci-dev-Vnet&lt;/font&gt;" style="text;html=1;resizable=0;autosize=1;align=center;verticalAlign=middle;points=[];fillColor=none;strokeColor=none;rounded=0;dashed=1;" parent="1" vertex="1">
          <mxGeometry x="496.75" y="435.67" width="50" height="20" as="geometry" />
        </mxCell>
        <mxCell id="gcra_a-b6aYlQ8D47dko-261" value="&lt;font style=&quot;font-size: 6px&quot; color=&quot;#66b2ff&quot;&gt;VNet-Peering&lt;/font&gt;" style="text;html=1;resizable=0;autosize=1;align=center;verticalAlign=middle;points=[];fillColor=none;strokeColor=none;rounded=0;dashed=1;" parent="1" vertex="1">
          <mxGeometry x="408.8" y="300" width="50" height="20" as="geometry" />
        </mxCell>
        <mxCell id="gcra_a-b6aYlQ8D47dko-264" value="" style="whiteSpace=wrap;html=1;strokeWidth=3;strokeColor=#001DBC;fontColor=#ffffff;fillColor=none;" parent="1" vertex="1">
          <mxGeometry x="114.62" y="-0.08" width="700.38" height="527.08" as="geometry" />
        </mxCell>
        <mxCell id="gcra_a-b6aYlQ8D47dko-265" value="" style="aspect=fixed;html=1;points=[];align=center;image;fontSize=12;image=img/lib/azure2/general/Subscriptions.svg;strokeWidth=3;fillColor=none;" parent="1" vertex="1">
          <mxGeometry x="162.60000000000002" y="6.920000000000002" width="16.2" height="26.15" as="geometry" />
        </mxCell>
        <mxCell id="gcra_a-b6aYlQ8D47dko-266" value="" style="whiteSpace=wrap;html=1;strokeWidth=2;strokeColor=#006EAF;fontColor=#ffffff;fillColor=none;" parent="1" vertex="1">
          <mxGeometry x="156.74" y="14.479999999999999" width="270" height="481.19" as="geometry" />
        </mxCell>
      </root>
    </mxGraphModel>
  </diagram>
</mxfile>
